<?xml version="1.0" encoding="UTF-8" standalone="no"?>
<!DOCTYPE svg PUBLIC "-//W3C//DTD SVG 1.1//EN"
 "http://www.w3.org/Graphics/SVG/1.1/DTD/svg11.dtd">
<!-- Generated by graphviz version 2.43.0 (0)
 -->
<!-- Title: SystemArchitecture Pages: 1 -->
<svg width="1226pt" height="712pt"
 viewBox="0.00 0.00 1226.00 712.00" xmlns="http://www.w3.org/2000/svg" xmlns:xlink="http://www.w3.org/1999/xlink">
<g id="graph0" class="graph" transform="scale(1 1) rotate(0) translate(4 708)">
<title>SystemArchitecture</title>
<polygon fill="white" stroke="transparent" points="-4,4 -4,-708 1222,-708 1222,4 -4,4"/>
<text text-anchor="middle" x="609" y="-685.6" font-family="Arial" font-size="18.00">Figure 1: System Architecture Overview</text>
<g id="clust1" class="cluster">
<title>cluster_input</title>
<polygon fill="lightgray" stroke="gray" points="259,-587 259,-668 349,-668 349,-587 259,-587"/>
<text text-anchor="middle" x="304" y="-649.6" font-family="Arial" font-size="18.00">Input</text>
</g>
<g id="clust2" class="cluster">
<title>cluster_assembler</title>
<polygon fill="#d4edda" stroke="green" points="108,-275 108,-579 287,-579 287,-275 108,-275"/>
<text text-anchor="middle" x="197.5" y="-560.6" font-family="Arial" font-size="18.00">Assembler Toolchain</text>
</g>
<g id="clust3" class="cluster">
<title>cluster_python</title>
<polygon fill="#fff3cd" stroke="orange" points="83,-187 83,-267 389,-267 389,-187 83,-187"/>
<text text-anchor="middle" x="236" y="-248.6" font-family="Arial" font-size="18.00">Python Tools</text>
</g>
<g id="clust4" class="cluster">
<title>cluster_output</title>
<polygon fill="#d1ecf1" stroke="blue" points="117,-96 117,-179 363,-179 363,-96 117,-96"/>
<text text-anchor="middle" x="240" y="-160.6" font-family="Arial" font-size="18.00">Output</text>
</g>
<g id="clust5" class="cluster">
<title>cluster_emulator</title>
<polygon fill="#f8d7da" stroke="red" points="8,-8 8,-88 196,-88 196,-8 8,-8"/>
<text text-anchor="middle" x="102" y="-69.6" font-family="Arial" font-size="18.00">Emulator</text>
</g>
<g id="clust6" class="cluster">
<title>cluster_verilog</title>
<polygon fill="#e2e3e5" stroke="gray" points="204,-8 204,-88 1210,-88 1210,-8 204,-8"/>
<text text-anchor="middle" x="707" y="-69.6" font-family="Arial" font-size="18.00">Verilog</text>
</g>
<g id="clust7" class="cluster">
<title>cluster_logisim</title>
<polygon fill="#cce5ff" stroke="navy" points="674,-587.5 674,-667.5 1065,-667.5 1065,-587.5 674,-587.5"/>
<text text-anchor="middle" x="869.5" y="-649.1" font-family="Arial" font-size="18.00">Logisim</text>
</g>
<!-- Bold -->
<g id="node1" class="node">
<title>Bold</title>
<path fill="none" stroke="black" d="M237,-631.5C237,-631.5 207,-631.5 207,-631.5 201,-631.5 195,-625.5 195,-619.5 195,-619.5 195,-607.5 195,-607.5 195,-601.5 201,-595.5 207,-595.5 207,-595.5 237,-595.5 237,-595.5 243,-595.5 249,-601.5 249,-607.5 249,-607.5 249,-619.5 249,-619.5 249,-625.5 243,-631.5 237,-631.5"/>
<text text-anchor="middle" x="222" y="-609.8" font-family="Arial" font-size="14.00">Bold</text>
</g>
<!-- asm_files -->
<g id="node2" class="node">
<title>asm_files</title>
<path fill="none" stroke="black" d="M279,-595.5C279,-595.5 329,-595.5 329,-595.5 335,-595.5 341,-601.5 341,-607.5 341,-607.5 341,-619.5 341,-619.5 341,-625.5 335,-631.5 329,-631.5 329,-631.5 279,-631.5 279,-631.5 273,-631.5 267,-625.5 267,-619.5 267,-619.5 267,-607.5 267,-607.5 267,-601.5 273,-595.5 279,-595.5"/>
<text text-anchor="middle" x="304" y="-609.8" font-family="Arial" font-size="14.00">.asm files</text>
</g>
<!-- lexer -->
<g id="node3" class="node">
<title>lexer</title>
<path fill="none" stroke="black" d="M247.5,-543C247.5,-543 212.5,-543 212.5,-543 206.5,-543 200.5,-537 200.5,-531 200.5,-531 200.5,-517 200.5,-517 200.5,-511 206.5,-505 212.5,-505 212.5,-505 247.5,-505 247.5,-505 253.5,-505 259.5,-511 259.5,-517 259.5,-517 259.5,-531 259.5,-531 259.5,-537 253.5,-543 247.5,-543"/>
<text text-anchor="middle" x="230" y="-527.8" font-family="Arial" font-size="14.00">lexer.l</text>
<text text-anchor="middle" x="230" y="-512.8" font-family="Arial" font-size="14.00">(Lexer)</text>
</g>
<!-- asm_files&#45;&gt;lexer -->
<g id="edge4" class="edge">
<title>asm_files&#45;&gt;lexer</title>
<path fill="none" stroke="gray" stroke-width="1.5" d="M289.38,-595.21C278.75,-582.64 264.16,-565.39 252.11,-551.14"/>
<polygon fill="gray" stroke="gray" stroke-width="1.5" points="254.48,-548.53 245.35,-543.15 249.14,-553.05 254.48,-548.53"/>
</g>
<!-- py_assembler -->
<g id="node7" class="node">
<title>py_assembler</title>
<path fill="none" stroke="black" d="M369.5,-231C369.5,-231 296.5,-231 296.5,-231 290.5,-231 284.5,-225 284.5,-219 284.5,-219 284.5,-207 284.5,-207 284.5,-201 290.5,-195 296.5,-195 296.5,-195 369.5,-195 369.5,-195 375.5,-195 381.5,-201 381.5,-207 381.5,-207 381.5,-219 381.5,-219 381.5,-225 375.5,-231 369.5,-231"/>
<text text-anchor="middle" x="333" y="-209.3" font-family="Arial" font-size="14.00">assembler.py</text>
</g>
<!-- asm_files&#45;&gt;py_assembler -->
<g id="edge5" class="edge">
<title>asm_files&#45;&gt;py_assembler</title>
<path fill="none" stroke="gray" stroke-width="1.5" d="M304.89,-595.06C306.33,-565.45 309,-503.46 309,-451 309,-451 309,-451 309,-375 309,-327.52 319.34,-273.02 326.44,-241.16"/>
<polygon fill="gray" stroke="gray" stroke-width="1.5" points="329.89,-241.8 328.71,-231.27 323.06,-240.23 329.89,-241.8"/>
</g>
<!-- parser -->
<g id="node4" class="node">
<title>parser</title>
<path fill="none" stroke="black" d="M245.5,-469C245.5,-469 204.5,-469 204.5,-469 198.5,-469 192.5,-463 192.5,-457 192.5,-457 192.5,-443 192.5,-443 192.5,-437 198.5,-431 204.5,-431 204.5,-431 245.5,-431 245.5,-431 251.5,-431 257.5,-437 257.5,-443 257.5,-443 257.5,-457 257.5,-457 257.5,-463 251.5,-469 245.5,-469"/>
<text text-anchor="middle" x="225" y="-453.8" font-family="Arial" font-size="14.00">parser.y</text>
<text text-anchor="middle" x="225" y="-438.8" font-family="Arial" font-size="14.00">(Parser)</text>
</g>
<!-- lexer&#45;&gt;parser -->
<g id="edge1" class="edge">
<title>lexer&#45;&gt;parser</title>
<path fill="none" stroke="gray" stroke-width="1.5" d="M228.74,-504.83C227.99,-494 227.03,-480.29 226.28,-469.41"/>
</g>
<!-- ast -->
<g id="node5" class="node">
<title>ast</title>
<path fill="none" stroke="black" d="M204,-395C204,-395 172,-395 172,-395 166,-395 160,-389 160,-383 160,-383 160,-369 160,-369 160,-363 166,-357 172,-357 172,-357 204,-357 204,-357 210,-357 216,-363 216,-369 216,-369 216,-383 216,-383 216,-389 210,-395 204,-395"/>
<text text-anchor="middle" x="188" y="-379.8" font-family="Arial" font-size="14.00">ast.c/h</text>
<text text-anchor="middle" x="188" y="-364.8" font-family="Arial" font-size="14.00">(AST)</text>
</g>
<!-- parser&#45;&gt;ast -->
<g id="edge2" class="edge">
<title>parser&#45;&gt;ast</title>
<path fill="none" stroke="gray" stroke-width="1.5" d="M215.66,-430.83C210.1,-420 203.05,-406.29 197.46,-395.41"/>
</g>
<!-- codegen -->
<g id="node6" class="node">
<title>codegen</title>
<path fill="none" stroke="black" d="M211.5,-321C211.5,-321 146.5,-321 146.5,-321 140.5,-321 134.5,-315 134.5,-309 134.5,-309 134.5,-295 134.5,-295 134.5,-289 140.5,-283 146.5,-283 146.5,-283 211.5,-283 211.5,-283 217.5,-283 223.5,-289 223.5,-295 223.5,-295 223.5,-309 223.5,-309 223.5,-315 217.5,-321 211.5,-321"/>
<text text-anchor="middle" x="179" y="-305.8" font-family="Arial" font-size="14.00">assembler.c</text>
<text text-anchor="middle" x="179" y="-290.8" font-family="Arial" font-size="14.00">(Code Gen)</text>
</g>
<!-- ast&#45;&gt;codegen -->
<g id="edge3" class="edge">
<title>ast&#45;&gt;codegen</title>
<path fill="none" stroke="gray" stroke-width="1.5" d="M185.73,-356.83C184.38,-346 182.66,-332.29 181.3,-321.41"/>
</g>
<!-- ctrl_gen -->
<g id="node8" class="node">
<title>ctrl_gen</title>
<path fill="none" stroke="black" d="M255,-231C255,-231 103,-231 103,-231 97,-231 91,-225 91,-219 91,-219 91,-207 91,-207 91,-201 97,-195 103,-195 103,-195 255,-195 255,-195 261,-195 267,-201 267,-207 267,-207 267,-219 267,-219 267,-225 261,-231 255,-231"/>
<text text-anchor="middle" x="179" y="-209.3" font-family="Arial" font-size="14.00">generateControlSignals.py</text>
</g>
<!-- codegen&#45;&gt;ctrl_gen -->
<g id="edge7" class="edge">
<title>codegen&#45;&gt;ctrl_gen</title>
<path fill="none" stroke="gray" stroke-width="1.5" d="M179,-282.97C179,-270.96 179,-254.93 179,-241.36"/>
<polygon fill="gray" stroke="gray" stroke-width="1.5" points="182.5,-241.12 179,-231.12 175.5,-241.12 182.5,-241.12"/>
</g>
<!-- machine_code -->
<g id="node9" class="node">
<title>machine_code</title>
<path fill="none" stroke="black" d="M263,-104.5C263,-104.5 343,-104.5 343,-104.5 349,-104.5 355,-110.5 355,-116.5 355,-116.5 355,-130.5 355,-130.5 355,-136.5 349,-142.5 343,-142.5 343,-142.5 263,-142.5 263,-142.5 257,-142.5 251,-136.5 251,-130.5 251,-130.5 251,-116.5 251,-116.5 251,-110.5 257,-104.5 263,-104.5"/>
<text text-anchor="middle" x="303" y="-127.3" font-family="Arial" font-size="14.00">Machine Code</text>
<text text-anchor="middle" x="303" y="-112.3" font-family="Arial" font-size="14.00">(.bin)</text>
</g>
<!-- codegen&#45;&gt;machine_code -->
<g id="edge6" class="edge">
<title>codegen&#45;&gt;machine_code</title>
<path fill="none" stroke="gray" stroke-width="1.5" d="M134.39,-297.4C114.02,-293.26 91.65,-284.67 79,-267 58.3,-238.09 54.48,-212.75 79,-187 91.5,-173.87 225.22,-185.88 242,-179 257.16,-172.78 271.05,-161.1 281.73,-150.14"/>
<polygon fill="gray" stroke="gray" stroke-width="1.5" points="284.35,-152.46 288.58,-142.75 279.22,-147.7 284.35,-152.46"/>
</g>
<!-- py_assembler&#45;&gt;machine_code -->
<g id="edge8" class="edge">
<title>py_assembler&#45;&gt;machine_code</title>
<path fill="none" stroke="gray" stroke-width="1.5" d="M327.07,-194.71C322.92,-182.61 317.29,-166.18 312.52,-152.25"/>
<polygon fill="gray" stroke="gray" stroke-width="1.5" points="315.78,-150.98 309.22,-142.65 309.16,-153.25 315.78,-150.98"/>
</g>
<!-- ctrl_signals -->
<g id="node10" class="node">
<title>ctrl_signals</title>
<path fill="none" stroke="black" d="M137,-104.5C137,-104.5 221,-104.5 221,-104.5 227,-104.5 233,-110.5 233,-116.5 233,-116.5 233,-130.5 233,-130.5 233,-136.5 227,-142.5 221,-142.5 221,-142.5 137,-142.5 137,-142.5 131,-142.5 125,-136.5 125,-130.5 125,-130.5 125,-116.5 125,-116.5 125,-110.5 131,-104.5 137,-104.5"/>
<text text-anchor="middle" x="179" y="-127.3" font-family="Arial" font-size="14.00">Control Signals</text>
<text text-anchor="middle" x="179" y="-112.3" font-family="Arial" font-size="14.00">(.bin)</text>
</g>
<!-- ctrl_gen&#45;&gt;ctrl_signals -->
<g id="edge9" class="edge">
<title>ctrl_gen&#45;&gt;ctrl_signals</title>
<path fill="none" stroke="gray" stroke-width="1.5" d="M179,-194.71C179,-182.73 179,-166.5 179,-152.66"/>
<polygon fill="gray" stroke="gray" stroke-width="1.5" points="182.5,-152.65 179,-142.65 175.5,-152.65 182.5,-152.65"/>
</g>
<!-- emulator_go -->
<g id="node12" class="node">
<title>emulator_go</title>
<path fill="none" stroke="black" d="M92,-52C92,-52 28,-52 28,-52 22,-52 16,-46 16,-40 16,-40 16,-28 16,-28 16,-22 22,-16 28,-16 28,-16 92,-16 92,-16 98,-16 104,-22 104,-28 104,-28 104,-40 104,-40 104,-46 98,-52 92,-52"/>
<text text-anchor="middle" x="60" y="-30.3" font-family="Arial" font-size="14.00">emulator.go</text>
</g>
<!-- machine_code&#45;&gt;emulator_go -->
<g id="edge10" class="edge">
<title>machine_code&#45;&gt;emulator_go</title>
<path fill="none" stroke="gray" stroke-width="1.5" d="M266.94,-104.39C258.91,-101.06 250.31,-98 242,-96 214.29,-89.33 140.03,-99.6 114,-88 100.23,-81.86 87.96,-70.58 78.6,-60"/>
<polygon fill="gray" stroke="gray" stroke-width="1.5" points="81.14,-57.57 72.04,-52.14 75.76,-62.06 81.14,-57.57"/>
</g>
<!-- v_alu -->
<g id="node13" class="node">
<title>v_alu</title>
<path fill="none" stroke="black" d="M1190,-52C1190,-52 1160,-52 1160,-52 1154,-52 1148,-46 1148,-40 1148,-40 1148,-28 1148,-28 1148,-22 1154,-16 1160,-16 1160,-16 1190,-16 1190,-16 1196,-16 1202,-22 1202,-28 1202,-28 1202,-40 1202,-40 1202,-46 1196,-52 1190,-52"/>
<text text-anchor="middle" x="1175" y="-30.3" font-family="Arial" font-size="14.00">alu.v</text>
</g>
<!-- machine_code&#45;&gt;v_alu -->
<g id="edge11" class="edge">
<title>machine_code&#45;&gt;v_alu</title>
<path fill="none" stroke="gray" stroke-width="1.5" d="M355.03,-121.64C532.47,-118.53 1104.71,-107.08 1139,-88 1149.72,-82.04 1157.88,-71.38 1163.7,-61.18"/>
<polygon fill="gray" stroke="gray" stroke-width="1.5" points="1166.92,-62.58 1168.39,-52.09 1160.7,-59.37 1166.92,-62.58"/>
</g>
<!-- main_go -->
<g id="node11" class="node">
<title>main_go</title>
<path fill="none" stroke="black" d="M175.5,-52C175.5,-52 134.5,-52 134.5,-52 128.5,-52 122.5,-46 122.5,-40 122.5,-40 122.5,-28 122.5,-28 122.5,-22 128.5,-16 134.5,-16 134.5,-16 175.5,-16 175.5,-16 181.5,-16 187.5,-22 187.5,-28 187.5,-28 187.5,-40 187.5,-40 187.5,-46 181.5,-52 175.5,-52"/>
<text text-anchor="middle" x="155" y="-30.3" font-family="Arial" font-size="14.00">main.go</text>
</g>
<!-- v_gprf -->
<g id="node14" class="node">
<title>v_gprf</title>
<path fill="none" stroke="black" d="M1118,-52C1118,-52 1088,-52 1088,-52 1082,-52 1076,-46 1076,-40 1076,-40 1076,-28 1076,-28 1076,-22 1082,-16 1088,-16 1088,-16 1118,-16 1118,-16 1124,-16 1130,-22 1130,-28 1130,-28 1130,-40 1130,-40 1130,-46 1124,-52 1118,-52"/>
<text text-anchor="middle" x="1103" y="-30.3" font-family="Arial" font-size="14.00">gprf.v</text>
</g>
<!-- v_pc -->
<g id="node15" class="node">
<title>v_pc</title>
<path fill="none" stroke="black" d="M1045.5,-52C1045.5,-52 944.5,-52 944.5,-52 938.5,-52 932.5,-46 932.5,-40 932.5,-40 932.5,-28 932.5,-28 932.5,-22 938.5,-16 944.5,-16 944.5,-16 1045.5,-16 1045.5,-16 1051.5,-16 1057.5,-22 1057.5,-28 1057.5,-28 1057.5,-40 1057.5,-40 1057.5,-46 1051.5,-52 1045.5,-52"/>
<text text-anchor="middle" x="995" y="-30.3" font-family="Arial" font-size="14.00">programCounter.v</text>
</g>
<!-- v_sp -->
<g id="node16" class="node">
<title>v_sp</title>
<path fill="none" stroke="black" d="M902.5,-52C902.5,-52 825.5,-52 825.5,-52 819.5,-52 813.5,-46 813.5,-40 813.5,-40 813.5,-28 813.5,-28 813.5,-22 819.5,-16 825.5,-16 825.5,-16 902.5,-16 902.5,-16 908.5,-16 914.5,-22 914.5,-28 914.5,-28 914.5,-40 914.5,-40 914.5,-46 908.5,-52 902.5,-52"/>
<text text-anchor="middle" x="864" y="-30.3" font-family="Arial" font-size="14.00">stackPointer.v</text>
</g>
<!-- v_si -->
<g id="node17" class="node">
<title>v_si</title>
<path fill="none" stroke="black" d="M783.5,-52C783.5,-52 698.5,-52 698.5,-52 692.5,-52 686.5,-46 686.5,-40 686.5,-40 686.5,-28 686.5,-28 686.5,-22 692.5,-16 698.5,-16 698.5,-16 783.5,-16 783.5,-16 789.5,-16 795.5,-22 795.5,-28 795.5,-28 795.5,-40 795.5,-40 795.5,-46 789.5,-52 783.5,-52"/>
<text text-anchor="middle" x="741" y="-30.3" font-family="Arial" font-size="14.00">indexRegister.v</text>
</g>
<!-- v_di -->
<g id="node18" class="node">
<title>v_di</title>
<path fill="none" stroke="black" d="M656.5,-52C656.5,-52 571.5,-52 571.5,-52 565.5,-52 559.5,-46 559.5,-40 559.5,-40 559.5,-28 559.5,-28 559.5,-22 565.5,-16 571.5,-16 571.5,-16 656.5,-16 656.5,-16 662.5,-16 668.5,-22 668.5,-28 668.5,-28 668.5,-40 668.5,-40 668.5,-46 662.5,-52 656.5,-52"/>
<text text-anchor="middle" x="614" y="-30.3" font-family="Arial" font-size="14.00">indexRegister.v</text>
</g>
<!-- v_mem -->
<g id="node19" class="node">
<title>v_mem</title>
<path fill="none" stroke="black" d="M529.5,-52C529.5,-52 446.5,-52 446.5,-52 440.5,-52 434.5,-46 434.5,-40 434.5,-40 434.5,-28 434.5,-28 434.5,-22 440.5,-16 446.5,-16 446.5,-16 529.5,-16 529.5,-16 535.5,-16 541.5,-22 541.5,-28 541.5,-28 541.5,-40 541.5,-40 541.5,-46 535.5,-52 529.5,-52"/>
<text text-anchor="middle" x="488" y="-30.3" font-family="Arial" font-size="14.00">mainMemory.v</text>
</g>
<!-- v_ret -->
<g id="node20" class="node">
<title>v_ret</title>
<path fill="none" stroke="black" d="M404,-52C404,-52 316,-52 316,-52 310,-52 304,-46 304,-40 304,-40 304,-28 304,-28 304,-22 310,-16 316,-16 316,-16 404,-16 404,-16 410,-16 416,-22 416,-28 416,-28 416,-40 416,-40 416,-46 410,-52 404,-52"/>
<text text-anchor="middle" x="360" y="-30.3" font-family="Arial" font-size="14.00">returnRegister.v</text>
</g>
<!-- v_pipe -->
<g id="node21" class="node">
<title>v_pipe</title>
<path fill="none" stroke="black" d="M274,-52C274,-52 224,-52 224,-52 218,-52 212,-46 212,-40 212,-40 212,-28 212,-28 212,-22 218,-16 224,-16 224,-16 274,-16 274,-16 280,-16 286,-22 286,-28 286,-28 286,-40 286,-40 286,-46 280,-52 274,-52"/>
<text text-anchor="middle" x="249" y="-30.3" font-family="Arial" font-size="14.00">pipeline.v</text>
</g>
<!-- log_alu -->
<g id="node22" class="node">
<title>log_alu</title>
<path fill="none" stroke="black" d="M1045,-631.5C1045,-631.5 1001,-631.5 1001,-631.5 995,-631.5 989,-625.5 989,-619.5 989,-619.5 989,-607.5 989,-607.5 989,-601.5 995,-595.5 1001,-595.5 1001,-595.5 1045,-595.5 1045,-595.5 1051,-595.5 1057,-601.5 1057,-607.5 1057,-607.5 1057,-619.5 1057,-619.5 1057,-625.5 1051,-631.5 1045,-631.5"/>
<text text-anchor="middle" x="1023" y="-609.8" font-family="Arial" font-size="14.00">ALU.circ</text>
</g>
<!-- log_reg -->
<g id="node23" class="node">
<title>log_reg</title>
<path fill="none" stroke="black" d="M959,-631.5C959,-631.5 885,-631.5 885,-631.5 879,-631.5 873,-625.5 873,-619.5 873,-619.5 873,-607.5 873,-607.5 873,-601.5 879,-595.5 885,-595.5 885,-595.5 959,-595.5 959,-595.5 965,-595.5 971,-601.5 971,-607.5 971,-607.5 971,-619.5 971,-619.5 971,-625.5 965,-631.5 959,-631.5"/>
<text text-anchor="middle" x="922" y="-609.8" font-family="Arial" font-size="14.00">Registers.circ</text>
</g>
<!-- log_pipe -->
<g id="node24" class="node">
<title>log_pipe</title>
<path fill="none" stroke="black" d="M843.5,-631.5C843.5,-631.5 778.5,-631.5 778.5,-631.5 772.5,-631.5 766.5,-625.5 766.5,-619.5 766.5,-619.5 766.5,-607.5 766.5,-607.5 766.5,-601.5 772.5,-595.5 778.5,-595.5 778.5,-595.5 843.5,-595.5 843.5,-595.5 849.5,-595.5 855.5,-601.5 855.5,-607.5 855.5,-607.5 855.5,-619.5 855.5,-619.5 855.5,-625.5 849.5,-631.5 843.5,-631.5"/>
<text text-anchor="middle" x="811" y="-609.8" font-family="Arial" font-size="14.00">Pipeline.circ</text>
</g>
<!-- log_cpu -->
<g id="node25" class="node">
<title>log_cpu</title>
<path fill="none" stroke="black" d="M736,-631.5C736,-631.5 694,-631.5 694,-631.5 688,-631.5 682,-625.5 682,-619.5 682,-619.5 682,-607.5 682,-607.5 682,-601.5 688,-595.5 694,-595.5 694,-595.5 736,-595.5 736,-595.5 742,-595.5 748,-601.5 748,-607.5 748,-607.5 748,-619.5 748,-619.5 748,-625.5 742,-631.5 736,-631.5"/>
<text text-anchor="middle" x="715" y="-609.8" font-family="Arial" font-size="14.00">Ra8.circ</text>
</g>
</g>
</svg>
