<?xml version="1.0" encoding="UTF-8" standalone="no"?>
<!DOCTYPE svg PUBLIC "-//W3C//DTD SVG 1.1//EN"
 "http://www.w3.org/Graphics/SVG/1.1/DTD/svg11.dtd">
<!-- Generated by graphviz version 2.43.0 (0)
 -->
<!-- Title: ProcessorDataPath Pages: 1 -->
<svg width="635pt" height="569pt"
 viewBox="0.00 0.00 634.85 569.00" xmlns="http://www.w3.org/2000/svg" xmlns:xlink="http://www.w3.org/1999/xlink">
<g id="graph0" class="graph" transform="scale(1 1) rotate(0) translate(4 565)">
<title>ProcessorDataPath</title>
<polygon fill="white" stroke="transparent" points="-4,4 -4,-565 630.85,-565 630.85,4 -4,4"/>
<text text-anchor="middle" x="313.43" y="-542.6" font-family="Arial" font-size="18.00">Figure 2: Processor Data Path</text>
<g id="clust1" class="cluster">
<title>cluster_control</title>
<polygon fill="lightgray" stroke="black" points="4,-352 4,-450 113.85,-450 113.85,-352 4,-352"/>
<text text-anchor="middle" x="58.93" y="-431.6" font-family="Arial" font-size="18.00">Control Unit</text>
</g>
<g id="clust2" class="cluster">
<title>cluster_regfile</title>
<polygon fill="#d4edda" stroke="black" points="134.85,-58 134.85,-525 250.85,-525 250.85,-58 134.85,-58"/>
<text text-anchor="middle" x="192.85" y="-506.6" font-family="Arial" font-size="18.00">Register File</text>
</g>
<g id="clust3" class="cluster">
<title>cluster_special</title>
<polygon fill="#fff3cd" stroke="black" points="471.85,-8 471.85,-312 626.85,-312 626.85,-8 471.85,-8"/>
<text text-anchor="middle" x="549.35" y="-293.6" font-family="Arial" font-size="18.00">Special Registers</text>
</g>
<g id="clust4" class="cluster">
<title>cluster_alu</title>
<polygon fill="#f8d7da" stroke="black" points="328.41,-406 328.41,-486 400.3,-486 400.3,-406 328.41,-406"/>
<text text-anchor="middle" x="364.35" y="-467.6" font-family="Arial" font-size="18.00">ALU</text>
</g>
<g id="clust5" class="cluster">
<title>cluster_memory</title>
<polygon fill="#d1ecf1" stroke="black" points="316.85,-242 316.85,-380 411.85,-380 411.85,-242 316.85,-242"/>
<text text-anchor="middle" x="364.35" y="-361.6" font-family="Arial" font-size="18.00">Memory</text>
</g>
<!-- Bold -->
<g id="node1" class="node">
<title>Bold</title>
<path fill="none" stroke="black" d="M73.43,-342C73.43,-342 43.43,-342 43.43,-342 37.43,-342 31.43,-336 31.43,-330 31.43,-330 31.43,-318 31.43,-318 31.43,-312 37.43,-306 43.43,-306 43.43,-306 73.43,-306 73.43,-306 79.43,-306 85.43,-312 85.43,-318 85.43,-318 85.43,-330 85.43,-330 85.43,-336 79.43,-342 73.43,-342"/>
<text text-anchor="middle" x="58.43" y="-320.3" font-family="Arial" font-size="14.00">Bold</text>
</g>
<!-- ctrl -->
<g id="node2" class="node">
<title>ctrl</title>
<ellipse fill="none" stroke="black" cx="58.43" cy="-387" rx="42.35" ry="26.74"/>
<text text-anchor="middle" x="58.43" y="-390.8" font-family="Arial" font-size="14.00">Control</text>
<text text-anchor="middle" x="58.43" y="-375.8" font-family="Arial" font-size="14.00">Unit</text>
</g>
<!-- regA -->
<g id="node3" class="node">
<title>regA</title>
<path fill="none" stroke="black" d="M177.85,-397C177.85,-397 207.85,-397 207.85,-397 213.85,-397 219.85,-403 219.85,-409 219.85,-409 219.85,-421 219.85,-421 219.85,-427 213.85,-433 207.85,-433 207.85,-433 177.85,-433 177.85,-433 171.85,-433 165.85,-427 165.85,-421 165.85,-421 165.85,-409 165.85,-409 165.85,-403 171.85,-397 177.85,-397"/>
<text text-anchor="middle" x="192.85" y="-411.3" font-family="Arial" font-size="14.00">A</text>
</g>
<!-- ctrl&#45;&gt;regA -->
<g id="edge1" class="edge">
<title>ctrl&#45;&gt;regA</title>
<path fill="none" stroke="navy" stroke-width="1.5" d="M98.8,-395.33C116.9,-399.15 138.22,-403.66 155.89,-407.4"/>
<polygon fill="navy" stroke="navy" stroke-width="1.5" points="155.3,-410.85 165.81,-409.49 156.75,-404 155.3,-410.85"/>
</g>
<!-- regB -->
<g id="node4" class="node">
<title>regB</title>
<path fill="none" stroke="black" d="M177.85,-452C177.85,-452 207.85,-452 207.85,-452 213.85,-452 219.85,-458 219.85,-464 219.85,-464 219.85,-476 219.85,-476 219.85,-482 213.85,-488 207.85,-488 207.85,-488 177.85,-488 177.85,-488 171.85,-488 165.85,-482 165.85,-476 165.85,-476 165.85,-464 165.85,-464 165.85,-458 171.85,-452 177.85,-452"/>
<text text-anchor="middle" x="192.85" y="-466.3" font-family="Arial" font-size="14.00">B</text>
</g>
<!-- ctrl&#45;&gt;regB -->
<g id="edge2" class="edge">
<title>ctrl&#45;&gt;regB</title>
<path fill="none" stroke="navy" stroke-width="1.5" d="M85.08,-408.01C99.27,-419.13 117.51,-432.59 134.85,-443 141.72,-447.12 149.31,-451.09 156.66,-454.66"/>
<polygon fill="navy" stroke="navy" stroke-width="1.5" points="155.22,-457.85 165.76,-458.95 158.2,-451.52 155.22,-457.85"/>
</g>
<!-- regC -->
<g id="node5" class="node">
<title>regC</title>
<path fill="none" stroke="black" d="M177.85,-342C177.85,-342 207.85,-342 207.85,-342 213.85,-342 219.85,-348 219.85,-354 219.85,-354 219.85,-366 219.85,-366 219.85,-372 213.85,-378 207.85,-378 207.85,-378 177.85,-378 177.85,-378 171.85,-378 165.85,-372 165.85,-366 165.85,-366 165.85,-354 165.85,-354 165.85,-348 171.85,-342 177.85,-342"/>
<text text-anchor="middle" x="192.85" y="-356.3" font-family="Arial" font-size="14.00">C</text>
</g>
<!-- ctrl&#45;&gt;regC -->
<g id="edge3" class="edge">
<title>ctrl&#45;&gt;regC</title>
<path fill="none" stroke="navy" stroke-width="1.5" d="M99.16,-378.9C117.12,-375.24 138.19,-370.94 155.7,-367.37"/>
<polygon fill="navy" stroke="navy" stroke-width="1.5" points="156.45,-370.79 165.55,-365.36 155.05,-363.93 156.45,-370.79"/>
</g>
<!-- alu -->
<g id="node16" class="node">
<title>alu</title>
<ellipse fill="none" stroke="black" cx="364.35" cy="-432" rx="27.9" ry="18"/>
<text text-anchor="middle" x="364.35" y="-428.3" font-family="Arial" font-size="14.00">ALU</text>
</g>
<!-- regA&#45;&gt;alu -->
<g id="edge4" class="edge">
<title>regA&#45;&gt;alu</title>
<path fill="none" stroke="navy" stroke-width="1.5" d="M219.97,-417.62C248.42,-420.47 294.16,-425.06 326.31,-428.28"/>
<polygon fill="navy" stroke="navy" stroke-width="1.5" points="326.35,-431.81 336.65,-429.32 327.05,-424.84 326.35,-431.81"/>
<text text-anchor="middle" x="283.85" y="-429.8" font-family="Times,serif" font-size="14.00">A</text>
</g>
<!-- data_mem -->
<g id="node18" class="node">
<title>data_mem</title>
<path fill="none" stroke="black" d="M385.85,-288C385.85,-288 342.85,-288 342.85,-288 336.85,-288 330.85,-282 330.85,-276 330.85,-276 330.85,-262 330.85,-262 330.85,-256 336.85,-250 342.85,-250 342.85,-250 385.85,-250 385.85,-250 391.85,-250 397.85,-256 397.85,-262 397.85,-262 397.85,-276 397.85,-276 397.85,-282 391.85,-288 385.85,-288"/>
<text text-anchor="middle" x="364.35" y="-272.8" font-family="Arial" font-size="14.00">Data</text>
<text text-anchor="middle" x="364.35" y="-257.8" font-family="Arial" font-size="14.00">Memory</text>
</g>
<!-- regA&#45;&gt;data_mem -->
<g id="edge7" class="edge">
<title>regA&#45;&gt;data_mem</title>
<path fill="none" stroke="navy" stroke-width="1.5" d="M219.85,-405.94C230.19,-401.54 241.75,-395.55 250.85,-388 289.3,-356.09 280.05,-330.79 316.85,-297 318.54,-295.45 320.34,-293.94 322.19,-292.47"/>
<polygon fill="navy" stroke="navy" stroke-width="1.5" points="324.58,-295.07 330.64,-286.38 320.48,-289.39 324.58,-295.07"/>
</g>
<!-- regB&#45;&gt;alu -->
<g id="edge5" class="edge">
<title>regB&#45;&gt;alu</title>
<path fill="none" stroke="navy" stroke-width="1.5" d="M219.9,-464.3C242.81,-459.28 277.06,-451.72 306.85,-445 313.65,-443.47 320.9,-441.81 327.86,-440.21"/>
<polygon fill="navy" stroke="navy" stroke-width="1.5" points="328.81,-443.59 337.77,-437.93 327.24,-436.77 328.81,-443.59"/>
<text text-anchor="middle" x="283.85" y="-457.8" font-family="Times,serif" font-size="14.00">B</text>
</g>
<!-- regD -->
<g id="node6" class="node">
<title>regD</title>
<path fill="none" stroke="black" d="M177.85,-287C177.85,-287 207.85,-287 207.85,-287 213.85,-287 219.85,-293 219.85,-299 219.85,-299 219.85,-311 219.85,-311 219.85,-317 213.85,-323 207.85,-323 207.85,-323 177.85,-323 177.85,-323 171.85,-323 165.85,-317 165.85,-311 165.85,-311 165.85,-299 165.85,-299 165.85,-293 171.85,-287 177.85,-287"/>
<text text-anchor="middle" x="192.85" y="-301.3" font-family="Arial" font-size="14.00">D</text>
</g>
<!-- regE -->
<g id="node7" class="node">
<title>regE</title>
<path fill="none" stroke="black" d="M177.85,-232C177.85,-232 207.85,-232 207.85,-232 213.85,-232 219.85,-238 219.85,-244 219.85,-244 219.85,-256 219.85,-256 219.85,-262 213.85,-268 207.85,-268 207.85,-268 177.85,-268 177.85,-268 171.85,-268 165.85,-262 165.85,-256 165.85,-256 165.85,-244 165.85,-244 165.85,-238 171.85,-232 177.85,-232"/>
<text text-anchor="middle" x="192.85" y="-246.3" font-family="Arial" font-size="14.00">E</text>
</g>
<!-- regF -->
<g id="node8" class="node">
<title>regF</title>
<path fill="none" stroke="black" d="M177.85,-177C177.85,-177 207.85,-177 207.85,-177 213.85,-177 219.85,-183 219.85,-189 219.85,-189 219.85,-201 219.85,-201 219.85,-207 213.85,-213 207.85,-213 207.85,-213 177.85,-213 177.85,-213 171.85,-213 165.85,-207 165.85,-201 165.85,-201 165.85,-189 165.85,-189 165.85,-183 171.85,-177 177.85,-177"/>
<text text-anchor="middle" x="192.85" y="-191.3" font-family="Arial" font-size="14.00">F</text>
</g>
<!-- regG -->
<g id="node9" class="node">
<title>regG</title>
<path fill="none" stroke="black" d="M177.85,-122C177.85,-122 207.85,-122 207.85,-122 213.85,-122 219.85,-128 219.85,-134 219.85,-134 219.85,-146 219.85,-146 219.85,-152 213.85,-158 207.85,-158 207.85,-158 177.85,-158 177.85,-158 171.85,-158 165.85,-152 165.85,-146 165.85,-146 165.85,-134 165.85,-134 165.85,-128 171.85,-122 177.85,-122"/>
<text text-anchor="middle" x="192.85" y="-136.3" font-family="Arial" font-size="14.00">G</text>
</g>
<!-- regH -->
<g id="node10" class="node">
<title>regH</title>
<path fill="none" stroke="black" d="M177.85,-67C177.85,-67 207.85,-67 207.85,-67 213.85,-67 219.85,-73 219.85,-79 219.85,-79 219.85,-91 219.85,-91 219.85,-97 213.85,-103 207.85,-103 207.85,-103 177.85,-103 177.85,-103 171.85,-103 165.85,-97 165.85,-91 165.85,-91 165.85,-79 165.85,-79 165.85,-73 171.85,-67 177.85,-67"/>
<text text-anchor="middle" x="192.85" y="-81.3" font-family="Arial" font-size="14.00">H</text>
</g>
<!-- pc -->
<g id="node11" class="node">
<title>pc</title>
<path fill="none" stroke="black" d="M534.35,-239C534.35,-239 564.35,-239 564.35,-239 570.35,-239 576.35,-245 576.35,-251 576.35,-251 576.35,-263 576.35,-263 576.35,-269 570.35,-275 564.35,-275 564.35,-275 534.35,-275 534.35,-275 528.35,-275 522.35,-269 522.35,-263 522.35,-263 522.35,-251 522.35,-251 522.35,-245 528.35,-239 534.35,-239"/>
<text text-anchor="middle" x="549.35" y="-253.3" font-family="Arial" font-size="14.00">PC</text>
</g>
<!-- pc&#45;&gt;ctrl -->
<g id="edge9" class="edge">
<title>pc&#45;&gt;ctrl</title>
<path fill="none" stroke="navy" stroke-width="1.5" d="M522.29,-250.16C507.05,-245.59 487.75,-238.8 471.85,-230 433.48,-208.74 261.78,64.27 134.85,-54 86.45,-99.11 147.22,-293.86 113.85,-351 110.67,-356.46 106.28,-361.25 101.38,-365.4"/>
<polygon fill="navy" stroke="navy" stroke-width="1.5" points="99.26,-362.61 93.34,-371.4 103.44,-368.22 99.26,-362.61"/>
<text text-anchor="middle" x="283.85" y="-68.8" font-family="Times,serif" font-size="14.00">PC</text>
</g>
<!-- sp -->
<g id="node12" class="node">
<title>sp</title>
<path fill="none" stroke="black" d="M534.35,-184C534.35,-184 564.35,-184 564.35,-184 570.35,-184 576.35,-190 576.35,-196 576.35,-196 576.35,-208 576.35,-208 576.35,-214 570.35,-220 564.35,-220 564.35,-220 534.35,-220 534.35,-220 528.35,-220 522.35,-214 522.35,-208 522.35,-208 522.35,-196 522.35,-196 522.35,-190 528.35,-184 534.35,-184"/>
<text text-anchor="middle" x="549.35" y="-198.3" font-family="Arial" font-size="14.00">SP</text>
</g>
<!-- si -->
<g id="node13" class="node">
<title>si</title>
<path fill="none" stroke="black" d="M534.35,-129C534.35,-129 564.35,-129 564.35,-129 570.35,-129 576.35,-135 576.35,-141 576.35,-141 576.35,-153 576.35,-153 576.35,-159 570.35,-165 564.35,-165 564.35,-165 534.35,-165 534.35,-165 528.35,-165 522.35,-159 522.35,-153 522.35,-153 522.35,-141 522.35,-141 522.35,-135 528.35,-129 534.35,-129"/>
<text text-anchor="middle" x="549.35" y="-143.3" font-family="Arial" font-size="14.00">SI</text>
</g>
<!-- di -->
<g id="node14" class="node">
<title>di</title>
<path fill="none" stroke="black" d="M534.35,-74C534.35,-74 564.35,-74 564.35,-74 570.35,-74 576.35,-80 576.35,-86 576.35,-86 576.35,-98 576.35,-98 576.35,-104 570.35,-110 564.35,-110 564.35,-110 534.35,-110 534.35,-110 528.35,-110 522.35,-104 522.35,-98 522.35,-98 522.35,-86 522.35,-86 522.35,-80 528.35,-74 534.35,-74"/>
<text text-anchor="middle" x="549.35" y="-88.3" font-family="Arial" font-size="14.00">DI</text>
</g>
<!-- status -->
<g id="node15" class="node">
<title>status</title>
<path fill="none" stroke="black" d="M531.85,-17C531.85,-17 566.85,-17 566.85,-17 572.85,-17 578.85,-23 578.85,-29 578.85,-29 578.85,-43 578.85,-43 578.85,-49 572.85,-55 566.85,-55 566.85,-55 531.85,-55 531.85,-55 525.85,-55 519.85,-49 519.85,-43 519.85,-43 519.85,-29 519.85,-29 519.85,-23 525.85,-17 531.85,-17"/>
<text text-anchor="middle" x="549.35" y="-39.8" font-family="Arial" font-size="14.00">Status</text>
<text text-anchor="middle" x="549.35" y="-24.8" font-family="Arial" font-size="14.00">(Flags)</text>
</g>
<!-- alu&#45;&gt;regA -->
<g id="edge6" class="edge">
<title>alu&#45;&gt;regA</title>
<path fill="none" stroke="navy" stroke-width="1.5" d="M344.69,-419.11C334.11,-412.59 320.32,-405.35 306.85,-402 281.59,-395.71 252.39,-399.34 230,-404.35"/>
<polygon fill="navy" stroke="navy" stroke-width="1.5" points="229.12,-400.96 220.23,-406.72 230.77,-407.76 229.12,-400.96"/>
<text text-anchor="middle" x="283.85" y="-405.8" font-family="Times,serif" font-size="14.00">Result</text>
</g>
<!-- inst_mem -->
<g id="node17" class="node">
<title>inst_mem</title>
<path fill="none" stroke="black" d="M391.85,-344C391.85,-344 336.85,-344 336.85,-344 330.85,-344 324.85,-338 324.85,-332 324.85,-332 324.85,-318 324.85,-318 324.85,-312 330.85,-306 336.85,-306 336.85,-306 391.85,-306 391.85,-306 397.85,-306 403.85,-312 403.85,-318 403.85,-318 403.85,-332 403.85,-332 403.85,-338 397.85,-344 391.85,-344"/>
<text text-anchor="middle" x="364.35" y="-328.8" font-family="Arial" font-size="14.00">Instruction</text>
<text text-anchor="middle" x="364.35" y="-313.8" font-family="Arial" font-size="14.00">Memory</text>
</g>
<!-- inst_mem&#45;&gt;pc -->
<g id="edge8" class="edge">
<title>inst_mem&#45;&gt;pc</title>
<path fill="none" stroke="navy" stroke-width="1.5" d="M404.16,-310.58C436.26,-298.65 481.47,-281.85 512.67,-270.26"/>
<polygon fill="navy" stroke="navy" stroke-width="1.5" points="514.12,-273.45 522.27,-266.69 511.68,-266.89 514.12,-273.45"/>
<text text-anchor="middle" x="441.85" y="-306.8" font-family="Times,serif" font-size="14.00">Fetch</text>
</g>
</g>
</svg>
