<?xml version="1.0" encoding="UTF-8" standalone="no"?>
<!DOCTYPE svg PUBLIC "-//W3C//DTD SVG 1.1//EN"
 "http://www.w3.org/Graphics/SVG/1.1/DTD/svg11.dtd">
<!-- Generated by graphviz version 2.43.0 (0)
 -->
<!-- Title: RegisterFile Pages: 1 -->
<svg width="1069pt" height="750pt"
 viewBox="0.00 0.00 1069.00 750.00" xmlns="http://www.w3.org/2000/svg" xmlns:xlink="http://www.w3.org/1999/xlink">
<g id="graph0" class="graph" transform="scale(1 1) rotate(0) translate(4 746)">
<title>RegisterFile</title>
<polygon fill="white" stroke="transparent" points="-4,4 -4,-746 1065,-746 1065,4 -4,4"/>
<text text-anchor="middle" x="530.5" y="-723.6" font-family="Arial" font-size="18.00">Figure 3: Register File Structure</text>
<g id="clust1" class="cluster">
<title>cluster_gpr</title>
<polygon fill="#d4edda" stroke="black" points="63,-8 63,-661 346,-661 346,-8 63,-8"/>
<text text-anchor="middle" x="204.5" y="-642.6" font-family="Arial" font-size="18.00">General Purpose Registers (8&#45;bit)</text>
</g>
<g id="clust2" class="cluster">
<title>cluster_temp</title>
<polygon fill="#fff3cd" stroke="black" points="354,-578 354,-661 620,-661 620,-578 354,-578"/>
<text text-anchor="middle" x="487" y="-642.6" font-family="Arial" font-size="18.00">Temporary Registers</text>
</g>
<g id="clust3" class="cluster">
<title>cluster_special</title>
<polygon fill="#f8d7da" stroke="black" points="628,-308 628,-661 854,-661 854,-308 628,-308"/>
<text text-anchor="middle" x="741" y="-642.6" font-family="Arial" font-size="18.00">Special Purpose Registers</text>
</g>
<g id="clust4" class="cluster">
<title>cluster_flags</title>
<polygon fill="#cce5ff" stroke="black" points="862,-533 862,-706 1053,-706 1053,-533 862,-533"/>
<text text-anchor="middle" x="957.5" y="-687.6" font-family="Arial" font-size="18.00">Status Register (8&#45;bit)</text>
</g>
<!-- Bold -->
<g id="node1" class="node">
<title>Bold</title>
<path fill="none" stroke="black" d="M42,-623.5C42,-623.5 12,-623.5 12,-623.5 6,-623.5 0,-617.5 0,-611.5 0,-611.5 0,-599.5 0,-599.5 0,-593.5 6,-587.5 12,-587.5 12,-587.5 42,-587.5 42,-587.5 48,-587.5 54,-593.5 54,-599.5 54,-599.5 54,-611.5 54,-611.5 54,-617.5 48,-623.5 42,-623.5"/>
<text text-anchor="middle" x="27" y="-601.8" font-family="Arial" font-size="14.00">Bold</text>
</g>
<!-- A -->
<g id="node2" class="node">
<title>A</title>
<path fill="none" stroke="black" d="M84.5,-586.5C84.5,-586.5 155.5,-586.5 155.5,-586.5 161.5,-586.5 167.5,-592.5 167.5,-598.5 167.5,-598.5 167.5,-612.5 167.5,-612.5 167.5,-618.5 161.5,-624.5 155.5,-624.5 155.5,-624.5 84.5,-624.5 84.5,-624.5 78.5,-624.5 72.5,-618.5 72.5,-612.5 72.5,-612.5 72.5,-598.5 72.5,-598.5 72.5,-592.5 78.5,-586.5 84.5,-586.5"/>
<text text-anchor="middle" x="120" y="-609.3" font-family="Arial" font-size="14.00">A</text>
<text text-anchor="middle" x="120" y="-594.3" font-family="Arial" font-size="14.00"> accumulator</text>
</g>
<!-- B -->
<g id="node3" class="node">
<title>B</title>
<path fill="none" stroke="black" d="M99.5,-466.5C99.5,-466.5 140.5,-466.5 140.5,-466.5 146.5,-466.5 152.5,-472.5 152.5,-478.5 152.5,-478.5 152.5,-492.5 152.5,-492.5 152.5,-498.5 146.5,-504.5 140.5,-504.5 140.5,-504.5 99.5,-504.5 99.5,-504.5 93.5,-504.5 87.5,-498.5 87.5,-492.5 87.5,-492.5 87.5,-478.5 87.5,-478.5 87.5,-472.5 93.5,-466.5 99.5,-466.5"/>
<text text-anchor="middle" x="120" y="-489.3" font-family="Arial" font-size="14.00">B</text>
<text text-anchor="middle" x="120" y="-474.3" font-family="Arial" font-size="14.00"> general</text>
</g>
<!-- A&#45;&gt;B -->
<!-- C -->
<g id="node4" class="node">
<title>C</title>
<path fill="none" stroke="black" d="M99.5,-391.5C99.5,-391.5 140.5,-391.5 140.5,-391.5 146.5,-391.5 152.5,-397.5 152.5,-403.5 152.5,-403.5 152.5,-417.5 152.5,-417.5 152.5,-423.5 146.5,-429.5 140.5,-429.5 140.5,-429.5 99.5,-429.5 99.5,-429.5 93.5,-429.5 87.5,-423.5 87.5,-417.5 87.5,-417.5 87.5,-403.5 87.5,-403.5 87.5,-397.5 93.5,-391.5 99.5,-391.5"/>
<text text-anchor="middle" x="120" y="-414.3" font-family="Arial" font-size="14.00">C</text>
<text text-anchor="middle" x="120" y="-399.3" font-family="Arial" font-size="14.00"> general</text>
</g>
<!-- B&#45;&gt;C -->
<!-- D -->
<g id="node5" class="node">
<title>D</title>
<path fill="none" stroke="black" d="M99.5,-316.5C99.5,-316.5 140.5,-316.5 140.5,-316.5 146.5,-316.5 152.5,-322.5 152.5,-328.5 152.5,-328.5 152.5,-342.5 152.5,-342.5 152.5,-348.5 146.5,-354.5 140.5,-354.5 140.5,-354.5 99.5,-354.5 99.5,-354.5 93.5,-354.5 87.5,-348.5 87.5,-342.5 87.5,-342.5 87.5,-328.5 87.5,-328.5 87.5,-322.5 93.5,-316.5 99.5,-316.5"/>
<text text-anchor="middle" x="120" y="-339.3" font-family="Arial" font-size="14.00">D</text>
<text text-anchor="middle" x="120" y="-324.3" font-family="Arial" font-size="14.00"> general</text>
</g>
<!-- C&#45;&gt;D -->
<!-- E -->
<g id="node6" class="node">
<title>E</title>
<path fill="none" stroke="black" d="M99.5,-241.5C99.5,-241.5 140.5,-241.5 140.5,-241.5 146.5,-241.5 152.5,-247.5 152.5,-253.5 152.5,-253.5 152.5,-267.5 152.5,-267.5 152.5,-273.5 146.5,-279.5 140.5,-279.5 140.5,-279.5 99.5,-279.5 99.5,-279.5 93.5,-279.5 87.5,-273.5 87.5,-267.5 87.5,-267.5 87.5,-253.5 87.5,-253.5 87.5,-247.5 93.5,-241.5 99.5,-241.5"/>
<text text-anchor="middle" x="120" y="-264.3" font-family="Arial" font-size="14.00">E</text>
<text text-anchor="middle" x="120" y="-249.3" font-family="Arial" font-size="14.00"> general</text>
</g>
<!-- D&#45;&gt;E -->
<!-- F -->
<g id="node7" class="node">
<title>F</title>
<path fill="none" stroke="black" d="M99.5,-166.5C99.5,-166.5 140.5,-166.5 140.5,-166.5 146.5,-166.5 152.5,-172.5 152.5,-178.5 152.5,-178.5 152.5,-192.5 152.5,-192.5 152.5,-198.5 146.5,-204.5 140.5,-204.5 140.5,-204.5 99.5,-204.5 99.5,-204.5 93.5,-204.5 87.5,-198.5 87.5,-192.5 87.5,-192.5 87.5,-178.5 87.5,-178.5 87.5,-172.5 93.5,-166.5 99.5,-166.5"/>
<text text-anchor="middle" x="120" y="-189.3" font-family="Arial" font-size="14.00">F</text>
<text text-anchor="middle" x="120" y="-174.3" font-family="Arial" font-size="14.00"> general</text>
</g>
<!-- E&#45;&gt;F -->
<!-- G -->
<g id="node8" class="node">
<title>G</title>
<path fill="none" stroke="black" d="M99.5,-91.5C99.5,-91.5 140.5,-91.5 140.5,-91.5 146.5,-91.5 152.5,-97.5 152.5,-103.5 152.5,-103.5 152.5,-117.5 152.5,-117.5 152.5,-123.5 146.5,-129.5 140.5,-129.5 140.5,-129.5 99.5,-129.5 99.5,-129.5 93.5,-129.5 87.5,-123.5 87.5,-117.5 87.5,-117.5 87.5,-103.5 87.5,-103.5 87.5,-97.5 93.5,-91.5 99.5,-91.5"/>
<text text-anchor="middle" x="120" y="-114.3" font-family="Arial" font-size="14.00">G</text>
<text text-anchor="middle" x="120" y="-99.3" font-family="Arial" font-size="14.00"> general</text>
</g>
<!-- F&#45;&gt;G -->
<!-- H -->
<g id="node9" class="node">
<title>H</title>
<path fill="none" stroke="black" d="M99.5,-16.5C99.5,-16.5 140.5,-16.5 140.5,-16.5 146.5,-16.5 152.5,-22.5 152.5,-28.5 152.5,-28.5 152.5,-42.5 152.5,-42.5 152.5,-48.5 146.5,-54.5 140.5,-54.5 140.5,-54.5 99.5,-54.5 99.5,-54.5 93.5,-54.5 87.5,-48.5 87.5,-42.5 87.5,-42.5 87.5,-28.5 87.5,-28.5 87.5,-22.5 93.5,-16.5 99.5,-16.5"/>
<text text-anchor="middle" x="120" y="-39.3" font-family="Arial" font-size="14.00">H</text>
<text text-anchor="middle" x="120" y="-24.3" font-family="Arial" font-size="14.00"> general</text>
</g>
<!-- G&#45;&gt;H -->
<!-- templ -->
<g id="node10" class="node">
<title>templ</title>
<path fill="none" stroke="black" d="M556,-586.5C556,-586.5 600,-586.5 600,-586.5 606,-586.5 612,-592.5 612,-598.5 612,-598.5 612,-612.5 612,-612.5 612,-618.5 606,-624.5 600,-624.5 600,-624.5 556,-624.5 556,-624.5 550,-624.5 544,-618.5 544,-612.5 544,-612.5 544,-598.5 544,-598.5 544,-592.5 550,-586.5 556,-586.5"/>
<text text-anchor="middle" x="578" y="-609.3" font-family="Arial" font-size="14.00">Templ</text>
<text text-anchor="middle" x="578" y="-594.3" font-family="Arial" font-size="14.00">(PC low)</text>
</g>
<!-- temph -->
<g id="node11" class="node">
<title>temph</title>
<path fill="none" stroke="black" d="M464,-586.5C464,-586.5 514,-586.5 514,-586.5 520,-586.5 526,-592.5 526,-598.5 526,-598.5 526,-612.5 526,-612.5 526,-618.5 520,-624.5 514,-624.5 514,-624.5 464,-624.5 464,-624.5 458,-624.5 452,-618.5 452,-612.5 452,-612.5 452,-598.5 452,-598.5 452,-592.5 458,-586.5 464,-586.5"/>
<text text-anchor="middle" x="489" y="-609.3" font-family="Arial" font-size="14.00">Temph</text>
<text text-anchor="middle" x="489" y="-594.3" font-family="Arial" font-size="14.00">(PC high)</text>
</g>
<!-- rng -->
<g id="node12" class="node">
<title>rng</title>
<path fill="none" stroke="black" d="M374,-586.5C374,-586.5 422,-586.5 422,-586.5 428,-586.5 434,-592.5 434,-598.5 434,-598.5 434,-612.5 434,-612.5 434,-618.5 428,-624.5 422,-624.5 422,-624.5 374,-624.5 374,-624.5 368,-624.5 362,-618.5 362,-612.5 362,-612.5 362,-598.5 362,-598.5 362,-592.5 368,-586.5 374,-586.5"/>
<text text-anchor="middle" x="398" y="-609.3" font-family="Arial" font-size="14.00">RNG</text>
<text text-anchor="middle" x="398" y="-594.3" font-family="Arial" font-size="14.00">(random)</text>
</g>
<!-- pc -->
<g id="node13" class="node">
<title>pc</title>
<path fill="none" stroke="black" d="M764.5,-586.5C764.5,-586.5 799.5,-586.5 799.5,-586.5 805.5,-586.5 811.5,-592.5 811.5,-598.5 811.5,-598.5 811.5,-612.5 811.5,-612.5 811.5,-618.5 805.5,-624.5 799.5,-624.5 799.5,-624.5 764.5,-624.5 764.5,-624.5 758.5,-624.5 752.5,-618.5 752.5,-612.5 752.5,-612.5 752.5,-598.5 752.5,-598.5 752.5,-592.5 758.5,-586.5 764.5,-586.5"/>
<text text-anchor="middle" x="782" y="-609.3" font-family="Arial" font-size="14.00">PC</text>
<text text-anchor="middle" x="782" y="-594.3" font-family="Arial" font-size="14.00">(16&#45;bit)</text>
</g>
<!-- sp -->
<g id="node14" class="node">
<title>sp</title>
<path fill="none" stroke="black" d="M764.5,-466.5C764.5,-466.5 799.5,-466.5 799.5,-466.5 805.5,-466.5 811.5,-472.5 811.5,-478.5 811.5,-478.5 811.5,-492.5 811.5,-492.5 811.5,-498.5 805.5,-504.5 799.5,-504.5 799.5,-504.5 764.5,-504.5 764.5,-504.5 758.5,-504.5 752.5,-498.5 752.5,-492.5 752.5,-492.5 752.5,-478.5 752.5,-478.5 752.5,-472.5 758.5,-466.5 764.5,-466.5"/>
<text text-anchor="middle" x="782" y="-489.3" font-family="Arial" font-size="14.00">SP</text>
<text text-anchor="middle" x="782" y="-474.3" font-family="Arial" font-size="14.00">(16&#45;bit)</text>
</g>
<!-- pc&#45;&gt;sp -->
<!-- si -->
<g id="node15" class="node">
<title>si</title>
<path fill="none" stroke="black" d="M741.5,-391.5C741.5,-391.5 822.5,-391.5 822.5,-391.5 828.5,-391.5 834.5,-397.5 834.5,-403.5 834.5,-403.5 834.5,-417.5 834.5,-417.5 834.5,-423.5 828.5,-429.5 822.5,-429.5 822.5,-429.5 741.5,-429.5 741.5,-429.5 735.5,-429.5 729.5,-423.5 729.5,-417.5 729.5,-417.5 729.5,-403.5 729.5,-403.5 729.5,-397.5 735.5,-391.5 741.5,-391.5"/>
<text text-anchor="middle" x="782" y="-414.3" font-family="Arial" font-size="14.00">SI</text>
<text text-anchor="middle" x="782" y="-399.3" font-family="Arial" font-size="14.00">(Source Index)</text>
</g>
<!-- sp&#45;&gt;si -->
<!-- di -->
<g id="node16" class="node">
<title>di</title>
<path fill="none" stroke="black" d="M749,-316.5C749,-316.5 815,-316.5 815,-316.5 821,-316.5 827,-322.5 827,-328.5 827,-328.5 827,-342.5 827,-342.5 827,-348.5 821,-354.5 815,-354.5 815,-354.5 749,-354.5 749,-354.5 743,-354.5 737,-348.5 737,-342.5 737,-342.5 737,-328.5 737,-328.5 737,-322.5 743,-316.5 749,-316.5"/>
<text text-anchor="middle" x="782" y="-339.3" font-family="Arial" font-size="14.00">DI</text>
<text text-anchor="middle" x="782" y="-324.3" font-family="Arial" font-size="14.00">(Dest Index)</text>
</g>
<!-- si&#45;&gt;di -->
<!-- ret -->
<g id="node17" class="node">
<title>ret</title>
<path fill="none" stroke="black" d="M669.5,-586.5C669.5,-586.5 712.5,-586.5 712.5,-586.5 718.5,-586.5 724.5,-592.5 724.5,-598.5 724.5,-598.5 724.5,-612.5 724.5,-612.5 724.5,-618.5 718.5,-624.5 712.5,-624.5 712.5,-624.5 669.5,-624.5 669.5,-624.5 663.5,-624.5 657.5,-618.5 657.5,-612.5 657.5,-612.5 657.5,-598.5 657.5,-598.5 657.5,-592.5 663.5,-586.5 669.5,-586.5"/>
<text text-anchor="middle" x="691" y="-609.3" font-family="Arial" font-size="14.00">Return</text>
<text text-anchor="middle" x="691" y="-594.3" font-family="Arial" font-size="14.00">Register</text>
</g>
<!-- status -->
<g id="node18" class="node">
<title>status</title>
<path fill="none" stroke="black" d="M900,-541.5C900,-541.5 1014,-541.5 1014,-541.5 1020,-541.5 1026,-547.5 1026,-553.5 1026,-553.5 1026,-657.5 1026,-657.5 1026,-663.5 1020,-669.5 1014,-669.5 1014,-669.5 900,-669.5 900,-669.5 894,-669.5 888,-663.5 888,-657.5 888,-657.5 888,-553.5 888,-553.5 888,-547.5 894,-541.5 900,-541.5"/>
<text text-anchor="middle" x="957" y="-654.3" font-family="Arial" font-size="14.00">Bit 0: Z (Zero)</text>
<text text-anchor="middle" x="957" y="-639.3" font-family="Arial" font-size="14.00">Bit 1: P (Parity)</text>
<text text-anchor="middle" x="957" y="-624.3" font-family="Arial" font-size="14.00">Bit 2: Halted</text>
<text text-anchor="middle" x="957" y="-609.3" font-family="Arial" font-size="14.00">Bit 3: AC</text>
<text text-anchor="middle" x="957" y="-594.3" font-family="Arial" font-size="14.00">Bit 4: C (Carry)</text>
<text text-anchor="middle" x="957" y="-579.3" font-family="Arial" font-size="14.00">Bit 5: OV (Overflow)</text>
<text text-anchor="middle" x="957" y="-564.3" font-family="Arial" font-size="14.00">Bit 6: Reserved</text>
<text text-anchor="middle" x="957" y="-549.3" font-family="Arial" font-size="14.00">Bit 7: S (Sign)</text>
</g>
</g>
</svg>
