<?xml version="1.0" encoding="UTF-8" standalone="no"?>
<!DOCTYPE svg PUBLIC "-//W3C//DTD SVG 1.1//EN"
 "http://www.w3.org/Graphics/SVG/1.1/DTD/svg11.dtd">
<!-- Generated by graphviz version 2.43.0 (0)
 -->
<!-- Title: ALU Pages: 1 -->
<svg width="1827pt" height="482pt"
 viewBox="0.00 0.00 1826.99 481.74" xmlns="http://www.w3.org/2000/svg" xmlns:xlink="http://www.w3.org/1999/xlink">
<g id="graph0" class="graph" transform="scale(1 1) rotate(0) translate(4 477.74)">
<title>ALU</title>
<polygon fill="white" stroke="transparent" points="-4,4 -4,-477.74 1822.99,-477.74 1822.99,4 -4,4"/>
<text text-anchor="middle" x="909.49" y="-455.34" font-family="Arial" font-size="18.00">Figure 4: ALU Internal Structure</text>
<!-- Bold -->
<g id="node1" class="node">
<title>Bold</title>
<path fill="none" stroke="black" d="M216.25,-425.74C216.25,-425.74 186.25,-425.74 186.25,-425.74 180.25,-425.74 174.25,-419.74 174.25,-413.74 174.25,-413.74 174.25,-401.74 174.25,-401.74 174.25,-395.74 180.25,-389.74 186.25,-389.74 186.25,-389.74 216.25,-389.74 216.25,-389.74 222.25,-389.74 228.25,-395.74 228.25,-401.74 228.25,-401.74 228.25,-413.74 228.25,-413.74 228.25,-419.74 222.25,-425.74 216.25,-425.74"/>
<text text-anchor="middle" x="201.25" y="-404.04" font-family="Arial" font-size="14.00">Bold</text>
</g>
<!-- Ain -->
<g id="node2" class="node">
<title>Ain</title>
<path fill="none" stroke="black" d="M258.25,-388.74C258.25,-388.74 288.25,-388.74 288.25,-388.74 294.25,-388.74 300.25,-394.74 300.25,-400.74 300.25,-400.74 300.25,-414.74 300.25,-414.74 300.25,-420.74 294.25,-426.74 288.25,-426.74 288.25,-426.74 258.25,-426.74 258.25,-426.74 252.25,-426.74 246.25,-420.74 246.25,-414.74 246.25,-414.74 246.25,-400.74 246.25,-400.74 246.25,-394.74 252.25,-388.74 258.25,-388.74"/>
<text text-anchor="middle" x="273.25" y="-411.54" font-family="Arial" font-size="14.00">Ain</text>
<text text-anchor="middle" x="273.25" y="-396.54" font-family="Arial" font-size="14.00">(8&#45;bit)</text>
</g>
<!-- add -->
<g id="node7" class="node">
<title>add</title>
<ellipse fill="none" stroke="black" cx="525.25" cy="-305.87" rx="34.39" ry="18"/>
<text text-anchor="middle" x="525.25" y="-302.17" font-family="Arial" font-size="14.00">Adder</text>
</g>
<!-- Ain&#45;&gt;add -->
<g id="edge1" class="edge">
<title>Ain&#45;&gt;add</title>
<path fill="none" stroke="black" d="M288.35,-388.67C295,-381.78 303.34,-374.45 312.25,-369.74 346.42,-351.66 446.31,-347.01 482.25,-332.74 487.08,-330.82 492,-328.39 496.7,-325.79"/>
<polygon fill="black" stroke="black" points="498.55,-328.76 505.4,-320.67 495,-322.73 498.55,-328.76"/>
</g>
<!-- sub -->
<g id="node8" class="node">
<title>sub</title>
<ellipse fill="none" stroke="black" cx="342.25" cy="-305.87" rx="51.19" ry="18"/>
<text text-anchor="middle" x="342.25" y="-302.17" font-family="Arial" font-size="14.00">Subtractor</text>
</g>
<!-- Ain&#45;&gt;sub -->
<g id="edge2" class="edge">
<title>Ain&#45;&gt;sub</title>
<path fill="none" stroke="black" d="M284.43,-388.61C291.37,-377.54 300.6,-363.17 309.25,-350.74 313.66,-344.39 318.6,-337.67 323.27,-331.43"/>
<polygon fill="black" stroke="black" points="326.17,-333.41 329.42,-323.32 320.59,-329.18 326.17,-333.41"/>
</g>
<!-- and_gate -->
<g id="node12" class="node">
<title>and_gate</title>
<ellipse fill="none" stroke="black" cx="29.25" cy="-305.87" rx="29.5" ry="18"/>
<text text-anchor="middle" x="29.25" y="-302.17" font-family="Arial" font-size="14.00">AND</text>
</g>
<!-- Ain&#45;&gt;and_gate -->
<g id="edge3" class="edge">
<title>Ain&#45;&gt;and_gate</title>
<path fill="none" stroke="black" d="M259.55,-388.65C253.44,-381.76 245.71,-374.44 237.25,-369.74 169.64,-332.21 138.29,-363.28 67.25,-332.74 63.21,-331 59.14,-328.81 55.25,-326.45"/>
<polygon fill="black" stroke="black" points="56.87,-323.32 46.59,-320.74 53.02,-329.17 56.87,-323.32"/>
</g>
<!-- or_gate -->
<g id="node13" class="node">
<title>or_gate</title>
<ellipse fill="none" stroke="black" cx="103.25" cy="-305.87" rx="27" ry="18"/>
<text text-anchor="middle" x="103.25" y="-302.17" font-family="Arial" font-size="14.00">OR</text>
</g>
<!-- Ain&#45;&gt;or_gate -->
<g id="edge4" class="edge">
<title>Ain&#45;&gt;or_gate</title>
<path fill="none" stroke="black" d="M258.49,-388.5C252.45,-381.91 245.04,-374.85 237.25,-369.74 198.31,-344.22 180.28,-354.74 139.25,-332.74 135.51,-330.74 131.71,-328.4 128.05,-325.96"/>
<polygon fill="black" stroke="black" points="130.06,-323.09 119.86,-320.2 126.03,-328.81 130.06,-323.09"/>
</g>
<!-- xor_gate -->
<g id="node14" class="node">
<title>xor_gate</title>
<ellipse fill="none" stroke="black" cx="442.25" cy="-305.87" rx="30.59" ry="18"/>
<text text-anchor="middle" x="442.25" y="-302.17" font-family="Arial" font-size="14.00">XOR</text>
</g>
<!-- Ain&#45;&gt;xor_gate -->
<g id="edge5" class="edge">
<title>Ain&#45;&gt;xor_gate</title>
<path fill="none" stroke="black" d="M289.55,-388.68C296.14,-382.11 304.1,-375.02 312.25,-369.74 348.55,-346.24 363.93,-352.79 402.25,-332.74 406.31,-330.61 410.5,-328.19 414.56,-325.7"/>
<polygon fill="black" stroke="black" points="416.59,-328.56 423.15,-320.24 412.83,-322.65 416.59,-328.56"/>
</g>
<!-- rs -->
<g id="node17" class="node">
<title>rs</title>
<ellipse fill="none" stroke="black" cx="210.25" cy="-305.87" rx="62.45" ry="26.74"/>
<text text-anchor="middle" x="210.25" y="-309.67" font-family="Arial" font-size="14.00">RS</text>
<text text-anchor="middle" x="210.25" y="-294.67" font-family="Arial" font-size="14.00">(Right Shift)</text>
</g>
<!-- Ain&#45;&gt;rs -->
<g id="edge6" class="edge">
<title>Ain&#45;&gt;rs</title>
<path fill="none" stroke="black" d="M261.69,-388.42C253.3,-375.12 241.7,-356.73 231.64,-340.78"/>
<polygon fill="black" stroke="black" points="234.53,-338.81 226.24,-332.22 228.61,-342.54 234.53,-338.81"/>
</g>
<!-- ls -->
<g id="node18" class="node">
<title>ls</title>
<ellipse fill="none" stroke="black" cx="633.25" cy="-305.87" rx="55.72" ry="26.74"/>
<text text-anchor="middle" x="633.25" y="-309.67" font-family="Arial" font-size="14.00">LS</text>
<text text-anchor="middle" x="633.25" y="-294.67" font-family="Arial" font-size="14.00">(Left Shift)</text>
</g>
<!-- Ain&#45;&gt;ls -->
<g id="edge7" class="edge">
<title>Ain&#45;&gt;ls</title>
<path fill="none" stroke="black" d="M287.82,-388.73C294.51,-381.68 303.01,-374.22 312.25,-369.74 338.11,-357.21 540.48,-340.16 568.25,-332.74 573.18,-331.42 578.25,-329.84 583.27,-328.11"/>
<polygon fill="black" stroke="black" points="584.62,-331.35 592.83,-324.65 582.23,-324.77 584.62,-331.35"/>
</g>
<!-- Bin -->
<g id="node3" class="node">
<title>Bin</title>
<path fill="none" stroke="black" d="M333.25,-388.74C333.25,-388.74 363.25,-388.74 363.25,-388.74 369.25,-388.74 375.25,-394.74 375.25,-400.74 375.25,-400.74 375.25,-414.74 375.25,-414.74 375.25,-420.74 369.25,-426.74 363.25,-426.74 363.25,-426.74 333.25,-426.74 333.25,-426.74 327.25,-426.74 321.25,-420.74 321.25,-414.74 321.25,-414.74 321.25,-400.74 321.25,-400.74 321.25,-394.74 327.25,-388.74 333.25,-388.74"/>
<text text-anchor="middle" x="348.25" y="-411.54" font-family="Arial" font-size="14.00">Bin</text>
<text text-anchor="middle" x="348.25" y="-396.54" font-family="Arial" font-size="14.00">(8&#45;bit)</text>
</g>
<!-- Bin&#45;&gt;add -->
<g id="edge8" class="edge">
<title>Bin&#45;&gt;add</title>
<path fill="none" stroke="black" d="M363.01,-388.5C369.05,-381.91 376.45,-374.85 384.25,-369.74 423.19,-344.22 440.35,-353.05 482.25,-332.74 486.62,-330.62 491.13,-328.19 495.51,-325.7"/>
<polygon fill="black" stroke="black" points="497.4,-328.65 504.24,-320.55 493.85,-322.62 497.4,-328.65"/>
</g>
<!-- Bin&#45;&gt;sub -->
<g id="edge9" class="edge">
<title>Bin&#45;&gt;sub</title>
<path fill="none" stroke="black" d="M347.15,-388.42C346.23,-373.22 344.92,-351.38 343.88,-334.12"/>
<polygon fill="black" stroke="black" points="347.37,-333.84 343.28,-324.07 340.39,-334.26 347.37,-333.84"/>
</g>
<!-- Bin&#45;&gt;and_gate -->
<g id="edge10" class="edge">
<title>Bin&#45;&gt;and_gate</title>
<path fill="none" stroke="black" d="M333.29,-388.38C326.66,-381.45 318.3,-374.17 309.25,-369.74 260.39,-345.81 117.88,-352.65 67.25,-332.74 62.95,-331.05 58.66,-328.81 54.59,-326.34"/>
<polygon fill="black" stroke="black" points="56.38,-323.33 46.11,-320.73 52.51,-329.17 56.38,-323.33"/>
</g>
<!-- Bin&#45;&gt;or_gate -->
<g id="edge11" class="edge">
<title>Bin&#45;&gt;or_gate</title>
<path fill="none" stroke="black" d="M333.15,-388.67C326.49,-381.78 318.16,-374.45 309.25,-369.74 240.9,-333.57 209.89,-364.18 139.25,-332.74 135.29,-330.98 131.34,-328.74 127.57,-326.33"/>
<polygon fill="black" stroke="black" points="129.43,-323.35 119.23,-320.5 125.42,-329.09 129.43,-323.35"/>
</g>
<!-- Bin&#45;&gt;xor_gate -->
<g id="edge12" class="edge">
<title>Bin&#45;&gt;xor_gate</title>
<path fill="none" stroke="black" d="M365.49,-388.42C381.02,-371.92 403.93,-347.58 420.67,-329.79"/>
<polygon fill="black" stroke="black" points="423.58,-331.81 427.88,-322.13 418.48,-327.01 423.58,-331.81"/>
</g>
<!-- Bin&#45;&gt;rs -->
<g id="edge13" class="edge">
<title>Bin&#45;&gt;rs</title>
<path fill="none" stroke="black" d="M330.65,-388.66C324.17,-382.38 316.61,-375.48 309.25,-369.74 292.43,-356.62 272.8,-343.72 255.48,-333.04"/>
<polygon fill="black" stroke="black" points="257.02,-329.88 246.66,-327.67 253.38,-335.86 257.02,-329.88"/>
</g>
<!-- Bin&#45;&gt;ls -->
<g id="edge14" class="edge">
<title>Bin&#45;&gt;ls</title>
<path fill="none" stroke="black" d="M361.91,-388.58C368.01,-381.68 375.75,-374.37 384.25,-369.74 420.87,-349.79 528.27,-344.61 568.25,-332.74 573.07,-331.31 578.04,-329.66 582.97,-327.91"/>
<polygon fill="black" stroke="black" points="584.21,-331.18 592.38,-324.43 581.79,-324.61 584.21,-331.18"/>
</g>
<!-- Iin -->
<g id="node4" class="node">
<title>Iin</title>
<path fill="none" stroke="black" d="M405.25,-388.74C405.25,-388.74 471.25,-388.74 471.25,-388.74 477.25,-388.74 483.25,-394.74 483.25,-400.74 483.25,-400.74 483.25,-414.74 483.25,-414.74 483.25,-420.74 477.25,-426.74 471.25,-426.74 471.25,-426.74 405.25,-426.74 405.25,-426.74 399.25,-426.74 393.25,-420.74 393.25,-414.74 393.25,-414.74 393.25,-400.74 393.25,-400.74 393.25,-394.74 399.25,-388.74 405.25,-388.74"/>
<text text-anchor="middle" x="438.25" y="-411.54" font-family="Arial" font-size="14.00">Iin</text>
<text text-anchor="middle" x="438.25" y="-396.54" font-family="Arial" font-size="14.00">(Immediate)</text>
</g>
<!-- mode -->
<g id="node5" class="node">
<title>mode</title>
<path fill="none" stroke="black" d="M579.21,-441.03C579.21,-441.03 512.28,-412.45 512.28,-412.45 506.77,-410.1 506.77,-405.38 512.28,-403.03 512.28,-403.03 579.21,-374.45 579.21,-374.45 584.73,-372.1 595.77,-372.1 601.28,-374.45 601.28,-374.45 668.21,-403.03 668.21,-403.03 673.73,-405.38 673.73,-410.1 668.21,-412.45 668.21,-412.45 601.28,-441.03 601.28,-441.03 595.77,-443.38 584.73,-443.38 579.21,-441.03"/>
<text text-anchor="middle" x="590.25" y="-411.54" font-family="Arial" font-size="14.00">Mode</text>
<text text-anchor="middle" x="590.25" y="-396.54" font-family="Arial" font-size="14.00">(Arith/Logic)</text>
</g>
<!-- op -->
<g id="node6" class="node">
<title>op</title>
<path fill="none" stroke="black" d="M763.49,-440.43C763.49,-440.43 708.01,-413.05 708.01,-413.05 702.63,-410.4 702.63,-405.08 708.01,-402.43 708.01,-402.43 763.49,-375.05 763.49,-375.05 768.87,-372.4 779.63,-372.4 785.01,-375.05 785.01,-375.05 840.49,-402.43 840.49,-402.43 845.87,-405.08 845.87,-410.4 840.49,-413.05 840.49,-413.05 785.01,-440.43 785.01,-440.43 779.63,-443.08 768.87,-443.08 763.49,-440.43"/>
<text text-anchor="middle" x="774.25" y="-411.54" font-family="Arial" font-size="14.00">Operation</text>
<text text-anchor="middle" x="774.25" y="-396.54" font-family="Arial" font-size="14.00">(4&#45;bit)</text>
</g>
<!-- result_mux -->
<g id="node22" class="node">
<title>result_mux</title>
<path fill="none" stroke="black" d="M332.37,-235.18C332.37,-235.18 297.12,-210.82 297.12,-210.82 292.18,-207.41 292.18,-200.59 297.12,-197.18 297.12,-197.18 332.37,-172.82 332.37,-172.82 337.31,-169.41 347.18,-169.41 352.12,-172.82 352.12,-172.82 387.37,-197.18 387.37,-197.18 392.31,-200.59 392.31,-207.41 387.37,-210.82 387.37,-210.82 352.12,-235.18 352.12,-235.18 347.18,-238.59 337.31,-238.59 332.37,-235.18"/>
<text text-anchor="middle" x="342.25" y="-207.8" font-family="Arial" font-size="14.00">Result</text>
<text text-anchor="middle" x="342.25" y="-192.8" font-family="Arial" font-size="14.00">MUX</text>
</g>
<!-- add&#45;&gt;result_mux -->
<g id="edge15" class="edge">
<title>add&#45;&gt;result_mux</title>
<path fill="none" stroke="black" d="M503.51,-291.47C496.74,-287.39 489.23,-282.94 482.25,-279 448.91,-260.18 410.41,-239.94 382.24,-225.39"/>
<polygon fill="black" stroke="black" points="383.59,-222.15 373.1,-220.68 380.39,-228.37 383.59,-222.15"/>
</g>
<!-- sub&#45;&gt;result_mux -->
<g id="edge16" class="edge">
<title>sub&#45;&gt;result_mux</title>
<path fill="none" stroke="black" d="M342.25,-287.47C342.25,-277.6 342.25,-264.71 342.25,-252.07"/>
<polygon fill="black" stroke="black" points="345.75,-252.05 342.25,-242.05 338.75,-252.05 345.75,-252.05"/>
</g>
<!-- carry_in -->
<g id="node9" class="node">
<title>carry_in</title>
<path fill="none" stroke="black" d="M917.75,-422.29C917.75,-422.29 880.75,-411.19 880.75,-411.19 875,-409.46 875,-406.02 880.75,-404.29 880.75,-404.29 917.75,-393.19 917.75,-393.19 923.5,-391.46 934.99,-391.46 940.74,-393.19 940.74,-393.19 977.75,-404.29 977.75,-404.29 983.49,-406.02 983.49,-409.46 977.75,-411.19 977.75,-411.19 940.74,-422.29 940.74,-422.29 934.99,-424.02 923.5,-424.02 917.75,-422.29"/>
<text text-anchor="middle" x="929.25" y="-404.04" font-family="Arial" font-size="14.00">Carry In</text>
</g>
<!-- addc -->
<g id="node10" class="node">
<title>addc</title>
<path fill="none" stroke="black" d="M1085.75,-426.74C1085.75,-426.74 1018.75,-426.74 1018.75,-426.74 1012.75,-426.74 1006.75,-420.74 1006.75,-414.74 1006.75,-414.74 1006.75,-400.74 1006.75,-400.74 1006.75,-394.74 1012.75,-388.74 1018.75,-388.74 1018.75,-388.74 1085.75,-388.74 1085.75,-388.74 1091.75,-388.74 1097.75,-394.74 1097.75,-400.74 1097.75,-400.74 1097.75,-414.74 1097.75,-414.74 1097.75,-420.74 1091.75,-426.74 1085.75,-426.74"/>
<text text-anchor="middle" x="1052.25" y="-411.54" font-family="Arial" font-size="14.00">ADC</text>
<text text-anchor="middle" x="1052.25" y="-396.54" font-family="Arial" font-size="14.00">(Add+Carry)</text>
</g>
<!-- subb -->
<g id="node11" class="node">
<title>subb</title>
<path fill="none" stroke="black" d="M1204.75,-426.74C1204.75,-426.74 1127.75,-426.74 1127.75,-426.74 1121.75,-426.74 1115.75,-420.74 1115.75,-414.74 1115.75,-414.74 1115.75,-400.74 1115.75,-400.74 1115.75,-394.74 1121.75,-388.74 1127.75,-388.74 1127.75,-388.74 1204.75,-388.74 1204.75,-388.74 1210.75,-388.74 1216.75,-394.74 1216.75,-400.74 1216.75,-400.74 1216.75,-414.74 1216.75,-414.74 1216.75,-420.74 1210.75,-426.74 1204.75,-426.74"/>
<text text-anchor="middle" x="1166.25" y="-411.54" font-family="Arial" font-size="14.00">SBB</text>
<text text-anchor="middle" x="1166.25" y="-396.54" font-family="Arial" font-size="14.00">(Sub+Borrow)</text>
</g>
<!-- and_gate&#45;&gt;result_mux -->
<g id="edge17" class="edge">
<title>and_gate&#45;&gt;result_mux</title>
<path fill="none" stroke="black" d="M46.68,-291.2C52.9,-286.82 60.14,-282.26 67.25,-279 140.58,-245.34 232.18,-224.52 288.95,-213.85"/>
<polygon fill="black" stroke="black" points="289.58,-217.29 298.78,-212.04 288.32,-210.41 289.58,-217.29"/>
</g>
<!-- or_gate&#45;&gt;result_mux -->
<g id="edge18" class="edge">
<title>or_gate&#45;&gt;result_mux</title>
<path fill="none" stroke="black" d="M119.84,-291.5C125.74,-287.14 132.58,-282.53 139.25,-279 189.75,-252.3 252.01,-231.18 294.16,-218.45"/>
<polygon fill="black" stroke="black" points="295.31,-221.76 303.89,-215.55 293.31,-215.05 295.31,-221.76"/>
</g>
<!-- xor_gate&#45;&gt;result_mux -->
<g id="edge19" class="edge">
<title>xor_gate&#45;&gt;result_mux</title>
<path fill="none" stroke="black" d="M427.06,-289.7C412.43,-275.09 389.91,-252.6 371.75,-234.46"/>
<polygon fill="black" stroke="black" points="373.82,-231.58 364.27,-226.99 368.87,-236.54 373.82,-231.58"/>
</g>
<!-- not_gate -->
<g id="node15" class="node">
<title>not_gate</title>
<ellipse fill="none" stroke="black" cx="1264.25" cy="-407.74" rx="29.8" ry="18"/>
<text text-anchor="middle" x="1264.25" y="-404.04" font-family="Arial" font-size="14.00">NOT</text>
</g>
<!-- xnor_gate -->
<g id="node16" class="node">
<title>xnor_gate</title>
<ellipse fill="none" stroke="black" cx="1348.25" cy="-407.74" rx="36.29" ry="18"/>
<text text-anchor="middle" x="1348.25" y="-404.04" font-family="Arial" font-size="14.00">XNOR</text>
</g>
<!-- rs&#45;&gt;result_mux -->
<g id="edge20" class="edge">
<title>rs&#45;&gt;result_mux</title>
<path fill="none" stroke="black" d="M240.2,-282.21C260.48,-266.86 287.31,-246.57 308.37,-230.63"/>
<polygon fill="black" stroke="black" points="310.56,-233.36 316.42,-224.54 306.34,-227.78 310.56,-233.36"/>
</g>
<!-- ls&#45;&gt;result_mux -->
<g id="edge21" class="edge">
<title>ls&#45;&gt;result_mux</title>
<path fill="none" stroke="black" d="M591.44,-287.78C583.76,-284.77 575.78,-281.73 568.25,-279 506.95,-256.79 435.28,-233.82 389.36,-219.48"/>
<polygon fill="black" stroke="black" points="390.27,-216.1 379.68,-216.47 388.19,-222.79 390.27,-216.1"/>
</g>
<!-- rr -->
<g id="node19" class="node">
<title>rr</title>
<ellipse fill="none" stroke="black" cx="1474.25" cy="-407.74" rx="71.34" ry="26.74"/>
<text text-anchor="middle" x="1474.25" y="-411.54" font-family="Arial" font-size="14.00">RR</text>
<text text-anchor="middle" x="1474.25" y="-396.54" font-family="Arial" font-size="14.00">(Right Rotate)</text>
</g>
<!-- lr -->
<g id="node20" class="node">
<title>lr</title>
<ellipse fill="none" stroke="black" cx="1628.25" cy="-407.74" rx="65.11" ry="26.74"/>
<text text-anchor="middle" x="1628.25" y="-411.54" font-family="Arial" font-size="14.00">LR</text>
<text text-anchor="middle" x="1628.25" y="-396.54" font-family="Arial" font-size="14.00">(Left Rotate)</text>
</g>
<!-- ars -->
<g id="node21" class="node">
<title>ars</title>
<ellipse fill="none" stroke="black" cx="1765.25" cy="-407.74" rx="53.98" ry="26.74"/>
<text text-anchor="middle" x="1765.25" y="-411.54" font-family="Arial" font-size="14.00">ARS</text>
<text text-anchor="middle" x="1765.25" y="-396.54" font-family="Arial" font-size="14.00">(Arith RS)</text>
</g>
<!-- result -->
<g id="node23" class="node">
<title>result</title>
<path fill="none" stroke="black" d="M326.75,-90.5C326.75,-90.5 357.75,-90.5 357.75,-90.5 363.75,-90.5 369.75,-96.5 369.75,-102.5 369.75,-102.5 369.75,-116.5 369.75,-116.5 369.75,-122.5 363.75,-128.5 357.75,-128.5 357.75,-128.5 326.75,-128.5 326.75,-128.5 320.75,-128.5 314.75,-122.5 314.75,-116.5 314.75,-116.5 314.75,-102.5 314.75,-102.5 314.75,-96.5 320.75,-90.5 326.75,-90.5"/>
<text text-anchor="middle" x="342.25" y="-113.3" font-family="Arial" font-size="14.00">Result</text>
<text text-anchor="middle" x="342.25" y="-98.3" font-family="Arial" font-size="14.00">(8&#45;bit)</text>
</g>
<!-- result_mux&#45;&gt;result -->
<g id="edge22" class="edge">
<title>result_mux&#45;&gt;result</title>
<path fill="none" stroke="black" d="M342.25,-165.91C342.25,-156.86 342.25,-147.33 342.25,-138.77"/>
<polygon fill="black" stroke="black" points="345.75,-138.55 342.25,-128.55 338.75,-138.55 345.75,-138.55"/>
</g>
<!-- flags -->
<g id="node24" class="node">
<title>flags</title>
<path fill="none" stroke="black" d="M327.25,-0.5C327.25,-0.5 357.25,-0.5 357.25,-0.5 363.25,-0.5 369.25,-6.5 369.25,-12.5 369.25,-12.5 369.25,-26.5 369.25,-26.5 369.25,-32.5 363.25,-38.5 357.25,-38.5 357.25,-38.5 327.25,-38.5 327.25,-38.5 321.25,-38.5 315.25,-32.5 315.25,-26.5 315.25,-26.5 315.25,-12.5 315.25,-12.5 315.25,-6.5 321.25,-0.5 327.25,-0.5"/>
<text text-anchor="middle" x="342.25" y="-23.3" font-family="Arial" font-size="14.00">Flags</text>
<text text-anchor="middle" x="342.25" y="-8.3" font-family="Arial" font-size="14.00">(8&#45;bit)</text>
</g>
<!-- result&#45;&gt;flags -->
<g id="edge23" class="edge">
<title>result&#45;&gt;flags</title>
<path fill="none" stroke="black" d="M342.25,-90.27C342.25,-78.35 342.25,-62.54 342.25,-48.98"/>
<polygon fill="black" stroke="black" points="345.75,-48.71 342.25,-38.71 338.75,-48.71 345.75,-48.71"/>
<text text-anchor="middle" x="374.25" y="-60.8" font-family="Times,serif" font-size="14.00">generate</text>
</g>
</g>
</svg>
