<?xml version="1.0" encoding="UTF-8" standalone="no"?>
<!DOCTYPE svg PUBLIC "-//W3C//DTD SVG 1.1//EN"
 "http://www.w3.org/Graphics/SVG/1.1/DTD/svg11.dtd">
<!-- Generated by graphviz version 2.43.0 (0)
 -->
<!-- Title: AssemblerPipeline Pages: 1 -->
<svg width="991pt" height="203pt"
 viewBox="0.00 0.00 991.32 203.00" xmlns="http://www.w3.org/2000/svg" xmlns:xlink="http://www.w3.org/1999/xlink">
<g id="graph0" class="graph" transform="scale(1 1) rotate(0) translate(4 199)">
<title>AssemblerPipeline</title>
<polygon fill="white" stroke="transparent" points="-4,4 -4,-199 987.32,-199 987.32,4 -4,4"/>
<text text-anchor="middle" x="491.66" y="-176.6" font-family="Arial" font-size="18.00">Figure 5: Assembler Pipeline</text>
<!-- Bold -->
<g id="node1" class="node">
<title>Bold</title>
<path fill="none" stroke="black" d="M66,-45.5C66,-45.5 36,-45.5 36,-45.5 30,-45.5 24,-39.5 24,-33.5 24,-33.5 24,-21.5 24,-21.5 24,-15.5 30,-9.5 36,-9.5 36,-9.5 66,-9.5 66,-9.5 72,-9.5 78,-15.5 78,-21.5 78,-21.5 78,-33.5 78,-33.5 78,-39.5 72,-45.5 66,-45.5"/>
<text text-anchor="middle" x="51" y="-23.8" font-family="Arial" font-size="14.00">Bold</text>
</g>
<!-- asm_src -->
<g id="node2" class="node">
<title>asm_src</title>
<path fill="none" stroke="black" d="M12,-64.5C12,-64.5 90,-64.5 90,-64.5 96,-64.5 102,-70.5 102,-76.5 102,-76.5 102,-90.5 102,-90.5 102,-96.5 96,-102.5 90,-102.5 90,-102.5 12,-102.5 12,-102.5 6,-102.5 0,-96.5 0,-90.5 0,-90.5 0,-76.5 0,-76.5 0,-70.5 6,-64.5 12,-64.5"/>
<text text-anchor="middle" x="51" y="-87.3" font-family="Arial" font-size="14.00">Assembly</text>
<text text-anchor="middle" x="51" y="-72.3" font-family="Arial" font-size="14.00">Source (.asm)</text>
</g>
<!-- lexer -->
<g id="node3" class="node">
<title>lexer</title>
<ellipse fill="none" stroke="black" cx="183.5" cy="-83.5" rx="45.49" ry="18"/>
<text text-anchor="middle" x="183.5" y="-79.8" font-family="Arial" font-size="14.00">Tokenize</text>
</g>
<!-- asm_src&#45;&gt;lexer -->
<g id="edge1" class="edge">
<title>asm_src&#45;&gt;lexer</title>
<path fill="none" stroke="navy" stroke-width="2" d="M102.08,-83.5C110.46,-83.5 119.19,-83.5 127.69,-83.5"/>
<polygon fill="navy" stroke="navy" stroke-width="2" points="127.88,-87 137.88,-83.5 127.88,-80 127.88,-87"/>
</g>
<!-- tokens -->
<g id="node4" class="node">
<title>tokens</title>
<path fill="none" stroke="black" d="M276.99,-64.5C276.99,-64.5 313.99,-64.5 313.99,-64.5 319.99,-64.5 325.99,-70.5 325.99,-76.5 325.99,-76.5 325.99,-90.5 325.99,-90.5 325.99,-96.5 319.99,-102.5 313.99,-102.5 313.99,-102.5 276.99,-102.5 276.99,-102.5 270.99,-102.5 264.99,-96.5 264.99,-90.5 264.99,-90.5 264.99,-76.5 264.99,-76.5 264.99,-70.5 270.99,-64.5 276.99,-64.5"/>
<text text-anchor="middle" x="295.49" y="-87.3" font-family="Arial" font-size="14.00">Token</text>
<text text-anchor="middle" x="295.49" y="-72.3" font-family="Arial" font-size="14.00">Stream</text>
</g>
<!-- lexer&#45;&gt;tokens -->
<g id="edge2" class="edge">
<title>lexer&#45;&gt;tokens</title>
<path fill="none" stroke="navy" stroke-width="2" d="M229.24,-83.5C237.68,-83.5 246.47,-83.5 254.75,-83.5"/>
<polygon fill="navy" stroke="navy" stroke-width="2" points="254.91,-87 264.91,-83.5 254.91,-80 254.91,-87"/>
</g>
<!-- parser -->
<g id="node5" class="node">
<title>parser</title>
<ellipse fill="none" stroke="black" cx="395.79" cy="-83.5" rx="33.6" ry="18"/>
<text text-anchor="middle" x="395.79" y="-79.8" font-family="Arial" font-size="14.00">Parse</text>
</g>
<!-- tokens&#45;&gt;parser -->
<g id="edge3" class="edge">
<title>tokens&#45;&gt;parser</title>
<path fill="none" stroke="navy" stroke-width="2" d="M326.25,-83.5C334.21,-83.5 342.97,-83.5 351.49,-83.5"/>
<polygon fill="navy" stroke="navy" stroke-width="2" points="351.7,-87 361.7,-83.5 351.7,-80 351.7,-87"/>
</g>
<!-- ast -->
<g id="node6" class="node">
<title>ast</title>
<path fill="none" stroke="black" d="M477.59,-65.5C477.59,-65.5 507.59,-65.5 507.59,-65.5 513.59,-65.5 519.59,-71.5 519.59,-77.5 519.59,-77.5 519.59,-89.5 519.59,-89.5 519.59,-95.5 513.59,-101.5 507.59,-101.5 507.59,-101.5 477.59,-101.5 477.59,-101.5 471.59,-101.5 465.59,-95.5 465.59,-89.5 465.59,-89.5 465.59,-77.5 465.59,-77.5 465.59,-71.5 471.59,-65.5 477.59,-65.5"/>
<text text-anchor="middle" x="492.59" y="-79.8" font-family="Arial" font-size="14.00">AST</text>
</g>
<!-- parser&#45;&gt;ast -->
<g id="edge4" class="edge">
<title>parser&#45;&gt;ast</title>
<path fill="none" stroke="navy" stroke-width="2" d="M429.68,-83.5C437.88,-83.5 446.71,-83.5 455.07,-83.5"/>
<polygon fill="navy" stroke="navy" stroke-width="2" points="455.32,-87 465.32,-83.5 455.32,-80 455.32,-87"/>
</g>
<!-- sem -->
<g id="node8" class="node">
<title>sem</title>
<ellipse fill="none" stroke="black" cx="607.91" cy="-83.5" rx="52.15" ry="26.74"/>
<text text-anchor="middle" x="607.91" y="-87.3" font-family="Arial" font-size="14.00">Semantic</text>
<text text-anchor="middle" x="607.91" y="-72.3" font-family="Arial" font-size="14.00">Analysis</text>
</g>
<!-- ast&#45;&gt;sem -->
<g id="edge5" class="edge">
<title>ast&#45;&gt;sem</title>
<path fill="none" stroke="navy" stroke-width="2" d="M519.87,-83.5C527.57,-83.5 536.32,-83.5 545.25,-83.5"/>
<polygon fill="navy" stroke="navy" stroke-width="2" points="545.35,-87 555.35,-83.5 545.35,-80 545.35,-87"/>
</g>
<!-- symbol -->
<g id="node7" class="node">
<title>symbol</title>
<path fill="none" stroke="black" d="M750.78,-128.5C750.78,-128.5 788.78,-128.5 788.78,-128.5 794.78,-128.5 800.78,-134.5 800.78,-140.5 800.78,-140.5 800.78,-154.5 800.78,-154.5 800.78,-160.5 794.78,-166.5 788.78,-166.5 788.78,-166.5 750.78,-166.5 750.78,-166.5 744.78,-166.5 738.78,-160.5 738.78,-154.5 738.78,-154.5 738.78,-140.5 738.78,-140.5 738.78,-134.5 744.78,-128.5 750.78,-128.5"/>
<text text-anchor="middle" x="769.78" y="-151.3" font-family="Arial" font-size="14.00">Symbol</text>
<text text-anchor="middle" x="769.78" y="-136.3" font-family="Arial" font-size="14.00">Table</text>
</g>
<!-- sem&#45;&gt;symbol -->
<g id="edge6" class="edge">
<title>sem&#45;&gt;symbol</title>
<path fill="none" stroke="navy" stroke-width="2" stroke-dasharray="5,2" d="M649.27,-100.36C664.02,-106.46 680.85,-113.36 696.24,-119.5 706.89,-123.75 718.47,-128.27 729.18,-132.4"/>
<polygon fill="navy" stroke="navy" stroke-width="2" points="728.13,-135.75 738.72,-136.07 730.64,-129.21 728.13,-135.75"/>
</g>
<!-- codegen -->
<g id="node9" class="node">
<title>codegen</title>
<ellipse fill="none" stroke="black" cx="769.78" cy="-83.5" rx="73.58" ry="26.74"/>
<text text-anchor="middle" x="769.78" y="-87.3" font-family="Arial" font-size="14.00">Generate</text>
<text text-anchor="middle" x="769.78" y="-72.3" font-family="Arial" font-size="14.00">Machine Code</text>
</g>
<!-- sem&#45;&gt;codegen -->
<g id="edge7" class="edge">
<title>sem&#45;&gt;codegen</title>
<path fill="none" stroke="navy" stroke-width="2" d="M660.37,-83.5C668.57,-83.5 677.24,-83.5 685.94,-83.5"/>
<polygon fill="navy" stroke="navy" stroke-width="2" points="686.16,-87 696.16,-83.5 686.16,-80 686.16,-87"/>
</g>
<!-- errors -->
<g id="node11" class="node">
<title>errors</title>
<path fill="none" stroke="black" d="M742.28,-0.5C742.28,-0.5 797.28,-0.5 797.28,-0.5 803.28,-0.5 809.28,-6.5 809.28,-12.5 809.28,-12.5 809.28,-26.5 809.28,-26.5 809.28,-32.5 803.28,-38.5 797.28,-38.5 797.28,-38.5 742.28,-38.5 742.28,-38.5 736.28,-38.5 730.28,-32.5 730.28,-26.5 730.28,-26.5 730.28,-12.5 730.28,-12.5 730.28,-6.5 736.28,-0.5 742.28,-0.5"/>
<text text-anchor="middle" x="769.78" y="-23.3" font-family="Arial" font-size="14.00">Error</text>
<text text-anchor="middle" x="769.78" y="-8.3" font-family="Arial" font-size="14.00">Messages</text>
</g>
<!-- sem&#45;&gt;errors -->
<g id="edge9" class="edge">
<title>sem&#45;&gt;errors</title>
<path fill="none" stroke="red" stroke-width="2" stroke-dasharray="5,2" d="M649.27,-66.64C664.02,-60.54 680.85,-53.64 696.24,-47.5 704.08,-44.37 712.42,-41.1 720.54,-37.94"/>
<polygon fill="red" stroke="red" stroke-width="2" points="721.88,-41.18 729.94,-34.31 719.35,-34.65 721.88,-41.18"/>
</g>
<!-- bin -->
<g id="node10" class="node">
<title>bin</title>
<path fill="none" stroke="black" d="M891.32,-64.5C891.32,-64.5 971.32,-64.5 971.32,-64.5 977.32,-64.5 983.32,-70.5 983.32,-76.5 983.32,-76.5 983.32,-90.5 983.32,-90.5 983.32,-96.5 977.32,-102.5 971.32,-102.5 971.32,-102.5 891.32,-102.5 891.32,-102.5 885.32,-102.5 879.32,-96.5 879.32,-90.5 879.32,-90.5 879.32,-76.5 879.32,-76.5 879.32,-70.5 885.32,-64.5 891.32,-64.5"/>
<text text-anchor="middle" x="931.32" y="-87.3" font-family="Arial" font-size="14.00">Machine Code</text>
<text text-anchor="middle" x="931.32" y="-72.3" font-family="Arial" font-size="14.00">(.bin)</text>
</g>
<!-- codegen&#45;&gt;bin -->
<g id="edge8" class="edge">
<title>codegen&#45;&gt;bin</title>
<path fill="none" stroke="navy" stroke-width="2" d="M843.54,-83.5C852.07,-83.5 860.71,-83.5 869.06,-83.5"/>
<polygon fill="navy" stroke="navy" stroke-width="2" points="869.08,-87 879.08,-83.5 869.08,-80 869.08,-87"/>
</g>
</g>
</svg>
