<?xml version="1.0" encoding="UTF-8" standalone="no"?>
<!DOCTYPE svg PUBLIC "-//W3C//DTD SVG 1.1//EN"
 "http://www.w3.org/Graphics/SVG/1.1/DTD/svg11.dtd">
<!-- Generated by graphviz version 2.43.0 (0)
 -->
<!-- Title: EmulatorStructure Pages: 1 -->
<svg width="752pt" height="285pt"
 viewBox="0.00 0.00 751.50 285.48" xmlns="http://www.w3.org/2000/svg" xmlns:xlink="http://www.w3.org/1999/xlink">
<g id="graph0" class="graph" transform="scale(1 1) rotate(0) translate(4 281.48)">
<title>EmulatorStructure</title>
<polygon fill="white" stroke="transparent" points="-4,4 -4,-281.48 747.5,-281.48 747.5,4 -4,4"/>
<text text-anchor="middle" x="371.75" y="-259.08" font-family="Arial" font-size="18.00">Figure 6: Emulator Architecture</text>
<!-- Bold -->
<g id="node1" class="node">
<title>Bold</title>
<path fill="none" stroke="black" d="M117.5,-240.61C117.5,-240.61 87.5,-240.61 87.5,-240.61 81.5,-240.61 75.5,-234.61 75.5,-228.61 75.5,-228.61 75.5,-216.61 75.5,-216.61 75.5,-210.61 81.5,-204.61 87.5,-204.61 87.5,-204.61 117.5,-204.61 117.5,-204.61 123.5,-204.61 129.5,-210.61 129.5,-216.61 129.5,-216.61 129.5,-228.61 129.5,-228.61 129.5,-234.61 123.5,-240.61 117.5,-240.61"/>
<text text-anchor="middle" x="102.5" y="-218.91" font-family="Arial" font-size="14.00">Bold</text>
</g>
<!-- init -->
<g id="node2" class="node">
<title>init</title>
<ellipse fill="none" stroke="black" cx="200.5" cy="-222.61" rx="52.79" ry="18"/>
<text text-anchor="middle" x="200.5" y="-218.91" font-family="Arial" font-size="14.00">NewCPU()</text>
</g>
<!-- load -->
<g id="node3" class="node">
<title>load</title>
<ellipse fill="none" stroke="black" cx="200.5" cy="-131.87" rx="48.58" ry="26.74"/>
<text text-anchor="middle" x="200.5" y="-135.67" font-family="Arial" font-size="14.00">Load</text>
<text text-anchor="middle" x="200.5" y="-120.67" font-family="Arial" font-size="14.00">Program</text>
</g>
<!-- init&#45;&gt;load -->
<g id="edge1" class="edge">
<title>init&#45;&gt;load</title>
<path fill="none" stroke="navy" stroke-width="2" d="M200.5,-204.5C200.5,-194.43 200.5,-181.29 200.5,-169.03"/>
<polygon fill="navy" stroke="navy" stroke-width="2" points="204,-169.02 200.5,-159.02 197,-169.02 204,-169.02"/>
</g>
<!-- pc_reg -->
<g id="node5" class="node">
<title>pc_reg</title>
<path fill="none" stroke="black" d="M12,-8C12,-8 47,-8 47,-8 53,-8 59,-14 59,-20 59,-20 59,-34 59,-34 59,-40 53,-46 47,-46 47,-46 12,-46 12,-46 6,-46 0,-40 0,-34 0,-34 0,-20 0,-20 0,-14 6,-8 12,-8"/>
<text text-anchor="middle" x="29.5" y="-30.8" font-family="Arial" font-size="14.00">PC</text>
<text text-anchor="middle" x="29.5" y="-15.8" font-family="Arial" font-size="14.00">(16&#45;bit)</text>
</g>
<!-- load&#45;&gt;pc_reg -->
<g id="edge4" class="edge">
<title>load&#45;&gt;pc_reg</title>
<path fill="none" stroke="navy" stroke-width="2" d="M166.74,-112.29C139.6,-97.14 100.67,-74.89 67.5,-54 66.4,-53.31 65.28,-52.59 64.16,-51.87"/>
<polygon fill="navy" stroke="navy" stroke-width="2" points="65.77,-48.74 55.49,-46.17 61.92,-54.59 65.77,-48.74"/>
</g>
<!-- sp_reg -->
<g id="node6" class="node">
<title>sp_reg</title>
<path fill="none" stroke="black" d="M89,-8C89,-8 124,-8 124,-8 130,-8 136,-14 136,-20 136,-20 136,-34 136,-34 136,-40 130,-46 124,-46 124,-46 89,-46 89,-46 83,-46 77,-40 77,-34 77,-34 77,-20 77,-20 77,-14 83,-8 89,-8"/>
<text text-anchor="middle" x="106.5" y="-30.8" font-family="Arial" font-size="14.00">SP</text>
<text text-anchor="middle" x="106.5" y="-15.8" font-family="Arial" font-size="14.00">(16&#45;bit)</text>
</g>
<!-- load&#45;&gt;sp_reg -->
<g id="edge5" class="edge">
<title>load&#45;&gt;sp_reg</title>
<path fill="none" stroke="navy" stroke-width="2" d="M179.17,-107.53C164.55,-91.53 145.16,-70.31 130.08,-53.81"/>
<polygon fill="navy" stroke="navy" stroke-width="2" points="132.4,-51.15 123.07,-46.13 127.23,-55.87 132.4,-51.15"/>
</g>
<!-- status_reg -->
<g id="node7" class="node">
<title>status_reg</title>
<path fill="none" stroke="black" d="M384,-8C384,-8 415,-8 415,-8 421,-8 427,-14 427,-20 427,-20 427,-34 427,-34 427,-40 421,-46 415,-46 415,-46 384,-46 384,-46 378,-46 372,-40 372,-34 372,-34 372,-20 372,-20 372,-14 378,-8 384,-8"/>
<text text-anchor="middle" x="399.5" y="-30.8" font-family="Arial" font-size="14.00">Status</text>
<text text-anchor="middle" x="399.5" y="-15.8" font-family="Arial" font-size="14.00">(flags)</text>
</g>
<!-- load&#45;&gt;status_reg -->
<g id="edge6" class="edge">
<title>load&#45;&gt;status_reg</title>
<path fill="none" stroke="navy" stroke-width="2" d="M231.8,-111.08C252.24,-98.73 279.8,-83.12 305.5,-72 329.88,-61.45 338.69,-65.78 362.5,-54 364.05,-53.23 365.6,-52.41 367.15,-51.54"/>
<polygon fill="navy" stroke="navy" stroke-width="2" points="369.19,-54.39 375.88,-46.18 365.53,-48.43 369.19,-54.39"/>
</g>
<!-- inst_mem -->
<g id="node9" class="node">
<title>inst_mem</title>
<path fill="none" stroke="black" d="M277.5,-8C277.5,-8 341.5,-8 341.5,-8 347.5,-8 353.5,-14 353.5,-20 353.5,-20 353.5,-34 353.5,-34 353.5,-40 347.5,-46 341.5,-46 341.5,-46 277.5,-46 277.5,-46 271.5,-46 265.5,-40 265.5,-34 265.5,-34 265.5,-20 265.5,-20 265.5,-14 271.5,-8 277.5,-8"/>
<text text-anchor="middle" x="309.5" y="-30.8" font-family="Arial" font-size="14.00">instMemory</text>
<text text-anchor="middle" x="309.5" y="-15.8" font-family="Arial" font-size="14.00">[65536]</text>
</g>
<!-- load&#45;&gt;inst_mem -->
<g id="edge2" class="edge">
<title>load&#45;&gt;inst_mem</title>
<path fill="none" stroke="navy" stroke-width="2" d="M221.7,-107.33C231.93,-96.31 244.55,-83.17 256.5,-72 263.49,-65.46 271.3,-58.71 278.72,-52.52"/>
<polygon fill="navy" stroke="navy" stroke-width="2" points="281.07,-55.12 286.56,-46.06 276.62,-49.71 281.07,-55.12"/>
</g>
<!-- data_mem -->
<g id="node10" class="node">
<title>data_mem</title>
<path fill="none" stroke="black" d="M166,-8C166,-8 235,-8 235,-8 241,-8 247,-14 247,-20 247,-20 247,-34 247,-34 247,-40 241,-46 235,-46 235,-46 166,-46 166,-46 160,-46 154,-40 154,-34 154,-34 154,-20 154,-20 154,-14 160,-8 166,-8"/>
<text text-anchor="middle" x="200.5" y="-30.8" font-family="Arial" font-size="14.00">dataMemory</text>
<text text-anchor="middle" x="200.5" y="-15.8" font-family="Arial" font-size="14.00">[65536]</text>
</g>
<!-- load&#45;&gt;data_mem -->
<g id="edge3" class="edge">
<title>load&#45;&gt;data_mem</title>
<path fill="none" stroke="navy" stroke-width="2" d="M200.5,-104.91C200.5,-90.16 200.5,-71.67 200.5,-56.51"/>
<polygon fill="navy" stroke="navy" stroke-width="2" points="204,-56.17 200.5,-46.17 197,-56.17 204,-56.17"/>
</g>
<!-- regs -->
<g id="node4" class="node">
<title>regs</title>
<path fill="none" stroke="black" d="M457,-0.5C457,-0.5 560,-0.5 560,-0.5 566,-0.5 572,-6.5 572,-12.5 572,-12.5 572,-41.5 572,-41.5 572,-47.5 566,-53.5 560,-53.5 560,-53.5 457,-53.5 457,-53.5 451,-53.5 445,-47.5 445,-41.5 445,-41.5 445,-12.5 445,-12.5 445,-6.5 451,-0.5 457,-0.5"/>
<text text-anchor="middle" x="508.5" y="-38.3" font-family="Arial" font-size="14.00">registers[13]</text>
<text text-anchor="middle" x="508.5" y="-23.3" font-family="Arial" font-size="14.00">A,B,C,D,E,F,G,H</text>
<text text-anchor="middle" x="508.5" y="-8.3" font-family="Arial" font-size="14.00">Templ,Temph,Rng</text>
</g>
<!-- branch -->
<g id="node8" class="node">
<title>branch</title>
<path fill="none" stroke="black" d="M602,-8C602,-8 659,-8 659,-8 665,-8 671,-14 671,-20 671,-20 671,-34 671,-34 671,-40 665,-46 659,-46 659,-46 602,-46 602,-46 596,-46 590,-40 590,-34 590,-34 590,-20 590,-20 590,-14 596,-8 602,-8"/>
<text text-anchor="middle" x="630.5" y="-30.8" font-family="Arial" font-size="14.00">canBranch</text>
<text text-anchor="middle" x="630.5" y="-15.8" font-family="Arial" font-size="14.00">(bool)</text>
</g>
<!-- fetch -->
<g id="node11" class="node">
<title>fetch</title>
<ellipse fill="none" stroke="black" cx="309.5" cy="-131.87" rx="38.19" ry="18"/>
<text text-anchor="middle" x="309.5" y="-128.17" font-family="Arial" font-size="14.00">Fetch()</text>
</g>
<!-- fetch&#45;&gt;inst_mem -->
<g id="edge9" class="edge">
<title>fetch&#45;&gt;inst_mem</title>
<path fill="none" stroke="navy" stroke-width="2" d="M309.5,-113.42C309.5,-97.8 309.5,-74.61 309.5,-56.33"/>
<polygon fill="navy" stroke="navy" stroke-width="2" points="313,-56.23 309.5,-46.23 306,-56.23 313,-56.23"/>
<text text-anchor="middle" x="326" y="-75.8" font-family="Times,serif" font-size="14.00">read</text>
</g>
<!-- decode -->
<g id="node12" class="node">
<title>decode</title>
<ellipse fill="none" stroke="black" cx="430.5" cy="-131.87" rx="46.59" ry="18"/>
<text text-anchor="middle" x="430.5" y="-128.17" font-family="Arial" font-size="14.00">Decode()</text>
</g>
<!-- fetch&#45;&gt;decode -->
<g id="edge7" class="edge">
<title>fetch&#45;&gt;decode</title>
<path fill="none" stroke="navy" stroke-width="2" d="M348.26,-131.87C356.63,-131.87 365.01,-131.87 373.38,-131.87"/>
<polygon fill="navy" stroke="navy" stroke-width="2" points="373.6,-135.37 383.6,-131.87 373.6,-128.37 373.6,-135.37"/>
</g>
<!-- execute -->
<g id="node13" class="node">
<title>execute</title>
<ellipse fill="none" stroke="black" cx="560.5" cy="-131.87" rx="48.19" ry="18"/>
<text text-anchor="middle" x="560.5" y="-128.17" font-family="Arial" font-size="14.00">Execute()</text>
</g>
<!-- decode&#45;&gt;execute -->
<g id="edge8" class="edge">
<title>decode&#45;&gt;execute</title>
<path fill="none" stroke="navy" stroke-width="2" d="M467.57,-120.86C482.42,-118.21 497.26,-117.68 512.11,-119.25"/>
<polygon fill="navy" stroke="navy" stroke-width="2" points="512,-122.77 522.38,-120.68 512.96,-115.84 512,-122.77"/>
</g>
<!-- decode&#45;&gt;execute -->
<g id="edge10" class="edge">
<title>decode&#45;&gt;execute</title>
<path fill="none" stroke="navy" stroke-width="2" d="M467.57,-142.88C482.42,-145.53 497.26,-146.06 512.11,-144.49"/>
<polygon fill="navy" stroke="navy" stroke-width="2" points="512.96,-147.9 522.38,-143.06 512,-140.97 512.96,-147.9"/>
</g>
<!-- execute&#45;&gt;regs -->
<g id="edge11" class="edge">
<title>execute&#45;&gt;regs</title>
<path fill="none" stroke="navy" stroke-width="2" d="M551.91,-113.88C544.95,-100.11 534.91,-80.24 526.24,-63.09"/>
<polygon fill="navy" stroke="navy" stroke-width="2" points="529.22,-61.23 521.59,-53.89 522.97,-64.39 529.22,-61.23"/>
</g>
<!-- execute&#45;&gt;status_reg -->
<g id="edge12" class="edge">
<title>execute&#45;&gt;status_reg</title>
<path fill="none" stroke="navy" stroke-width="2" d="M536,-116.25C510.8,-101.08 470.53,-76.48 436.5,-54 435.43,-53.29 434.35,-52.57 433.26,-51.84"/>
<polygon fill="navy" stroke="navy" stroke-width="2" points="435.08,-48.84 424.84,-46.1 431.13,-54.63 435.08,-48.84"/>
<text text-anchor="middle" x="503.5" y="-75.8" font-family="Times,serif" font-size="14.00">flags</text>
</g>
<!-- execute&#45;&gt;branch -->
<g id="edge13" class="edge">
<title>execute&#45;&gt;branch</title>
<path fill="none" stroke="navy" stroke-width="2" d="M571.75,-114.34C582.69,-98.26 599.5,-73.56 612.34,-54.69"/>
<polygon fill="navy" stroke="navy" stroke-width="2" points="615.37,-56.46 618.1,-46.22 609.58,-52.52 615.37,-56.46"/>
</g>
<!-- output -->
<g id="node15" class="node">
<title>output</title>
<path fill="none" stroke="black" d="M731.5,-45C731.5,-45 701.5,-45 701.5,-45 695.5,-45 689.5,-39 689.5,-33 689.5,-33 689.5,-21 689.5,-21 689.5,-15 695.5,-9 701.5,-9 701.5,-9 731.5,-9 731.5,-9 737.5,-9 743.5,-15 743.5,-21 743.5,-21 743.5,-33 743.5,-33 743.5,-39 737.5,-45 731.5,-45"/>
<text text-anchor="middle" x="716.5" y="-23.3" font-family="Arial" font-size="14.00">output</text>
</g>
<!-- execute&#45;&gt;output -->
<g id="edge14" class="edge">
<title>execute&#45;&gt;output</title>
<path fill="none" stroke="navy" stroke-width="2" stroke-dasharray="5,2" d="M584.66,-115.94C609.08,-100.73 647.77,-76.27 680.5,-54 681.9,-53.05 683.33,-52.06 684.77,-51.06"/>
<polygon fill="navy" stroke="navy" stroke-width="2" points="686.85,-53.88 693.01,-45.25 682.82,-48.16 686.85,-53.88"/>
</g>
<!-- dump -->
<g id="node14" class="node">
<title>dump</title>
<ellipse fill="none" stroke="black" cx="308.5" cy="-222.61" rx="37.45" ry="26.74"/>
<text text-anchor="middle" x="308.5" y="-226.41" font-family="Arial" font-size="14.00">Dump</text>
<text text-anchor="middle" x="308.5" y="-211.41" font-family="Arial" font-size="14.00">State</text>
</g>
</g>
</svg>
