<?xml version="1.0" encoding="UTF-8" standalone="no"?>
<!DOCTYPE svg PUBLIC "-//W3C//DTD SVG 1.1//EN"
 "http://www.w3.org/Graphics/SVG/1.1/DTD/svg11.dtd">
<!-- Generated by graphviz version 2.43.0 (0)
 -->
<!-- Title: VerilogHierarchy Pages: 1 -->
<svg width="950pt" height="221pt"
 viewBox="0.00 0.00 950.00 221.00" xmlns="http://www.w3.org/2000/svg" xmlns:xlink="http://www.w3.org/1999/xlink">
<g id="graph0" class="graph" transform="scale(1 1) rotate(0) translate(4 217)">
<title>VerilogHierarchy</title>
<polygon fill="white" stroke="transparent" points="-4,4 -4,-217 946,-217 946,4 -4,4"/>
<text text-anchor="middle" x="471" y="-194.6" font-family="Arial" font-size="18.00">Figure 7: Verilog Module Hierarchy</text>
<!-- Bold -->
<g id="node1" class="node">
<title>Bold</title>
<path fill="none" stroke="black" d="M364.5,-184.5C364.5,-184.5 334.5,-184.5 334.5,-184.5 328.5,-184.5 322.5,-178.5 322.5,-172.5 322.5,-172.5 322.5,-160.5 322.5,-160.5 322.5,-154.5 328.5,-148.5 334.5,-148.5 334.5,-148.5 364.5,-148.5 364.5,-148.5 370.5,-148.5 376.5,-154.5 376.5,-160.5 376.5,-160.5 376.5,-172.5 376.5,-172.5 376.5,-178.5 370.5,-184.5 364.5,-184.5"/>
<text text-anchor="middle" x="349.5" y="-162.8" font-family="Arial" font-size="14.00">Bold</text>
</g>
<!-- pipeline -->
<g id="node2" class="node">
<title>pipeline</title>
<path fill="none" stroke="black" d="M406.5,-148.5C406.5,-148.5 456.5,-148.5 456.5,-148.5 462.5,-148.5 468.5,-154.5 468.5,-160.5 468.5,-160.5 468.5,-172.5 468.5,-172.5 468.5,-178.5 462.5,-184.5 456.5,-184.5 456.5,-184.5 406.5,-184.5 406.5,-184.5 400.5,-184.5 394.5,-178.5 394.5,-172.5 394.5,-172.5 394.5,-160.5 394.5,-160.5 394.5,-154.5 400.5,-148.5 406.5,-148.5"/>
<text text-anchor="middle" x="431.5" y="-162.8" font-family="Arial" font-size="14.00">pipeline.v</text>
</g>
<!-- gprf -->
<g id="node3" class="node">
<title>gprf</title>
<path fill="none" stroke="black" d="M31.5,-73.5C31.5,-73.5 63.5,-73.5 63.5,-73.5 69.5,-73.5 75.5,-79.5 75.5,-85.5 75.5,-85.5 75.5,-99.5 75.5,-99.5 75.5,-105.5 69.5,-111.5 63.5,-111.5 63.5,-111.5 31.5,-111.5 31.5,-111.5 25.5,-111.5 19.5,-105.5 19.5,-99.5 19.5,-99.5 19.5,-85.5 19.5,-85.5 19.5,-79.5 25.5,-73.5 31.5,-73.5"/>
<text text-anchor="middle" x="47.5" y="-96.3" font-family="Arial" font-size="14.00">gprf.v</text>
<text text-anchor="middle" x="47.5" y="-81.3" font-family="Arial" font-size="14.00">(GPR)</text>
</g>
<!-- pipeline&#45;&gt;gprf -->
<g id="edge2" class="edge">
<title>pipeline&#45;&gt;gprf</title>
<path fill="none" stroke="navy" stroke-width="2" d="M394.34,-150.5C391.37,-149.57 388.4,-148.72 385.5,-148 257.28,-116.29 218.01,-146.45 90.5,-112 88.83,-111.55 87.14,-111.04 85.44,-110.5"/>
<polygon fill="navy" stroke="navy" stroke-width="2" points="86.37,-107.11 75.77,-107.01 83.99,-113.7 86.37,-107.11"/>
</g>
<!-- alu -->
<g id="node4" class="node">
<title>alu</title>
<path fill="none" stroke="black" d="M111.5,-73.5C111.5,-73.5 141.5,-73.5 141.5,-73.5 147.5,-73.5 153.5,-79.5 153.5,-85.5 153.5,-85.5 153.5,-99.5 153.5,-99.5 153.5,-105.5 147.5,-111.5 141.5,-111.5 141.5,-111.5 111.5,-111.5 111.5,-111.5 105.5,-111.5 99.5,-105.5 99.5,-99.5 99.5,-99.5 99.5,-85.5 99.5,-85.5 99.5,-79.5 105.5,-73.5 111.5,-73.5"/>
<text text-anchor="middle" x="126.5" y="-96.3" font-family="Arial" font-size="14.00">alu.v</text>
<text text-anchor="middle" x="126.5" y="-81.3" font-family="Arial" font-size="14.00">(ALU)</text>
</g>
<!-- pipeline&#45;&gt;alu -->
<g id="edge1" class="edge">
<title>pipeline&#45;&gt;alu</title>
<path fill="none" stroke="navy" stroke-width="2" d="M394.3,-150.64C391.34,-149.68 388.39,-148.78 385.5,-148 291.56,-122.57 262.88,-139.43 169.5,-112 167.57,-111.43 165.61,-110.8 163.65,-110.13"/>
<polygon fill="navy" stroke="navy" stroke-width="2" points="164.49,-106.7 153.9,-106.45 162.02,-113.25 164.49,-106.7"/>
</g>
<!-- mem -->
<g id="node5" class="node">
<title>mem</title>
<path fill="none" stroke="black" d="M191,-73.5C191,-73.5 274,-73.5 274,-73.5 280,-73.5 286,-79.5 286,-85.5 286,-85.5 286,-99.5 286,-99.5 286,-105.5 280,-111.5 274,-111.5 274,-111.5 191,-111.5 191,-111.5 185,-111.5 179,-105.5 179,-99.5 179,-99.5 179,-85.5 179,-85.5 179,-79.5 185,-73.5 191,-73.5"/>
<text text-anchor="middle" x="232.5" y="-96.3" font-family="Arial" font-size="14.00">mainMemory.v</text>
<text text-anchor="middle" x="232.5" y="-81.3" font-family="Arial" font-size="14.00">(Memory)</text>
</g>
<!-- pipeline&#45;&gt;mem -->
<g id="edge3" class="edge">
<title>pipeline&#45;&gt;mem</title>
<path fill="none" stroke="navy" stroke-width="2" d="M394.37,-151.3C391.37,-150.17 388.39,-149.06 385.5,-148 355.32,-136.89 321.66,-124.86 293.62,-114.94"/>
<polygon fill="navy" stroke="navy" stroke-width="2" points="294.54,-111.55 283.95,-111.52 292.21,-118.15 294.54,-111.55"/>
</g>
<!-- pc -->
<g id="node6" class="node">
<title>pc</title>
<path fill="none" stroke="black" d="M316,-74.5C316,-74.5 417,-74.5 417,-74.5 423,-74.5 429,-80.5 429,-86.5 429,-86.5 429,-98.5 429,-98.5 429,-104.5 423,-110.5 417,-110.5 417,-110.5 316,-110.5 316,-110.5 310,-110.5 304,-104.5 304,-98.5 304,-98.5 304,-86.5 304,-86.5 304,-80.5 310,-74.5 316,-74.5"/>
<text text-anchor="middle" x="366.5" y="-88.8" font-family="Arial" font-size="14.00">programCounter.v</text>
</g>
<!-- pipeline&#45;&gt;pc -->
<g id="edge4" class="edge">
<title>pipeline&#45;&gt;pc</title>
<path fill="none" stroke="navy" stroke-width="2" d="M416.1,-148.44C408.04,-139.51 398.02,-128.42 389.1,-118.54"/>
<polygon fill="navy" stroke="navy" stroke-width="2" points="391.54,-116.02 382.25,-110.94 386.35,-120.71 391.54,-116.02"/>
</g>
<!-- sp -->
<g id="node7" class="node">
<title>sp</title>
<path fill="none" stroke="black" d="M459,-74.5C459,-74.5 536,-74.5 536,-74.5 542,-74.5 548,-80.5 548,-86.5 548,-86.5 548,-98.5 548,-98.5 548,-104.5 542,-110.5 536,-110.5 536,-110.5 459,-110.5 459,-110.5 453,-110.5 447,-104.5 447,-98.5 447,-98.5 447,-86.5 447,-86.5 447,-80.5 453,-74.5 459,-74.5"/>
<text text-anchor="middle" x="497.5" y="-88.8" font-family="Arial" font-size="14.00">stackPointer.v</text>
</g>
<!-- pipeline&#45;&gt;sp -->
<g id="edge5" class="edge">
<title>pipeline&#45;&gt;sp</title>
<path fill="none" stroke="navy" stroke-width="2" d="M447.14,-148.44C455.32,-139.51 465.49,-128.42 474.55,-118.54"/>
<polygon fill="navy" stroke="navy" stroke-width="2" points="477.34,-120.68 481.51,-110.94 472.18,-115.95 477.34,-120.68"/>
</g>
<!-- si -->
<g id="node8" class="node">
<title>si</title>
<path fill="none" stroke="black" d="M578,-73.5C578,-73.5 663,-73.5 663,-73.5 669,-73.5 675,-79.5 675,-85.5 675,-85.5 675,-99.5 675,-99.5 675,-105.5 669,-111.5 663,-111.5 663,-111.5 578,-111.5 578,-111.5 572,-111.5 566,-105.5 566,-99.5 566,-99.5 566,-85.5 566,-85.5 566,-79.5 572,-73.5 578,-73.5"/>
<text text-anchor="middle" x="620.5" y="-96.3" font-family="Arial" font-size="14.00">indexRegister.v</text>
<text text-anchor="middle" x="620.5" y="-81.3" font-family="Arial" font-size="14.00">(SI)</text>
</g>
<!-- pipeline&#45;&gt;si -->
<g id="edge6" class="edge">
<title>pipeline&#45;&gt;si</title>
<path fill="none" stroke="navy" stroke-width="2" d="M468.84,-151.28C495.83,-140.99 532.77,-126.92 563.44,-115.24"/>
<polygon fill="navy" stroke="navy" stroke-width="2" points="565.06,-118.36 573.16,-111.53 562.57,-111.82 565.06,-118.36"/>
</g>
<!-- di -->
<g id="node9" class="node">
<title>di</title>
<path fill="none" stroke="black" d="M705,-73.5C705,-73.5 790,-73.5 790,-73.5 796,-73.5 802,-79.5 802,-85.5 802,-85.5 802,-99.5 802,-99.5 802,-105.5 796,-111.5 790,-111.5 790,-111.5 705,-111.5 705,-111.5 699,-111.5 693,-105.5 693,-99.5 693,-99.5 693,-85.5 693,-85.5 693,-79.5 699,-73.5 705,-73.5"/>
<text text-anchor="middle" x="747.5" y="-96.3" font-family="Arial" font-size="14.00">indexRegister.v</text>
<text text-anchor="middle" x="747.5" y="-81.3" font-family="Arial" font-size="14.00">(DI)</text>
</g>
<!-- pipeline&#45;&gt;di -->
<g id="edge7" class="edge">
<title>pipeline&#45;&gt;di</title>
<path fill="none" stroke="navy" stroke-width="2" d="M468.71,-150.66C471.66,-149.7 474.62,-148.79 477.5,-148 564.06,-124.21 591.11,-132.32 682.81,-112"/>
<polygon fill="navy" stroke="navy" stroke-width="2" points="683.81,-115.36 692.79,-109.74 682.26,-108.54 683.81,-115.36"/>
</g>
<!-- ret -->
<g id="node10" class="node">
<title>ret</title>
<path fill="none" stroke="black" d="M832.5,-74.5C832.5,-74.5 920.5,-74.5 920.5,-74.5 926.5,-74.5 932.5,-80.5 932.5,-86.5 932.5,-86.5 932.5,-98.5 932.5,-98.5 932.5,-104.5 926.5,-110.5 920.5,-110.5 920.5,-110.5 832.5,-110.5 832.5,-110.5 826.5,-110.5 820.5,-104.5 820.5,-98.5 820.5,-98.5 820.5,-86.5 820.5,-86.5 820.5,-80.5 826.5,-74.5 832.5,-74.5"/>
<text text-anchor="middle" x="876.5" y="-88.8" font-family="Arial" font-size="14.00">returnRegister.v</text>
</g>
<!-- pipeline&#45;&gt;ret -->
<g id="edge8" class="edge">
<title>pipeline&#45;&gt;ret</title>
<path fill="none" stroke="navy" stroke-width="2" d="M468.65,-150.45C471.62,-149.53 474.59,-148.7 477.5,-148 619.57,-113.92 663.09,-139.39 810.41,-112.02"/>
<polygon fill="navy" stroke="navy" stroke-width="2" points="811.1,-115.45 820.27,-110.14 809.79,-108.57 811.1,-115.45"/>
</g>
<!-- tb_grpf -->
<g id="node15" class="node">
<title>tb_grpf</title>
<path fill="none" stroke="black" d="M12,-0.5C12,-0.5 57,-0.5 57,-0.5 63,-0.5 69,-6.5 69,-12.5 69,-12.5 69,-24.5 69,-24.5 69,-30.5 63,-36.5 57,-36.5 57,-36.5 12,-36.5 12,-36.5 6,-36.5 0,-30.5 0,-24.5 0,-24.5 0,-12.5 0,-12.5 0,-6.5 6,-0.5 12,-0.5"/>
<text text-anchor="middle" x="34.5" y="-14.8" font-family="Arial" font-size="14.00">gprf_tb.v</text>
</g>
<!-- gprf&#45;&gt;tb_grpf -->
<g id="edge9" class="edge">
<title>gprf&#45;&gt;tb_grpf</title>
<path fill="none" stroke="navy" stroke-width="2" d="M44.22,-73.33C42.77,-65.31 41.04,-55.7 39.44,-46.84"/>
<polygon fill="navy" stroke="navy" stroke-width="2" points="42.87,-46.14 37.64,-36.92 35.98,-47.38 42.87,-46.14"/>
</g>
<!-- tb_alu -->
<g id="node11" class="node">
<title>tb_alu</title>
<path fill="none" stroke="black" d="M99.5,-0.5C99.5,-0.5 139.5,-0.5 139.5,-0.5 145.5,-0.5 151.5,-6.5 151.5,-12.5 151.5,-12.5 151.5,-24.5 151.5,-24.5 151.5,-30.5 145.5,-36.5 139.5,-36.5 139.5,-36.5 99.5,-36.5 99.5,-36.5 93.5,-36.5 87.5,-30.5 87.5,-24.5 87.5,-24.5 87.5,-12.5 87.5,-12.5 87.5,-6.5 93.5,-0.5 99.5,-0.5"/>
<text text-anchor="middle" x="119.5" y="-14.8" font-family="Arial" font-size="14.00">alu_tb.v</text>
</g>
<!-- alu&#45;&gt;tb_alu -->
<g id="edge10" class="edge">
<title>alu&#45;&gt;tb_alu</title>
<path fill="none" stroke="navy" stroke-width="2" d="M124.73,-73.33C123.96,-65.39 123.04,-55.91 122.19,-47.13"/>
<polygon fill="navy" stroke="navy" stroke-width="2" points="125.64,-46.53 121.19,-36.92 118.68,-47.21 125.64,-46.53"/>
</g>
<!-- tb_mem -->
<g id="node14" class="node">
<title>tb_mem</title>
<path fill="none" stroke="black" d="M181.5,-0.5C181.5,-0.5 283.5,-0.5 283.5,-0.5 289.5,-0.5 295.5,-6.5 295.5,-12.5 295.5,-12.5 295.5,-24.5 295.5,-24.5 295.5,-30.5 289.5,-36.5 283.5,-36.5 283.5,-36.5 181.5,-36.5 181.5,-36.5 175.5,-36.5 169.5,-30.5 169.5,-24.5 169.5,-24.5 169.5,-12.5 169.5,-12.5 169.5,-6.5 175.5,-0.5 181.5,-0.5"/>
<text text-anchor="middle" x="232.5" y="-14.8" font-family="Arial" font-size="14.00">mainMemory_tb.v</text>
</g>
<!-- mem&#45;&gt;tb_mem -->
<g id="edge13" class="edge">
<title>mem&#45;&gt;tb_mem</title>
<path fill="none" stroke="navy" stroke-width="2" d="M232.5,-73.33C232.5,-65.39 232.5,-55.91 232.5,-47.13"/>
<polygon fill="navy" stroke="navy" stroke-width="2" points="236,-46.92 232.5,-36.92 229,-46.92 236,-46.92"/>
</g>
<!-- tb_pc -->
<g id="node12" class="node">
<title>tb_pc</title>
<path fill="none" stroke="black" d="M326,-0.5C326,-0.5 447,-0.5 447,-0.5 453,-0.5 459,-6.5 459,-12.5 459,-12.5 459,-24.5 459,-24.5 459,-30.5 453,-36.5 447,-36.5 447,-36.5 326,-36.5 326,-36.5 320,-36.5 314,-30.5 314,-24.5 314,-24.5 314,-12.5 314,-12.5 314,-6.5 320,-0.5 326,-0.5"/>
<text text-anchor="middle" x="386.5" y="-14.8" font-family="Arial" font-size="14.00">programCounter_tb.v</text>
</g>
<!-- pc&#45;&gt;tb_pc -->
<g id="edge11" class="edge">
<title>pc&#45;&gt;tb_pc</title>
<path fill="none" stroke="navy" stroke-width="2" d="M371.24,-74.44C373.55,-66.13 376.38,-55.94 378.97,-46.61"/>
<polygon fill="navy" stroke="navy" stroke-width="2" points="382.35,-47.51 381.66,-36.94 375.61,-45.64 382.35,-47.51"/>
</g>
<!-- tb_sp -->
<g id="node13" class="node">
<title>tb_sp</title>
<path fill="none" stroke="black" d="M489.5,-0.5C489.5,-0.5 585.5,-0.5 585.5,-0.5 591.5,-0.5 597.5,-6.5 597.5,-12.5 597.5,-12.5 597.5,-24.5 597.5,-24.5 597.5,-30.5 591.5,-36.5 585.5,-36.5 585.5,-36.5 489.5,-36.5 489.5,-36.5 483.5,-36.5 477.5,-30.5 477.5,-24.5 477.5,-24.5 477.5,-12.5 477.5,-12.5 477.5,-6.5 483.5,-0.5 489.5,-0.5"/>
<text text-anchor="middle" x="537.5" y="-14.8" font-family="Arial" font-size="14.00">stackPointer_tb.v</text>
</g>
<!-- sp&#45;&gt;tb_sp -->
<g id="edge12" class="edge">
<title>sp&#45;&gt;tb_sp</title>
<path fill="none" stroke="navy" stroke-width="2" d="M506.98,-74.44C511.74,-65.87 517.62,-55.29 522.94,-45.72"/>
<polygon fill="navy" stroke="navy" stroke-width="2" points="526.01,-47.38 527.81,-36.94 519.89,-43.98 526.01,-47.38"/>
</g>
<!-- tb_ir -->
<g id="node16" class="node">
<title>tb_ir</title>
<path fill="none" stroke="black" d="M652.5,-0.5C652.5,-0.5 756.5,-0.5 756.5,-0.5 762.5,-0.5 768.5,-6.5 768.5,-12.5 768.5,-12.5 768.5,-24.5 768.5,-24.5 768.5,-30.5 762.5,-36.5 756.5,-36.5 756.5,-36.5 652.5,-36.5 652.5,-36.5 646.5,-36.5 640.5,-30.5 640.5,-24.5 640.5,-24.5 640.5,-12.5 640.5,-12.5 640.5,-6.5 646.5,-0.5 652.5,-0.5"/>
<text text-anchor="middle" x="704.5" y="-14.8" font-family="Arial" font-size="14.00">indexRegister_tb.v</text>
</g>
<!-- si&#45;&gt;tb_ir -->
<g id="edge14" class="edge">
<title>si&#45;&gt;tb_ir</title>
<path fill="none" stroke="navy" stroke-width="2" d="M641.7,-73.33C652.36,-64.19 665.41,-53 676.85,-43.2"/>
<polygon fill="navy" stroke="navy" stroke-width="2" points="679.15,-45.84 684.47,-36.67 674.6,-40.52 679.15,-45.84"/>
</g>
<!-- di&#45;&gt;tb_ir -->
<g id="edge15" class="edge">
<title>di&#45;&gt;tb_ir</title>
<path fill="none" stroke="navy" stroke-width="2" d="M736.65,-73.33C731.65,-64.96 725.62,-54.86 720.14,-45.69"/>
<polygon fill="navy" stroke="navy" stroke-width="2" points="723.03,-43.71 714.9,-36.92 717.02,-47.3 723.03,-43.71"/>
</g>
<!-- tb_rr -->
<g id="node17" class="node">
<title>tb_rr</title>
<path fill="none" stroke="black" d="M823,-0.5C823,-0.5 930,-0.5 930,-0.5 936,-0.5 942,-6.5 942,-12.5 942,-12.5 942,-24.5 942,-24.5 942,-30.5 936,-36.5 930,-36.5 930,-36.5 823,-36.5 823,-36.5 817,-36.5 811,-30.5 811,-24.5 811,-24.5 811,-12.5 811,-12.5 811,-6.5 817,-0.5 823,-0.5"/>
<text text-anchor="middle" x="876.5" y="-14.8" font-family="Arial" font-size="14.00">returnRegister_tb.v</text>
</g>
<!-- ret&#45;&gt;tb_rr -->
<g id="edge16" class="edge">
<title>ret&#45;&gt;tb_rr</title>
<path fill="none" stroke="navy" stroke-width="2" d="M876.5,-74.44C876.5,-66.31 876.5,-56.38 876.5,-47.2"/>
<polygon fill="navy" stroke="navy" stroke-width="2" points="880,-46.94 876.5,-36.94 873,-46.94 880,-46.94"/>
</g>
<!-- tb_pc2mem -->
<g id="node18" class="node">
<title>tb_pc2mem</title>
<path fill="none" stroke="black" d="M499,-148.5C499,-148.5 574,-148.5 574,-148.5 580,-148.5 586,-154.5 586,-160.5 586,-160.5 586,-172.5 586,-172.5 586,-178.5 580,-184.5 574,-184.5 574,-184.5 499,-184.5 499,-184.5 493,-184.5 487,-178.5 487,-172.5 487,-172.5 487,-160.5 487,-160.5 487,-154.5 493,-148.5 499,-148.5"/>
<text text-anchor="middle" x="536.5" y="-162.8" font-family="Arial" font-size="14.00">pc2mem_tb.v</text>
</g>
</g>
</svg>
