<?xml version="1.0" encoding="UTF-8" standalone="no"?>
<!DOCTYPE svg PUBLIC "-//W3C//DTD SVG 1.1//EN"
 "http://www.w3.org/Graphics/SVG/1.1/DTD/svg11.dtd">
<!-- Generated by graphviz version 2.43.0 (0)
 -->
<!-- Title: LogisimHierarchy Pages: 1 -->
<svg width="591pt" height="254pt"
 viewBox="0.00 0.00 591.00 254.00" xmlns="http://www.w3.org/2000/svg" xmlns:xlink="http://www.w3.org/1999/xlink">
<g id="graph0" class="graph" transform="scale(1 1) rotate(0) translate(4 250)">
<title>LogisimHierarchy</title>
<polygon fill="white" stroke="transparent" points="-4,4 -4,-250 587,-250 587,4 -4,4"/>
<text text-anchor="middle" x="291.5" y="-227.6" font-family="Arial" font-size="18.00">Figure 8: Logisim Circuit Files</text>
<!-- Bold -->
<g id="node1" class="node">
<title>Bold</title>
<path fill="none" stroke="black" d="M254.5,-208.5C254.5,-208.5 224.5,-208.5 224.5,-208.5 218.5,-208.5 212.5,-202.5 212.5,-196.5 212.5,-196.5 212.5,-184.5 212.5,-184.5 212.5,-178.5 218.5,-172.5 224.5,-172.5 224.5,-172.5 254.5,-172.5 254.5,-172.5 260.5,-172.5 266.5,-178.5 266.5,-184.5 266.5,-184.5 266.5,-196.5 266.5,-196.5 266.5,-202.5 260.5,-208.5 254.5,-208.5"/>
<text text-anchor="middle" x="239.5" y="-186.8" font-family="Arial" font-size="14.00">Bold</text>
</g>
<!-- alu_circ -->
<g id="node2" class="node">
<title>alu_circ</title>
<path fill="none" stroke="black" d="M52,-72.5C52,-72.5 229,-72.5 229,-72.5 235,-72.5 241,-78.5 241,-84.5 241,-84.5 241,-114.5 241,-114.5 241,-120.5 235,-126.5 229,-126.5 229,-126.5 52,-126.5 52,-126.5 46,-126.5 40,-120.5 40,-114.5 40,-114.5 40,-84.5 40,-84.5 40,-78.5 46,-72.5 52,-72.5"/>
<text text-anchor="middle" x="140.5" y="-111.3" font-family="Arial" font-size="14.00">Arithmetic_and_Logic_unit.circ</text>
<text text-anchor="middle" x="140.5" y="-80.3" font-family="Arial" font-size="14.00">ALU Implementation</text>
</g>
<!-- adder -->
<g id="node6" class="node">
<title>adder</title>
<path fill="none" stroke="black" d="M107,-36C107,-36 12,-36 12,-36 6,-36 0,-30 0,-24 0,-24 0,-12 0,-12 0,-6 6,0 12,0 12,0 107,0 107,0 113,0 119,-6 119,-12 119,-12 119,-24 119,-24 119,-30 113,-36 107,-36"/>
<text text-anchor="middle" x="59.5" y="-14.3" font-family="Arial" font-size="14.00">Adder/Subtractor</text>
</g>
<!-- alu_circ&#45;&gt;adder -->
<g id="edge1" class="edge">
<title>alu_circ&#45;&gt;adder</title>
<path fill="none" stroke="navy" stroke-width="2" d="M113.98,-72.47C104.37,-63.04 93.56,-52.43 84.12,-43.16"/>
<polygon fill="navy" stroke="navy" stroke-width="2" points="86.48,-40.57 76.89,-36.07 81.57,-45.57 86.48,-40.57"/>
</g>
<!-- mux -->
<g id="node7" class="node">
<title>mux</title>
<path fill="none" stroke="black" d="M179.5,-36C179.5,-36 149.5,-36 149.5,-36 143.5,-36 137.5,-30 137.5,-24 137.5,-24 137.5,-12 137.5,-12 137.5,-6 143.5,0 149.5,0 149.5,0 179.5,0 179.5,0 185.5,0 191.5,-6 191.5,-12 191.5,-12 191.5,-24 191.5,-24 191.5,-30 185.5,-36 179.5,-36"/>
<text text-anchor="middle" x="164.5" y="-14.3" font-family="Arial" font-size="14.00">MUX</text>
</g>
<!-- alu_circ&#45;&gt;mux -->
<g id="edge2" class="edge">
<title>alu_circ&#45;&gt;mux</title>
<path fill="none" stroke="navy" stroke-width="2" d="M148.36,-72.47C150.95,-63.88 153.84,-54.31 156.45,-45.67"/>
<polygon fill="navy" stroke="navy" stroke-width="2" points="159.81,-46.65 159.35,-36.07 153.11,-44.63 159.81,-46.65"/>
</g>
<!-- reg_circ -->
<g id="node3" class="node">
<title>reg_circ</title>
<path fill="none" stroke="black" d="M271.5,-72.5C271.5,-72.5 427.5,-72.5 427.5,-72.5 433.5,-72.5 439.5,-78.5 439.5,-84.5 439.5,-84.5 439.5,-114.5 439.5,-114.5 439.5,-120.5 433.5,-126.5 427.5,-126.5 427.5,-126.5 271.5,-126.5 271.5,-126.5 265.5,-126.5 259.5,-120.5 259.5,-114.5 259.5,-114.5 259.5,-84.5 259.5,-84.5 259.5,-78.5 265.5,-72.5 271.5,-72.5"/>
<text text-anchor="middle" x="349.5" y="-111.3" font-family="Arial" font-size="14.00">registers_and_memory.circ</text>
<text text-anchor="middle" x="349.5" y="-80.3" font-family="Arial" font-size="14.00">GPR, PC, SP, SI, DI</text>
</g>
<!-- reg_file -->
<g id="node8" class="node">
<title>reg_file</title>
<path fill="none" stroke="black" d="M336.5,-36C336.5,-36 268.5,-36 268.5,-36 262.5,-36 256.5,-30 256.5,-24 256.5,-24 256.5,-12 256.5,-12 256.5,-6 262.5,0 268.5,0 268.5,0 336.5,0 336.5,0 342.5,0 348.5,-6 348.5,-12 348.5,-12 348.5,-24 348.5,-24 348.5,-30 342.5,-36 336.5,-36"/>
<text text-anchor="middle" x="302.5" y="-14.3" font-family="Arial" font-size="14.00">Register File</text>
</g>
<!-- reg_circ&#45;&gt;reg_file -->
<g id="edge3" class="edge">
<title>reg_circ&#45;&gt;reg_file</title>
<path fill="none" stroke="navy" stroke-width="2" d="M334.11,-72.47C328.86,-63.6 323,-53.68 317.77,-44.83"/>
<polygon fill="navy" stroke="navy" stroke-width="2" points="320.69,-42.89 312.59,-36.07 314.67,-46.46 320.69,-42.89"/>
</g>
<!-- counter -->
<g id="node9" class="node">
<title>counter</title>
<path fill="none" stroke="black" d="M420,-36C420,-36 379,-36 379,-36 373,-36 367,-30 367,-24 367,-24 367,-12 367,-12 367,-6 373,0 379,0 379,0 420,0 420,0 426,0 432,-6 432,-12 432,-12 432,-24 432,-24 432,-30 426,-36 420,-36"/>
<text text-anchor="middle" x="399.5" y="-14.3" font-family="Arial" font-size="14.00">Counter</text>
</g>
<!-- reg_circ&#45;&gt;counter -->
<g id="edge4" class="edge">
<title>reg_circ&#45;&gt;counter</title>
<path fill="none" stroke="navy" stroke-width="2" d="M365.87,-72.47C371.51,-63.5 377.82,-53.47 383.43,-44.55"/>
<polygon fill="navy" stroke="navy" stroke-width="2" points="386.4,-46.4 388.77,-36.07 380.48,-42.67 386.4,-46.4"/>
</g>
<!-- pipe_circ -->
<g id="node4" class="node">
<title>pipe_circ</title>
<path fill="none" stroke="black" d="M470,-72.5C470,-72.5 571,-72.5 571,-72.5 577,-72.5 583,-78.5 583,-84.5 583,-84.5 583,-114.5 583,-114.5 583,-120.5 577,-126.5 571,-126.5 571,-126.5 470,-126.5 470,-126.5 464,-126.5 458,-120.5 458,-114.5 458,-114.5 458,-84.5 458,-84.5 458,-78.5 464,-72.5 470,-72.5"/>
<text text-anchor="middle" x="520.5" y="-111.3" font-family="Arial" font-size="14.00">pipeline.circ</text>
<text text-anchor="middle" x="520.5" y="-80.3" font-family="Arial" font-size="14.00">Pipeline Registers</text>
</g>
<!-- pl_reg -->
<g id="node10" class="node">
<title>pl_reg</title>
<path fill="none" stroke="black" d="M555,-36C555,-36 486,-36 486,-36 480,-36 474,-30 474,-24 474,-24 474,-12 474,-12 474,-6 480,0 486,0 486,0 555,0 555,0 561,0 567,-6 567,-12 567,-12 567,-24 567,-24 567,-30 561,-36 555,-36"/>
<text text-anchor="middle" x="520.5" y="-14.3" font-family="Arial" font-size="14.00">Pipeline Reg</text>
</g>
<!-- pipe_circ&#45;&gt;pl_reg -->
<g id="edge5" class="edge">
<title>pipe_circ&#45;&gt;pl_reg</title>
<path fill="none" stroke="navy" stroke-width="2" d="M520.5,-72.47C520.5,-64.06 520.5,-54.72 520.5,-46.23"/>
<polygon fill="navy" stroke="navy" stroke-width="2" points="524,-46.07 520.5,-36.07 517,-46.07 524,-46.07"/>
</g>
<!-- cpu_circ -->
<g id="node5" class="node">
<title>cpu_circ</title>
<path fill="none" stroke="black" d="M296.5,-163.5C296.5,-163.5 402.5,-163.5 402.5,-163.5 408.5,-163.5 414.5,-169.5 414.5,-175.5 414.5,-175.5 414.5,-205.5 414.5,-205.5 414.5,-211.5 408.5,-217.5 402.5,-217.5 402.5,-217.5 296.5,-217.5 296.5,-217.5 290.5,-217.5 284.5,-211.5 284.5,-205.5 284.5,-205.5 284.5,-175.5 284.5,-175.5 284.5,-169.5 290.5,-163.5 296.5,-163.5"/>
<text text-anchor="middle" x="349.5" y="-202.3" font-family="Arial" font-size="14.00">Ra8_prototype.circ</text>
<text text-anchor="middle" x="349.5" y="-171.3" font-family="Arial" font-size="14.00">Complete CPU</text>
</g>
<!-- cpu_circ&#45;&gt;alu_circ -->
<g id="edge6" class="edge">
<title>cpu_circ&#45;&gt;alu_circ</title>
<path fill="none" stroke="navy" stroke-width="2" d="M288.21,-163.4C264.07,-153.12 236.2,-141.25 211.21,-130.61"/>
<polygon fill="navy" stroke="navy" stroke-width="2" points="212.37,-127.3 201.79,-126.6 209.62,-133.74 212.37,-127.3"/>
</g>
<!-- cpu_circ&#45;&gt;reg_circ -->
<g id="edge7" class="edge">
<title>cpu_circ&#45;&gt;reg_circ</title>
<path fill="none" stroke="navy" stroke-width="2" d="M349.5,-163.28C349.5,-154.95 349.5,-145.59 349.5,-136.68"/>
<polygon fill="navy" stroke="navy" stroke-width="2" points="353,-136.53 349.5,-126.53 346,-136.53 353,-136.53"/>
</g>
<!-- cpu_circ&#45;&gt;pipe_circ -->
<g id="edge8" class="edge">
<title>cpu_circ&#45;&gt;pipe_circ</title>
<path fill="none" stroke="navy" stroke-width="2" d="M399.88,-163.28C419.19,-153.23 441.39,-141.68 461.44,-131.24"/>
<polygon fill="navy" stroke="navy" stroke-width="2" points="463.22,-134.26 470.48,-126.53 459.99,-128.05 463.22,-134.26"/>
</g>
</g>
</svg>
