<?xml version="1.0" encoding="UTF-8" standalone="no"?>
<!DOCTYPE svg PUBLIC "-//W3C//DTD SVG 1.1//EN"
 "http://www.w3.org/Graphics/SVG/1.1/DTD/svg11.dtd">
<!-- Generated by graphviz version 2.43.0 (0)
 -->
<!-- Title: DFD Pages: 1 -->
<svg width="930pt" height="258pt"
 viewBox="0.00 0.00 930.17 258.00" xmlns="http://www.w3.org/2000/svg" xmlns:xlink="http://www.w3.org/1999/xlink">
<g id="graph0" class="graph" transform="scale(1 1) rotate(0) translate(4 254)">
<title>DFD</title>
<polygon fill="white" stroke="transparent" points="-4,4 -4,-254 926.17,-254 926.17,4 -4,4"/>
<text text-anchor="middle" x="461.08" y="-231.6" font-family="Arial" font-size="18.00">Figure 9: Data Flow Diagram (Level 1)</text>
<!-- Bold -->
<g id="node1" class="node">
<title>Bold</title>
<path fill="none" stroke="black" d="M44.25,-36C44.25,-36 14.25,-36 14.25,-36 8.25,-36 2.25,-30 2.25,-24 2.25,-24 2.25,-12 2.25,-12 2.25,-6 8.25,0 14.25,0 14.25,0 44.25,0 44.25,0 50.25,0 56.25,-6 56.25,-12 56.25,-12 56.25,-24 56.25,-24 56.25,-30 50.25,-36 44.25,-36"/>
<text text-anchor="middle" x="29.25" y="-14.3" font-family="Arial" font-size="14.00">Bold</text>
</g>
<!-- user -->
<g id="node2" class="node">
<title>user</title>
<ellipse fill="none" stroke="black" cx="29.25" cy="-72" rx="29.5" ry="18"/>
<text text-anchor="middle" x="29.25" y="-68.3" font-family="Arial" font-size="14.00">User</text>
</g>
<!-- asm_file -->
<g id="node3" class="node">
<title>asm_file</title>
<path fill="none" stroke="black" d="M106.49,-80C106.49,-80 158.49,-80 158.49,-80 164.49,-80 170.49,-86 170.49,-92 170.49,-92 170.49,-106 170.49,-106 170.49,-112 164.49,-118 158.49,-118 158.49,-118 106.49,-118 106.49,-118 100.49,-118 94.49,-112 94.49,-106 94.49,-106 94.49,-92 94.49,-92 94.49,-86 100.49,-80 106.49,-80"/>
<text text-anchor="middle" x="132.49" y="-102.8" font-family="Arial" font-size="14.00">Assembly</text>
<text text-anchor="middle" x="132.49" y="-87.8" font-family="Arial" font-size="14.00">Source</text>
</g>
<!-- user&#45;&gt;asm_file -->
<g id="edge1" class="edge">
<title>user&#45;&gt;asm_file</title>
<path fill="none" stroke="navy" stroke-width="2" d="M56.32,-78.95C64.93,-81.25 74.79,-83.88 84.48,-86.46"/>
<polygon fill="navy" stroke="navy" stroke-width="2" points="83.88,-89.92 94.44,-89.12 85.68,-83.16 83.88,-89.92"/>
</g>
<!-- assembler -->
<g id="node7" class="node">
<title>assembler</title>
<path fill="none" stroke="black" d="M334.48,-122.97C334.48,-122.97 334.48,-131.03 334.48,-131.03 334.48,-135.05 330.84,-140.79 327.19,-142.5 327.19,-142.5 305.45,-152.73 305.45,-152.73 301.81,-154.44 294.14,-156.16 290.11,-156.16 290.11,-156.16 254.86,-156.16 254.86,-156.16 250.84,-156.16 243.17,-154.44 239.53,-152.73 239.53,-152.73 217.79,-142.5 217.79,-142.5 214.14,-140.79 210.5,-135.05 210.5,-131.03 210.5,-131.03 210.5,-122.97 210.5,-122.97 210.5,-118.95 214.14,-113.21 217.79,-111.5 217.79,-111.5 239.53,-101.27 239.53,-101.27 243.17,-99.56 250.84,-97.84 254.86,-97.84 254.86,-97.84 290.11,-97.84 290.11,-97.84 294.14,-97.84 301.81,-99.56 305.45,-101.27 305.45,-101.27 327.19,-111.5 327.19,-111.5 330.84,-113.21 334.48,-118.95 334.48,-122.97"/>
<path fill="none" stroke="black" d="M338.48,-122.12C338.48,-122.12 338.48,-131.88 338.48,-131.88 338.48,-136.75 334.07,-143.7 329.66,-145.78 329.66,-145.78 307.88,-156.02 307.88,-156.02 303.47,-158.09 294.18,-160.17 289.31,-160.17 289.31,-160.17 255.67,-160.17 255.67,-160.17 250.8,-160.17 241.51,-158.09 237.1,-156.02 237.1,-156.02 215.32,-145.78 215.32,-145.78 210.91,-143.7 206.5,-136.75 206.5,-131.88 206.5,-131.88 206.5,-122.12 206.5,-122.12 206.5,-117.25 210.91,-110.3 215.32,-108.22 215.32,-108.22 237.1,-97.98 237.1,-97.98 241.51,-95.91 250.8,-93.83 255.67,-93.83 255.67,-93.83 289.31,-93.83 289.31,-93.83 294.18,-93.83 303.47,-95.91 307.88,-97.98 307.88,-97.98 329.66,-108.22 329.66,-108.22 334.07,-110.3 338.48,-117.25 338.48,-122.12"/>
<text text-anchor="middle" x="272.49" y="-130.8" font-family="Arial" font-size="14.00">Assembler</text>
<text text-anchor="middle" x="272.49" y="-115.8" font-family="Arial" font-size="14.00">(lex/yacc)</text>
</g>
<!-- asm_file&#45;&gt;assembler -->
<g id="edge2" class="edge">
<title>asm_file&#45;&gt;assembler</title>
<path fill="none" stroke="navy" stroke-width="2" d="M170.84,-106.58C178.84,-108.2 187.57,-109.97 196.43,-111.77"/>
<polygon fill="navy" stroke="navy" stroke-width="2" points="195.97,-115.25 206.47,-113.81 197.36,-108.39 195.97,-115.25"/>
</g>
<!-- bin_file -->
<g id="node4" class="node">
<title>bin_file</title>
<path fill="none" stroke="black" d="M500.48,-131C500.48,-131 544.48,-131 544.48,-131 550.48,-131 556.48,-137 556.48,-143 556.48,-143 556.48,-157 556.48,-157 556.48,-163 550.48,-169 544.48,-169 544.48,-169 500.48,-169 500.48,-169 494.48,-169 488.48,-163 488.48,-157 488.48,-157 488.48,-143 488.48,-143 488.48,-137 494.48,-131 500.48,-131"/>
<text text-anchor="middle" x="522.48" y="-153.8" font-family="Arial" font-size="14.00">Machine</text>
<text text-anchor="middle" x="522.48" y="-138.8" font-family="Arial" font-size="14.00">Code</text>
</g>
<!-- emulator -->
<g id="node8" class="node">
<title>emulator</title>
<path fill="none" stroke="black" d="M705.02,-145.97C705.02,-145.97 705.02,-154.03 705.02,-154.03 705.02,-158.05 701.47,-163.99 697.93,-165.89 697.93,-165.89 680.36,-175.34 680.36,-175.34 676.82,-177.25 669.25,-179.16 665.22,-179.16 665.22,-179.16 636.43,-179.16 636.43,-179.16 632.4,-179.16 624.83,-177.25 621.29,-175.34 621.29,-175.34 603.72,-165.89 603.72,-165.89 600.18,-163.99 596.63,-158.05 596.63,-154.03 596.63,-154.03 596.63,-145.97 596.63,-145.97 596.63,-141.95 600.18,-136.01 603.72,-134.11 603.72,-134.11 621.29,-124.66 621.29,-124.66 624.83,-122.75 632.4,-120.84 636.43,-120.84 636.43,-120.84 665.22,-120.84 665.22,-120.84 669.25,-120.84 676.82,-122.75 680.36,-124.66 680.36,-124.66 697.93,-134.11 697.93,-134.11 701.47,-136.01 705.02,-141.95 705.02,-145.97"/>
<path fill="none" stroke="black" d="M709.01,-145.17C709.01,-145.17 709.01,-154.83 709.01,-154.83 709.01,-159.65 704.76,-166.77 700.51,-169.05 700.51,-169.05 682.77,-178.59 682.77,-178.59 678.52,-180.88 669.45,-183.17 664.62,-183.17 664.62,-183.17 637.03,-183.17 637.03,-183.17 632.2,-183.17 623.13,-180.88 618.88,-178.59 618.88,-178.59 601.14,-169.05 601.14,-169.05 596.89,-166.77 592.64,-159.65 592.64,-154.83 592.64,-154.83 592.64,-145.17 592.64,-145.17 592.64,-140.35 596.89,-133.23 601.14,-130.95 601.14,-130.95 618.88,-121.41 618.88,-121.41 623.13,-119.12 632.2,-116.83 637.03,-116.83 637.03,-116.83 664.62,-116.83 664.62,-116.83 669.45,-116.83 678.52,-119.12 682.77,-121.41 682.77,-121.41 700.51,-130.95 700.51,-130.95 704.76,-133.23 709.01,-140.35 709.01,-145.17"/>
<text text-anchor="middle" x="650.83" y="-153.8" font-family="Arial" font-size="14.00">Emulator</text>
<text text-anchor="middle" x="650.83" y="-138.8" font-family="Arial" font-size="14.00">(Go)</text>
</g>
<!-- bin_file&#45;&gt;emulator -->
<g id="edge8" class="edge">
<title>bin_file&#45;&gt;emulator</title>
<path fill="none" stroke="navy" stroke-width="2" d="M556.68,-150C564.65,-150 573.44,-150 582.35,-150"/>
<polygon fill="navy" stroke="navy" stroke-width="2" points="582.43,-153.5 592.43,-150 582.43,-146.5 582.43,-153.5"/>
</g>
<!-- ctrl_file -->
<g id="node5" class="node">
<title>ctrl_file</title>
<path fill="none" stroke="black" d="M503.98,-74C503.98,-74 540.98,-74 540.98,-74 546.98,-74 552.98,-80 552.98,-86 552.98,-86 552.98,-100 552.98,-100 552.98,-106 546.98,-112 540.98,-112 540.98,-112 503.98,-112 503.98,-112 497.98,-112 491.98,-106 491.98,-100 491.98,-100 491.98,-86 491.98,-86 491.98,-80 497.98,-74 503.98,-74"/>
<text text-anchor="middle" x="522.48" y="-96.8" font-family="Arial" font-size="14.00">Control</text>
<text text-anchor="middle" x="522.48" y="-81.8" font-family="Arial" font-size="14.00">Signals</text>
</g>
<!-- output -->
<g id="node6" class="node">
<title>output</title>
<path fill="none" stroke="black" d="M858.17,-26C858.17,-26 910.17,-26 910.17,-26 916.17,-26 922.17,-32 922.17,-38 922.17,-38 922.17,-52 922.17,-52 922.17,-58 916.17,-64 910.17,-64 910.17,-64 858.17,-64 858.17,-64 852.17,-64 846.17,-58 846.17,-52 846.17,-52 846.17,-38 846.17,-38 846.17,-32 852.17,-26 858.17,-26"/>
<text text-anchor="middle" x="884.17" y="-48.8" font-family="Arial" font-size="14.00">Execution</text>
<text text-anchor="middle" x="884.17" y="-33.8" font-family="Arial" font-size="14.00">Output</text>
</g>
<!-- output&#45;&gt;user -->
<g id="edge14" class="edge">
<title>output&#45;&gt;user</title>
<path fill="none" stroke="navy" stroke-width="2" d="M845.9,-45C800.18,-45 720.3,-45 651.83,-45 271.49,-45 271.49,-45 271.49,-45 199.01,-45 115.03,-57.19 67.72,-65.19"/>
<polygon fill="navy" stroke="navy" stroke-width="2" points="66.89,-61.78 57.63,-66.92 68.08,-68.67 66.89,-61.78"/>
</g>
<!-- lexer -->
<g id="node9" class="node">
<title>lexer</title>
<path fill="none" stroke="black" d="M428.48,-220C428.48,-220 398.48,-220 398.48,-220 392.48,-220 386.48,-214 386.48,-208 386.48,-208 386.48,-196 386.48,-196 386.48,-190 392.48,-184 398.48,-184 398.48,-184 428.48,-184 428.48,-184 434.48,-184 440.48,-190 440.48,-196 440.48,-196 440.48,-208 440.48,-208 440.48,-214 434.48,-220 428.48,-220"/>
<text text-anchor="middle" x="413.48" y="-198.3" font-family="Arial" font-size="14.00">Lexer</text>
</g>
<!-- assembler&#45;&gt;lexer -->
<g id="edge3" class="edge">
<title>assembler&#45;&gt;lexer</title>
<path fill="none" stroke="navy" stroke-width="2" d="M318.62,-151.35C337.65,-161.62 359.48,-173.4 377.3,-183.01"/>
<polygon fill="navy" stroke="navy" stroke-width="2" points="375.75,-186.15 386.21,-187.82 379.07,-179.99 375.75,-186.15"/>
</g>
<!-- parser -->
<g id="node10" class="node">
<title>parser</title>
<path fill="none" stroke="black" d="M429.48,-166C429.48,-166 397.48,-166 397.48,-166 391.48,-166 385.48,-160 385.48,-154 385.48,-154 385.48,-142 385.48,-142 385.48,-136 391.48,-130 397.48,-130 397.48,-130 429.48,-130 429.48,-130 435.48,-130 441.48,-136 441.48,-142 441.48,-142 441.48,-154 441.48,-154 441.48,-160 435.48,-166 429.48,-166"/>
<text text-anchor="middle" x="413.48" y="-144.3" font-family="Arial" font-size="14.00">Parser</text>
</g>
<!-- assembler&#45;&gt;parser -->
<g id="edge4" class="edge">
<title>assembler&#45;&gt;parser</title>
<path fill="none" stroke="navy" stroke-width="2" d="M338.51,-136.82C351.17,-138.74 364.03,-140.68 375.39,-142.4"/>
<polygon fill="navy" stroke="navy" stroke-width="2" points="374.95,-145.87 385.36,-143.9 376,-138.95 374.95,-145.87"/>
</g>
<!-- codegen -->
<g id="node11" class="node">
<title>codegen</title>
<path fill="none" stroke="black" d="M440.48,-112C440.48,-112 386.48,-112 386.48,-112 380.48,-112 374.48,-106 374.48,-100 374.48,-100 374.48,-86 374.48,-86 374.48,-80 380.48,-74 386.48,-74 386.48,-74 440.48,-74 440.48,-74 446.48,-74 452.48,-80 452.48,-86 452.48,-86 452.48,-100 452.48,-100 452.48,-106 446.48,-112 440.48,-112"/>
<text text-anchor="middle" x="413.48" y="-96.8" font-family="Arial" font-size="14.00">Code</text>
<text text-anchor="middle" x="413.48" y="-81.8" font-family="Arial" font-size="14.00">Generator</text>
</g>
<!-- assembler&#45;&gt;codegen -->
<g id="edge5" class="edge">
<title>assembler&#45;&gt;codegen</title>
<path fill="none" stroke="navy" stroke-width="2" d="M336.89,-111.49C346.15,-109.23 355.55,-106.93 364.44,-104.75"/>
<polygon fill="navy" stroke="navy" stroke-width="2" points="365.33,-108.14 374.21,-102.36 363.67,-101.34 365.33,-108.14"/>
</g>
<!-- fetch -->
<g id="node12" class="node">
<title>fetch</title>
<path fill="none" stroke="black" d="M792.67,-222C792.67,-222 762.67,-222 762.67,-222 756.67,-222 750.67,-216 750.67,-210 750.67,-210 750.67,-198 750.67,-198 750.67,-192 756.67,-186 762.67,-186 762.67,-186 792.67,-186 792.67,-186 798.67,-186 804.67,-192 804.67,-198 804.67,-198 804.67,-210 804.67,-210 804.67,-216 798.67,-222 792.67,-222"/>
<text text-anchor="middle" x="777.67" y="-200.3" font-family="Arial" font-size="14.00">Fetch</text>
</g>
<!-- emulator&#45;&gt;fetch -->
<g id="edge9" class="edge">
<title>emulator&#45;&gt;fetch</title>
<path fill="none" stroke="navy" stroke-width="2" d="M698.67,-170.26C712.81,-176.38 728.09,-182.99 741.35,-188.72"/>
<polygon fill="navy" stroke="navy" stroke-width="2" points="740.03,-191.97 750.6,-192.72 742.81,-185.54 740.03,-191.97"/>
</g>
<!-- decode -->
<g id="node13" class="node">
<title>decode</title>
<path fill="none" stroke="black" d="M797.17,-168C797.17,-168 758.17,-168 758.17,-168 752.17,-168 746.17,-162 746.17,-156 746.17,-156 746.17,-144 746.17,-144 746.17,-138 752.17,-132 758.17,-132 758.17,-132 797.17,-132 797.17,-132 803.17,-132 809.17,-138 809.17,-144 809.17,-144 809.17,-156 809.17,-156 809.17,-162 803.17,-168 797.17,-168"/>
<text text-anchor="middle" x="777.67" y="-146.3" font-family="Arial" font-size="14.00">Decode</text>
</g>
<!-- emulator&#45;&gt;decode -->
<g id="edge10" class="edge">
<title>emulator&#45;&gt;decode</title>
<path fill="none" stroke="navy" stroke-width="2" d="M709.13,-150C718.15,-150 727.32,-150 735.87,-150"/>
<polygon fill="navy" stroke="navy" stroke-width="2" points="735.94,-153.5 745.94,-150 735.94,-146.5 735.94,-153.5"/>
</g>
<!-- execute -->
<g id="node14" class="node">
<title>execute</title>
<path fill="none" stroke="black" d="M798.17,-114C798.17,-114 757.17,-114 757.17,-114 751.17,-114 745.17,-108 745.17,-102 745.17,-102 745.17,-90 745.17,-90 745.17,-84 751.17,-78 757.17,-78 757.17,-78 798.17,-78 798.17,-78 804.17,-78 810.17,-84 810.17,-90 810.17,-90 810.17,-102 810.17,-102 810.17,-108 804.17,-114 798.17,-114"/>
<text text-anchor="middle" x="777.67" y="-92.3" font-family="Arial" font-size="14.00">Execute</text>
</g>
<!-- emulator&#45;&gt;execute -->
<g id="edge11" class="edge">
<title>emulator&#45;&gt;execute</title>
<path fill="none" stroke="navy" stroke-width="2" d="M698.67,-129.74C710.9,-124.45 723.98,-118.79 735.86,-113.65"/>
<polygon fill="navy" stroke="navy" stroke-width="2" points="737.31,-116.84 745.1,-109.65 734.54,-110.41 737.31,-116.84"/>
</g>
<!-- codegen&#45;&gt;bin_file -->
<g id="edge6" class="edge">
<title>codegen&#45;&gt;bin_file</title>
<path fill="none" stroke="navy" stroke-width="2" d="M450.41,-112.14C459.71,-117.09 469.79,-122.46 479.37,-127.57"/>
<polygon fill="navy" stroke="navy" stroke-width="2" points="477.89,-130.74 488.36,-132.35 481.18,-124.56 477.89,-130.74"/>
</g>
<!-- codegen&#45;&gt;ctrl_file -->
<g id="edge7" class="edge">
<title>codegen&#45;&gt;ctrl_file</title>
<path fill="none" stroke="navy" stroke-width="2" d="M452.51,-93C461.95,-93 472.09,-93 481.62,-93"/>
<polygon fill="navy" stroke="navy" stroke-width="2" points="481.65,-96.5 491.65,-93 481.65,-89.5 481.65,-96.5"/>
</g>
<!-- execute&#45;&gt;output -->
<g id="edge13" class="edge">
<title>execute&#45;&gt;output</title>
<path fill="none" stroke="navy" stroke-width="2" d="M810.3,-80.56C818.69,-76.47 827.91,-71.97 836.9,-67.58"/>
<polygon fill="navy" stroke="navy" stroke-width="2" points="838.68,-70.61 846.13,-63.08 835.61,-64.32 838.68,-70.61"/>
</g>
<!-- memory -->
<g id="node15" class="node">
<title>memory</title>
<path fill="none" stroke="black" d="M905.67,-121C905.67,-121 862.67,-121 862.67,-121 856.67,-121 850.67,-115 850.67,-109 850.67,-109 850.67,-95 850.67,-95 850.67,-89 856.67,-83 862.67,-83 862.67,-83 905.67,-83 905.67,-83 911.67,-83 917.67,-89 917.67,-95 917.67,-95 917.67,-109 917.67,-109 917.67,-115 911.67,-121 905.67,-121"/>
<text text-anchor="middle" x="884.17" y="-105.8" font-family="Arial" font-size="14.00">Memory</text>
<text text-anchor="middle" x="884.17" y="-90.8" font-family="Arial" font-size="14.00">Access</text>
</g>
<!-- execute&#45;&gt;memory -->
<g id="edge12" class="edge">
<title>execute&#45;&gt;memory</title>
<path fill="none" stroke="navy" stroke-width="2" d="M810.3,-97.82C819.76,-98.36 830.28,-98.96 840.32,-99.54"/>
<polygon fill="navy" stroke="navy" stroke-width="2" points="840.37,-103.05 850.55,-100.13 840.77,-96.06 840.37,-103.05"/>
</g>
</g>
</svg>
