<?xml version="1.0" encoding="UTF-8" standalone="no"?>
<!DOCTYPE svg PUBLIC "-//W3C//DTD SVG 1.1//EN"
 "http://www.w3.org/Graphics/SVG/1.1/DTD/svg11.dtd">
<!-- Generated by graphviz version 2.43.0 (0)
 -->
<!-- Title: Sequence Pages: 1 -->
<svg width="1308pt" height="199pt"
 viewBox="0.00 0.00 1307.50 199.00" xmlns="http://www.w3.org/2000/svg" xmlns:xlink="http://www.w3.org/1999/xlink">
<g id="graph0" class="graph" transform="scale(1 1) rotate(0) translate(4 195)">
<title>Sequence</title>
<polygon fill="white" stroke="transparent" points="-4,4 -4,-195 1303.5,-195 1303.5,4 -4,4"/>
<text text-anchor="middle" x="649.75" y="-172.6" font-family="Arial" font-size="18.00">Figure 10: Sequence Diagram</text>
<!-- Bold -->
<g id="node1" class="node">
<title>Bold</title>
<path fill="none" stroke="black" d="M42,-163C42,-163 12,-163 12,-163 6,-163 0,-157 0,-151 0,-151 0,-139 0,-139 0,-133 6,-127 12,-127 12,-127 42,-127 42,-127 48,-127 54,-133 54,-139 54,-139 54,-151 54,-151 54,-157 48,-163 42,-163"/>
<text text-anchor="middle" x="27" y="-141.3" font-family="Arial" font-size="14.00">Bold</text>
</g>
<!-- user -->
<g id="node2" class="node">
<title>user</title>
<ellipse fill="none" stroke="black" cx="101" cy="-145" rx="29.5" ry="18"/>
<text text-anchor="middle" x="101" y="-141.3" font-family="Arial" font-size="14.00">User</text>
</g>
<!-- asm -->
<g id="node3" class="node">
<title>asm</title>
<path fill="none" stroke="black" d="M312.5,-163C312.5,-163 255.5,-163 255.5,-163 249.5,-163 243.5,-157 243.5,-151 243.5,-151 243.5,-139 243.5,-139 243.5,-133 249.5,-127 255.5,-127 255.5,-127 312.5,-127 312.5,-127 318.5,-127 324.5,-133 324.5,-139 324.5,-139 324.5,-151 324.5,-151 324.5,-157 318.5,-163 312.5,-163"/>
<text text-anchor="middle" x="284" y="-141.3" font-family="Arial" font-size="14.00">Assembler</text>
</g>
<!-- user&#45;&gt;asm -->
<g id="edge1" class="edge">
<title>user&#45;&gt;asm</title>
<path fill="none" stroke="navy" stroke-width="1.5" d="M140.64,-145C167.82,-145 204.11,-145 233.38,-145"/>
<polygon fill="navy" stroke="navy" stroke-width="1.5" points="140.4,-141.5 130.4,-145 140.4,-148.5 140.4,-141.5"/>
<polygon fill="navy" stroke="navy" stroke-width="1.5" points="233.42,-148.5 243.42,-145 233.42,-141.5 233.42,-148.5"/>
<text text-anchor="middle" x="186.87" y="-151.8" font-family="Times,serif" font-size="14.00">1. Write .asm</text>
</g>
<!-- parser -->
<g id="node4" class="node">
<title>parser</title>
<path fill="none" stroke="black" d="M467,-163C467,-163 435,-163 435,-163 429,-163 423,-157 423,-151 423,-151 423,-139 423,-139 423,-133 429,-127 435,-127 435,-127 467,-127 467,-127 473,-127 479,-133 479,-139 479,-139 479,-151 479,-151 479,-157 473,-163 467,-163"/>
<text text-anchor="middle" x="451" y="-141.3" font-family="Arial" font-size="14.00">Parser</text>
</g>
<!-- asm&#45;&gt;parser -->
<g id="edge2" class="edge">
<title>asm&#45;&gt;parser</title>
<path fill="none" stroke="navy" stroke-width="1.5" d="M335.17,-145C360.18,-145 389.77,-145 412.78,-145"/>
<polygon fill="navy" stroke="navy" stroke-width="1.5" points="334.85,-141.5 324.85,-145 334.85,-148.5 334.85,-141.5"/>
<polygon fill="navy" stroke="navy" stroke-width="1.5" points="412.85,-148.5 422.85,-145 412.85,-141.5 412.85,-148.5"/>
<text text-anchor="middle" x="373.75" y="-151.8" font-family="Times,serif" font-size="14.00">2. Tokenize</text>
</g>
<!-- gen -->
<g id="node5" class="node">
<title>gen</title>
<path fill="none" stroke="black" d="M648.5,-163C648.5,-163 597.5,-163 597.5,-163 591.5,-163 585.5,-157 585.5,-151 585.5,-151 585.5,-139 585.5,-139 585.5,-133 591.5,-127 597.5,-127 597.5,-127 648.5,-127 648.5,-127 654.5,-127 660.5,-133 660.5,-139 660.5,-139 660.5,-151 660.5,-151 660.5,-157 654.5,-163 648.5,-163"/>
<text text-anchor="middle" x="623" y="-141.3" font-family="Arial" font-size="14.00">CodeGen</text>
</g>
<!-- parser&#45;&gt;gen -->
<g id="edge3" class="edge">
<title>parser&#45;&gt;gen</title>
<path fill="none" stroke="navy" stroke-width="1.5" d="M489.06,-145C514.47,-145 548.08,-145 575.27,-145"/>
<polygon fill="navy" stroke="navy" stroke-width="1.5" points="489.02,-141.5 479.02,-145 489.02,-148.5 489.02,-141.5"/>
<polygon fill="navy" stroke="navy" stroke-width="1.5" points="575.35,-148.5 585.35,-145 575.35,-141.5 575.35,-148.5"/>
<text text-anchor="middle" x="532.25" y="-151.8" font-family="Times,serif" font-size="14.00">3. Build AST</text>
</g>
<!-- emu -->
<g id="node6" class="node">
<title>emu</title>
<path fill="none" stroke="black" d="M853.5,-163C853.5,-163 806.5,-163 806.5,-163 800.5,-163 794.5,-157 794.5,-151 794.5,-151 794.5,-139 794.5,-139 794.5,-133 800.5,-127 806.5,-127 806.5,-127 853.5,-127 853.5,-127 859.5,-127 865.5,-133 865.5,-139 865.5,-139 865.5,-151 865.5,-151 865.5,-157 859.5,-163 853.5,-163"/>
<text text-anchor="middle" x="830" y="-141.3" font-family="Arial" font-size="14.00">Emulator</text>
</g>
<!-- gen&#45;&gt;emu -->
<g id="edge4" class="edge">
<title>gen&#45;&gt;emu</title>
<path fill="none" stroke="navy" stroke-width="1.5" d="M671.2,-145C705.32,-145 750.81,-145 784.35,-145"/>
<polygon fill="navy" stroke="navy" stroke-width="1.5" points="670.97,-141.5 660.97,-145 670.97,-148.5 670.97,-141.5"/>
<polygon fill="navy" stroke="navy" stroke-width="1.5" points="784.35,-148.5 794.35,-145 784.35,-141.5 784.35,-148.5"/>
<text text-anchor="middle" x="727.5" y="-151.8" font-family="Times,serif" font-size="14.00">4. Generate .bin</text>
</g>
<!-- cpu -->
<g id="node7" class="node">
<title>cpu</title>
<path fill="none" stroke="black" d="M1060,-163C1060,-163 1030,-163 1030,-163 1024,-163 1018,-157 1018,-151 1018,-151 1018,-139 1018,-139 1018,-133 1024,-127 1030,-127 1030,-127 1060,-127 1060,-127 1066,-127 1072,-133 1072,-139 1072,-139 1072,-151 1072,-151 1072,-157 1066,-163 1060,-163"/>
<text text-anchor="middle" x="1045" y="-141.3" font-family="Arial" font-size="14.00">CPU</text>
</g>
<!-- emu&#45;&gt;cpu -->
<g id="edge5" class="edge">
<title>emu&#45;&gt;cpu</title>
<path fill="none" stroke="navy" stroke-width="1.5" d="M875.75,-145C915.07,-145 971.07,-145 1007.71,-145"/>
<polygon fill="navy" stroke="navy" stroke-width="1.5" points="875.5,-141.5 865.5,-145 875.5,-148.5 875.5,-141.5"/>
<polygon fill="navy" stroke="navy" stroke-width="1.5" points="1007.96,-148.5 1017.96,-145 1007.96,-141.5 1007.96,-148.5"/>
<text text-anchor="middle" x="941.75" y="-151.8" font-family="Times,serif" font-size="14.00">5. Load to memory</text>
</g>
<!-- fetch -->
<g id="node8" class="node">
<title>fetch</title>
<path fill="none" stroke="black" d="M979.5,-57C979.5,-57 880.5,-57 880.5,-57 874.5,-57 868.5,-51 868.5,-45 868.5,-45 868.5,-31 868.5,-31 868.5,-25 874.5,-19 880.5,-19 880.5,-19 979.5,-19 979.5,-19 985.5,-19 991.5,-25 991.5,-31 991.5,-31 991.5,-45 991.5,-45 991.5,-51 985.5,-57 979.5,-57"/>
<text text-anchor="middle" x="930" y="-41.8" font-family="Arial" font-size="14.00">Fetch</text>
<text text-anchor="middle" x="930" y="-26.8" font-family="Arial" font-size="14.00">(instMemory[PC])</text>
</g>
<!-- cpu&#45;&gt;fetch -->
<g id="edge6" class="edge">
<title>cpu&#45;&gt;fetch</title>
<path fill="none" stroke="navy" stroke-width="1.5" d="M1026.27,-126.9C1007.56,-109.82 978.61,-83.38 957.34,-63.96"/>
<polygon fill="navy" stroke="navy" stroke-width="1.5" points="959.63,-61.31 949.88,-57.15 954.91,-66.48 959.63,-61.31"/>
</g>
<!-- decode -->
<g id="node9" class="node">
<title>decode</title>
<path fill="none" stroke="black" d="M1068,-57C1068,-57 1022,-57 1022,-57 1016,-57 1010,-51 1010,-45 1010,-45 1010,-31 1010,-31 1010,-25 1016,-19 1022,-19 1022,-19 1068,-19 1068,-19 1074,-19 1080,-25 1080,-31 1080,-31 1080,-45 1080,-45 1080,-51 1074,-57 1068,-57"/>
<text text-anchor="middle" x="1045" y="-41.8" font-family="Arial" font-size="14.00">Decode</text>
<text text-anchor="middle" x="1045" y="-26.8" font-family="Arial" font-size="14.00">(opcode)</text>
</g>
<!-- cpu&#45;&gt;decode -->
<g id="edge7" class="edge">
<title>cpu&#45;&gt;decode</title>
<path fill="none" stroke="navy" stroke-width="1.5" d="M1045,-126.66C1045,-110.52 1045,-86.17 1045,-67.22"/>
<polygon fill="navy" stroke="navy" stroke-width="1.5" points="1048.5,-67.07 1045,-57.07 1041.5,-67.07 1048.5,-67.07"/>
</g>
<!-- exec_inst -->
<g id="node10" class="node">
<title>exec_inst</title>
<path fill="none" stroke="black" d="M1192,-57C1192,-57 1110,-57 1110,-57 1104,-57 1098,-51 1098,-45 1098,-45 1098,-31 1098,-31 1098,-25 1104,-19 1110,-19 1110,-19 1192,-19 1192,-19 1198,-19 1204,-25 1204,-31 1204,-31 1204,-45 1204,-45 1204,-51 1198,-57 1192,-57"/>
<text text-anchor="middle" x="1151" y="-41.8" font-family="Arial" font-size="14.00">Execute</text>
<text text-anchor="middle" x="1151" y="-26.8" font-family="Arial" font-size="14.00">(ALU/memory)</text>
</g>
<!-- cpu&#45;&gt;exec_inst -->
<g id="edge8" class="edge">
<title>cpu&#45;&gt;exec_inst</title>
<path fill="none" stroke="navy" stroke-width="1.5" d="M1062.5,-126.66C1079.63,-109.69 1105.92,-83.65 1125.4,-64.36"/>
<polygon fill="navy" stroke="navy" stroke-width="1.5" points="1128.12,-66.59 1132.76,-57.07 1123.19,-61.62 1128.12,-66.59"/>
</g>
<!-- update -->
<g id="node11" class="node">
<title>update</title>
<path fill="none" stroke="black" d="M1287.5,-57C1287.5,-57 1234.5,-57 1234.5,-57 1228.5,-57 1222.5,-51 1222.5,-45 1222.5,-45 1222.5,-31 1222.5,-31 1222.5,-25 1228.5,-19 1234.5,-19 1234.5,-19 1287.5,-19 1287.5,-19 1293.5,-19 1299.5,-25 1299.5,-31 1299.5,-31 1299.5,-45 1299.5,-45 1299.5,-51 1293.5,-57 1287.5,-57"/>
<text text-anchor="middle" x="1261" y="-41.8" font-family="Arial" font-size="14.00">Update</text>
<text text-anchor="middle" x="1261" y="-26.8" font-family="Arial" font-size="14.00">(reg/flags)</text>
</g>
<!-- cpu&#45;&gt;update -->
<g id="edge9" class="edge">
<title>cpu&#45;&gt;update</title>
<path fill="none" stroke="navy" stroke-width="1.5" d="M1072.23,-135.54C1106.35,-124.36 1166.05,-102.92 1213,-76 1219.4,-72.33 1225.9,-67.89 1231.95,-63.39"/>
<polygon fill="navy" stroke="navy" stroke-width="1.5" points="1234.11,-66.14 1239.9,-57.26 1229.84,-60.6 1234.11,-66.14"/>
</g>
<!-- check -->
<g id="node12" class="node">
<title>check</title>
<path fill="none" stroke="black" d="M776.72,-69.8C776.72,-69.8 734.28,-44.2 734.28,-44.2 729.14,-41.1 729.14,-34.9 734.28,-31.8 734.28,-31.8 776.72,-6.2 776.72,-6.2 781.86,-3.1 792.14,-3.1 797.28,-6.2 797.28,-6.2 839.72,-31.8 839.72,-31.8 844.86,-34.9 844.86,-41.1 839.72,-44.2 839.72,-44.2 797.28,-69.8 797.28,-69.8 792.14,-72.9 781.86,-72.9 776.72,-69.8"/>
<text text-anchor="middle" x="787" y="-41.8" font-family="Arial" font-size="14.00">Check</text>
<text text-anchor="middle" x="787" y="-26.8" font-family="Arial" font-size="14.00">Halted?</text>
</g>
<!-- cpu&#45;&gt;check -->
<g id="edge10" class="edge">
<title>cpu&#45;&gt;check</title>
<path fill="none" stroke="navy" stroke-width="1.5" d="M1017.97,-144.17C979.34,-143.33 907.12,-137.63 854,-109 837.93,-100.34 823.45,-86.45 812.1,-73.32"/>
<polygon fill="navy" stroke="navy" stroke-width="1.5" points="814.52,-70.76 805.45,-65.29 809.13,-75.23 814.52,-70.76"/>
</g>
<!-- check&#45;&gt;user -->
<g id="edge12" class="edge">
<title>check&#45;&gt;user</title>
<path fill="none" stroke="navy" stroke-width="1.5" stroke-dasharray="5,2" d="M737.84,-46.52C607.59,-66.46 255.63,-120.33 139.07,-138.17"/>
<polygon fill="navy" stroke="navy" stroke-width="1.5" points="138.53,-134.72 129.17,-139.69 139.59,-141.63 138.53,-134.72"/>
<text text-anchor="middle" x="436.5" y="-97.8" font-family="Times,serif" font-size="14.00">Yes</text>
</g>
<!-- check&#45;&gt;cpu -->
<g id="edge11" class="edge">
<title>check&#45;&gt;cpu</title>
<path fill="none" stroke="navy" stroke-width="1.5" d="M819.2,-56.63C831.49,-63.07 845.74,-70.2 859,-76 909.74,-98.21 970.28,-119.4 1008.19,-132.05"/>
<polygon fill="navy" stroke="navy" stroke-width="1.5" points="1007.2,-135.41 1017.79,-135.23 1009.4,-128.76 1007.2,-135.41"/>
<text text-anchor="middle" x="950.5" y="-97.8" font-family="Times,serif" font-size="14.00">No</text>
</g>
</g>
</svg>
