<?xml version="1.0" encoding="UTF-8" standalone="no"?>
<!DOCTYPE svg PUBLIC "-//W3C//DTD SVG 1.1//EN"
 "http://www.w3.org/Graphics/SVG/1.1/DTD/svg11.dtd">
<!-- Generated by graphviz version 2.43.0 (0)
 -->
<!-- Title: ConditionalBranch Pages: 1 -->
<svg width="1219pt" height="395pt"
 viewBox="0.00 0.00 1218.84 395.00" xmlns="http://www.w3.org/2000/svg" xmlns:xlink="http://www.w3.org/1999/xlink">
<g id="graph0" class="graph" transform="scale(1 1) rotate(0) translate(4 391)">
<title>ConditionalBranch</title>
<polygon fill="white" stroke="transparent" points="-4,4 -4,-391 1214.84,-391 1214.84,4 -4,4"/>
<text text-anchor="middle" x="605.42" y="-368.6" font-family="Arial" font-size="18.00">Figure 11: Conditional Branching Flow</text>
<!-- Bold -->
<g id="node1" class="node">
<title>Bold</title>
<path fill="none" stroke="black" d="M336.84,-357.5C336.84,-357.5 306.84,-357.5 306.84,-357.5 300.84,-357.5 294.84,-351.5 294.84,-345.5 294.84,-345.5 294.84,-333.5 294.84,-333.5 294.84,-327.5 300.84,-321.5 306.84,-321.5 306.84,-321.5 336.84,-321.5 336.84,-321.5 342.84,-321.5 348.84,-327.5 348.84,-333.5 348.84,-333.5 348.84,-345.5 348.84,-345.5 348.84,-351.5 342.84,-357.5 336.84,-357.5"/>
<text text-anchor="middle" x="321.84" y="-335.8" font-family="Arial" font-size="14.00">Bold</text>
</g>
<!-- status -->
<g id="node2" class="node">
<title>status</title>
<path fill="none" stroke="black" d="M379.34,-320.5C379.34,-320.5 472.34,-320.5 472.34,-320.5 478.34,-320.5 484.34,-326.5 484.34,-332.5 484.34,-332.5 484.34,-346.5 484.34,-346.5 484.34,-352.5 478.34,-358.5 472.34,-358.5 472.34,-358.5 379.34,-358.5 379.34,-358.5 373.34,-358.5 367.34,-352.5 367.34,-346.5 367.34,-346.5 367.34,-332.5 367.34,-332.5 367.34,-326.5 373.34,-320.5 379.34,-320.5"/>
<text text-anchor="middle" x="425.84" y="-343.3" font-family="Arial" font-size="14.00">Status Register</text>
<text text-anchor="middle" x="425.84" y="-328.3" font-family="Arial" font-size="14.00">(Z,P,C,OV,AC,S)</text>
</g>
<!-- con_check -->
<g id="node4" class="node">
<title>con_check</title>
<path fill="none" stroke="black" d="M114.96,-281.31C114.96,-281.31 12.04,-266.69 12.04,-266.69 6.1,-265.84 6.1,-264.16 12.04,-263.31 12.04,-263.31 114.96,-248.69 114.96,-248.69 120.9,-247.84 132.78,-247.84 138.72,-248.69 138.72,-248.69 241.65,-263.31 241.65,-263.31 247.59,-264.16 247.59,-265.84 241.65,-266.69 241.65,-266.69 138.72,-281.31 138.72,-281.31 132.78,-282.16 120.9,-282.16 114.96,-281.31"/>
<text text-anchor="middle" x="126.84" y="-261.3" font-family="Arial" font-size="14.00">(status &amp; mask) != 0</text>
</g>
<!-- status&#45;&gt;con_check -->
<g id="edge1" class="edge">
<title>status&#45;&gt;con_check</title>
<path fill="none" stroke="navy" stroke-width="2" d="M367.27,-322.42C364.09,-321.59 360.93,-320.78 357.84,-320 298.7,-305.05 230.66,-289.32 183.82,-278.72"/>
<polygon fill="navy" stroke="navy" stroke-width="2" points="184.39,-275.26 173.86,-276.47 182.84,-282.09 184.39,-275.26"/>
</g>
<!-- cor_check -->
<g id="node6" class="node">
<title>cor_check</title>
<path fill="none" stroke="black" d="M413.92,-281.61C413.92,-281.61 283.43,-266.39 283.43,-266.39 277.47,-265.7 277.47,-264.3 283.43,-263.61 283.43,-263.61 413.92,-248.39 413.92,-248.39 419.88,-247.7 431.8,-247.7 437.76,-248.39 437.76,-248.39 568.26,-263.61 568.26,-263.61 574.22,-264.3 574.22,-265.7 568.26,-266.39 568.26,-266.39 437.76,-281.61 437.76,-281.61 431.8,-282.3 419.88,-282.3 413.92,-281.61"/>
<text text-anchor="middle" x="425.84" y="-261.3" font-family="Arial" font-size="14.00">(status &amp; mask) == mask</text>
</g>
<!-- status&#45;&gt;cor_check -->
<g id="edge2" class="edge">
<title>status&#45;&gt;cor_check</title>
<path fill="none" stroke="navy" stroke-width="2" d="M425.84,-320.21C425.84,-312 425.84,-302.16 425.84,-293.13"/>
<polygon fill="navy" stroke="navy" stroke-width="2" points="429.34,-293.04 425.84,-283.04 422.34,-293.04 429.34,-293.04"/>
</g>
<!-- can_check -->
<g id="node8" class="node">
<title>can_check</title>
<path fill="none" stroke="black" d="M740.92,-281.61C740.92,-281.61 610.43,-266.39 610.43,-266.39 604.47,-265.7 604.47,-264.3 610.43,-263.61 610.43,-263.61 740.92,-248.39 740.92,-248.39 746.88,-247.7 758.8,-247.7 764.76,-248.39 764.76,-248.39 895.26,-263.61 895.26,-263.61 901.22,-264.3 901.22,-265.7 895.26,-266.39 895.26,-266.39 764.76,-281.61 764.76,-281.61 758.8,-282.3 746.88,-282.3 740.92,-281.61"/>
<text text-anchor="middle" x="752.84" y="-261.3" font-family="Arial" font-size="14.00">(status &amp; mask) == mask</text>
</g>
<!-- status&#45;&gt;can_check -->
<g id="edge3" class="edge">
<title>status&#45;&gt;can_check</title>
<path fill="none" stroke="navy" stroke-width="2" d="M484.68,-325.45C543.43,-312.43 633.29,-292.51 692.55,-279.37"/>
<polygon fill="navy" stroke="navy" stroke-width="2" points="693.51,-282.74 702.52,-277.16 691.99,-275.91 693.51,-282.74"/>
</g>
<!-- con_instr -->
<g id="node3" class="node">
<title>con_instr</title>
<path fill="none" stroke="black" d="M996.84,-283C996.84,-283 936.84,-283 936.84,-283 930.84,-283 924.84,-277 924.84,-271 924.84,-271 924.84,-259 924.84,-259 924.84,-253 930.84,-247 936.84,-247 936.84,-247 996.84,-247 996.84,-247 1002.84,-247 1008.84,-253 1008.84,-259 1008.84,-259 1008.84,-271 1008.84,-271 1008.84,-277 1002.84,-283 996.84,-283"/>
<text text-anchor="middle" x="966.84" y="-261.3" font-family="Arial" font-size="14.00">CON mask</text>
</g>
<!-- jmp_instr -->
<g id="node9" class="node">
<title>jmp_instr</title>
<path fill="none" stroke="black" d="M455.34,-196C455.34,-196 396.34,-196 396.34,-196 390.34,-196 384.34,-190 384.34,-184 384.34,-184 384.34,-172 384.34,-172 384.34,-166 390.34,-160 396.34,-160 396.34,-160 455.34,-160 455.34,-160 461.34,-160 467.34,-166 467.34,-172 467.34,-172 467.34,-184 467.34,-184 467.34,-190 461.34,-196 455.34,-196"/>
<text text-anchor="middle" x="425.84" y="-174.3" font-family="Arial" font-size="14.00">JMP target</text>
</g>
<!-- con_check&#45;&gt;jmp_instr -->
<g id="edge4" class="edge">
<title>con_check&#45;&gt;jmp_instr</title>
<path fill="none" stroke="green" stroke-width="2" d="M166.86,-252.62C220.41,-237.4 315.45,-210.38 374.31,-193.65"/>
<polygon fill="green" stroke="green" stroke-width="2" points="375.48,-196.96 384.14,-190.85 373.57,-190.22 375.48,-196.96"/>
<text text-anchor="middle" x="310.34" y="-217.8" font-family="Times,serif" font-size="14.00">true</text>
</g>
<!-- cor_instr -->
<g id="node5" class="node">
<title>cor_instr</title>
<path fill="none" stroke="black" d="M1098.84,-283C1098.84,-283 1038.84,-283 1038.84,-283 1032.84,-283 1026.84,-277 1026.84,-271 1026.84,-271 1026.84,-259 1026.84,-259 1026.84,-253 1032.84,-247 1038.84,-247 1038.84,-247 1098.84,-247 1098.84,-247 1104.84,-247 1110.84,-253 1110.84,-259 1110.84,-259 1110.84,-271 1110.84,-271 1110.84,-277 1104.84,-283 1098.84,-283"/>
<text text-anchor="middle" x="1068.84" y="-261.3" font-family="Arial" font-size="14.00">COR mask</text>
</g>
<!-- cor_check&#45;&gt;jmp_instr -->
<g id="edge5" class="edge">
<title>cor_check&#45;&gt;jmp_instr</title>
<path fill="none" stroke="green" stroke-width="2" d="M425.84,-246.8C425.84,-235.16 425.84,-219.55 425.84,-206.24"/>
<polygon fill="green" stroke="green" stroke-width="2" points="429.34,-206.18 425.84,-196.18 422.34,-206.18 429.34,-206.18"/>
<text text-anchor="middle" x="441.34" y="-217.8" font-family="Times,serif" font-size="14.00">true</text>
</g>
<!-- can_instr -->
<g id="node7" class="node">
<title>can_instr</title>
<path fill="none" stroke="black" d="M1198.84,-283C1198.84,-283 1140.84,-283 1140.84,-283 1134.84,-283 1128.84,-277 1128.84,-271 1128.84,-271 1128.84,-259 1128.84,-259 1128.84,-253 1134.84,-247 1140.84,-247 1140.84,-247 1198.84,-247 1198.84,-247 1204.84,-247 1210.84,-253 1210.84,-259 1210.84,-259 1210.84,-271 1210.84,-271 1210.84,-277 1204.84,-283 1198.84,-283"/>
<text text-anchor="middle" x="1169.84" y="-261.3" font-family="Arial" font-size="14.00">CAN mask</text>
</g>
<!-- can_check&#45;&gt;jmp_instr -->
<g id="edge6" class="edge">
<title>can_check&#45;&gt;jmp_instr</title>
<path fill="none" stroke="green" stroke-width="2" d="M707.38,-252.18C646.99,-236.48 540.61,-208.83 477.34,-192.39"/>
<polygon fill="green" stroke="green" stroke-width="2" points="478.12,-188.97 467.56,-189.84 476.36,-195.75 478.12,-188.97"/>
<text text-anchor="middle" x="625.34" y="-217.8" font-family="Times,serif" font-size="14.00">true</text>
</g>
<!-- branch_check -->
<g id="node10" class="node">
<title>branch_check</title>
<path fill="none" stroke="black" d="M414.13,-120.42C414.13,-120.42 355.95,-107.58 355.95,-107.58 350.09,-106.29 350.09,-103.71 355.95,-102.42 355.95,-102.42 414.13,-89.58 414.13,-89.58 419.98,-88.29 431.7,-88.29 437.56,-89.58 437.56,-89.58 495.74,-102.42 495.74,-102.42 501.59,-103.71 501.59,-106.29 495.74,-107.58 495.74,-107.58 437.56,-120.42 437.56,-120.42 431.7,-121.71 419.98,-121.71 414.13,-120.42"/>
<text text-anchor="middle" x="425.84" y="-101.3" font-family="Arial" font-size="14.00">canBranch?</text>
</g>
<!-- jmp_instr&#45;&gt;branch_check -->
<g id="edge7" class="edge">
<title>jmp_instr&#45;&gt;branch_check</title>
<path fill="none" stroke="navy" stroke-width="2" d="M425.84,-159.81C425.84,-151.79 425.84,-142.05 425.84,-133.07"/>
<polygon fill="navy" stroke="navy" stroke-width="2" points="429.34,-133.03 425.84,-123.03 422.34,-133.03 429.34,-133.03"/>
</g>
<!-- take_jmp -->
<g id="node11" class="node">
<title>take_jmp</title>
<path fill="none" stroke="black" d="M409.84,-36C409.84,-36 347.84,-36 347.84,-36 341.84,-36 335.84,-30 335.84,-24 335.84,-24 335.84,-12 335.84,-12 335.84,-6 341.84,0 347.84,0 347.84,0 409.84,0 409.84,0 415.84,0 421.84,-6 421.84,-12 421.84,-12 421.84,-24 421.84,-24 421.84,-30 415.84,-36 409.84,-36"/>
<text text-anchor="middle" x="378.84" y="-14.3" font-family="Arial" font-size="14.00">PC = target</text>
</g>
<!-- branch_check&#45;&gt;take_jmp -->
<g id="edge8" class="edge">
<title>branch_check&#45;&gt;take_jmp</title>
<path fill="none" stroke="navy" stroke-width="2" d="M417.44,-88.8C410.73,-76.66 401.16,-59.36 393.23,-45.02"/>
<polygon fill="navy" stroke="navy" stroke-width="2" points="396.21,-43.17 388.3,-36.11 390.08,-46.55 396.21,-43.17"/>
<text text-anchor="middle" x="421.34" y="-57.8" font-family="Times,serif" font-size="14.00">true</text>
</g>
<!-- skip_jmp -->
<g id="node12" class="node">
<title>skip_jmp</title>
<path fill="none" stroke="black" d="M495.34,-36C495.34,-36 452.34,-36 452.34,-36 446.34,-36 440.34,-30 440.34,-24 440.34,-24 440.34,-12 440.34,-12 440.34,-6 446.34,0 452.34,0 452.34,0 495.34,0 495.34,0 501.34,0 507.34,-6 507.34,-12 507.34,-12 507.34,-24 507.34,-24 507.34,-30 501.34,-36 495.34,-36"/>
<text text-anchor="middle" x="473.84" y="-14.3" font-family="Arial" font-size="14.00">PC += 2</text>
</g>
<!-- branch_check&#45;&gt;skip_jmp -->
<g id="edge9" class="edge">
<title>branch_check&#45;&gt;skip_jmp</title>
<path fill="none" stroke="navy" stroke-width="2" d="M434.43,-88.8C441.28,-76.66 451.05,-59.36 459.15,-45.02"/>
<polygon fill="navy" stroke="navy" stroke-width="2" points="462.31,-46.54 464.18,-36.11 456.22,-43.1 462.31,-46.54"/>
<text text-anchor="middle" x="469.84" y="-57.8" font-family="Times,serif" font-size="14.00">false</text>
</g>
<!-- reset -->
<g id="node13" class="node">
<title>reset</title>
<ellipse fill="none" stroke="black" stroke-dasharray="5,2" cx="1068.84" cy="-339.5" rx="77.99" ry="18"/>
<text text-anchor="middle" x="1068.84" y="-335.8" font-family="Arial" font-size="14.00">Reset canBranch</text>
</g>
<!-- reset&#45;&gt;con_instr -->
<g id="edge10" class="edge">
<title>reset&#45;&gt;con_instr</title>
<path fill="none" stroke="navy" stroke-width="2" d="M1045.95,-322.23C1032.3,-312.53 1014.75,-300.05 999.64,-289.31"/>
<polygon fill="navy" stroke="navy" stroke-width="2" points="1001.26,-286.17 991.08,-283.23 997.2,-291.87 1001.26,-286.17"/>
</g>
<!-- reset&#45;&gt;cor_instr -->
<g id="edge11" class="edge">
<title>reset&#45;&gt;cor_instr</title>
<path fill="none" stroke="navy" stroke-width="2" d="M1068.84,-321.32C1068.84,-312.92 1068.84,-302.62 1068.84,-293.19"/>
<polygon fill="navy" stroke="navy" stroke-width="2" points="1072.34,-293.06 1068.84,-283.06 1065.34,-293.06 1072.34,-293.06"/>
</g>
<!-- reset&#45;&gt;can_instr -->
<g id="edge12" class="edge">
<title>reset&#45;&gt;can_instr</title>
<path fill="none" stroke="navy" stroke-width="2" d="M1091.51,-322.23C1105.03,-312.53 1122.41,-300.05 1137.37,-289.31"/>
<polygon fill="navy" stroke="navy" stroke-width="2" points="1139.76,-291.9 1145.85,-283.23 1135.68,-286.21 1139.76,-291.9"/>
</g>
</g>
</svg>
