<?xml version="1.0" encoding="UTF-8" standalone="no"?>
<!DOCTYPE svg PUBLIC "-//W3C//DTD SVG 1.1//EN"
 "http://www.w3.org/Graphics/SVG/1.1/DTD/svg11.dtd">
<!-- Generated by graphviz version 2.43.0 (0)
 -->
<!-- Title: MemoryMap Pages: 1 -->
<svg width="442pt" height="300pt"
 viewBox="0.00 0.00 442.00 299.50" xmlns="http://www.w3.org/2000/svg" xmlns:xlink="http://www.w3.org/1999/xlink">
<g id="graph0" class="graph" transform="scale(1 1) rotate(0) translate(4 295.5)">
<title>MemoryMap</title>
<polygon fill="white" stroke="transparent" points="-4,4 -4,-295.5 438,-295.5 438,4 -4,4"/>
<text text-anchor="middle" x="217" y="-273.1" font-family="Arial" font-size="18.00">Figure 12: Memory Map</text>
<!-- Bold -->
<g id="node1" class="node">
<title>Bold</title>
<path fill="none" stroke="black" d="M65.5,-36C65.5,-36 35.5,-36 35.5,-36 29.5,-36 23.5,-30 23.5,-24 23.5,-24 23.5,-12 23.5,-12 23.5,-6 29.5,0 35.5,0 35.5,0 65.5,0 65.5,0 71.5,0 77.5,-6 77.5,-12 77.5,-12 77.5,-24 77.5,-24 77.5,-30 71.5,-36 65.5,-36"/>
<text text-anchor="middle" x="50.5" y="-14.3" font-family="Arial" font-size="14.00">Bold</text>
</g>
<!-- im_start -->
<g id="node2" class="node">
<title>im_start</title>
<path fill="none" stroke="black" d="M22,-55C22,-55 79,-55 79,-55 85,-55 91,-61 91,-67 91,-67 91,-81 91,-81 91,-87 85,-93 79,-93 79,-93 22,-93 22,-93 16,-93 10,-87 10,-81 10,-81 10,-67 10,-67 10,-61 16,-55 22,-55"/>
<text text-anchor="middle" x="50.5" y="-77.8" font-family="Arial" font-size="14.00">0x0000</text>
<text text-anchor="middle" x="50.5" y="-62.8" font-family="Arial" font-size="14.00">Code Start</text>
</g>
<!-- im_prog -->
<g id="node3" class="node">
<title>im_prog</title>
<path fill="none" stroke="black" d="M156.5,-55C156.5,-55 243.5,-55 243.5,-55 249.5,-55 255.5,-61 255.5,-67 255.5,-67 255.5,-81 255.5,-81 255.5,-87 249.5,-93 243.5,-93 243.5,-93 156.5,-93 156.5,-93 150.5,-93 144.5,-87 144.5,-81 144.5,-81 144.5,-67 144.5,-67 144.5,-61 150.5,-55 156.5,-55"/>
<text text-anchor="middle" x="200" y="-77.8" font-family="Arial" font-size="14.00">0x0000&#45;0x00FF</text>
<text text-anchor="middle" x="200" y="-62.8" font-family="Arial" font-size="14.00">Program Code</text>
</g>
<!-- im_start&#45;&gt;im_prog -->
<g id="edge1" class="edge">
<title>im_start&#45;&gt;im_prog</title>
<path fill="none" stroke="black" d="M91.03,-74C104.34,-74 119.56,-74 134.3,-74"/>
<polygon fill="black" stroke="black" points="134.39,-77.5 144.39,-74 134.39,-70.5 134.39,-77.5"/>
</g>
<!-- im_ro -->
<g id="node4" class="node">
<title>im_ro</title>
<path fill="none" stroke="black" d="M322,-55C322,-55 411,-55 411,-55 417,-55 423,-61 423,-67 423,-67 423,-81 423,-81 423,-87 417,-93 411,-93 411,-93 322,-93 322,-93 316,-93 310,-87 310,-81 310,-81 310,-67 310,-67 310,-61 316,-55 322,-55"/>
<text text-anchor="middle" x="366.5" y="-77.8" font-family="Arial" font-size="14.00">0x0100&#45;0xFFFF</text>
<text text-anchor="middle" x="366.5" y="-62.8" font-family="Arial" font-size="14.00">Free</text>
</g>
<!-- im_prog&#45;&gt;im_ro -->
<g id="edge2" class="edge">
<title>im_prog&#45;&gt;im_ro</title>
<path fill="none" stroke="black" d="M255.78,-74C269.76,-74 284.95,-74 299.44,-74"/>
<polygon fill="black" stroke="black" points="299.84,-77.5 309.84,-74 299.84,-70.5 299.84,-77.5"/>
</g>
<!-- dm_start -->
<g id="node5" class="node">
<title>dm_start</title>
<path fill="none" stroke="black" d="M24,-112C24,-112 77,-112 77,-112 83,-112 89,-118 89,-124 89,-124 89,-138 89,-138 89,-144 83,-150 77,-150 77,-150 24,-150 24,-150 18,-150 12,-144 12,-138 12,-138 12,-124 12,-124 12,-118 18,-112 24,-112"/>
<text text-anchor="middle" x="50.5" y="-134.8" font-family="Arial" font-size="14.00">0x0000</text>
<text text-anchor="middle" x="50.5" y="-119.8" font-family="Arial" font-size="14.00">Data Start</text>
</g>
<!-- dm_heap -->
<g id="node6" class="node">
<title>dm_heap</title>
<path fill="none" stroke="black" d="M156.5,-112C156.5,-112 243.5,-112 243.5,-112 249.5,-112 255.5,-118 255.5,-124 255.5,-124 255.5,-138 255.5,-138 255.5,-144 249.5,-150 243.5,-150 243.5,-150 156.5,-150 156.5,-150 150.5,-150 144.5,-144 144.5,-138 144.5,-138 144.5,-124 144.5,-124 144.5,-118 150.5,-112 156.5,-112"/>
<text text-anchor="middle" x="200" y="-134.8" font-family="Arial" font-size="14.00">0x0000&#45;0x00FF</text>
<text text-anchor="middle" x="200" y="-119.8" font-family="Arial" font-size="14.00">Heap/Variables</text>
</g>
<!-- dm_start&#45;&gt;dm_heap -->
<g id="edge3" class="edge">
<title>dm_start&#45;&gt;dm_heap</title>
<path fill="none" stroke="black" d="M89.1,-131C102.9,-131 118.93,-131 134.42,-131"/>
<polygon fill="black" stroke="black" points="134.48,-134.5 144.48,-131 134.48,-127.5 134.48,-134.5"/>
</g>
<!-- dm_stack -->
<g id="node7" class="node">
<title>dm_stack</title>
<path fill="none" stroke="black" d="M311,-112C311,-112 422,-112 422,-112 428,-112 434,-118 434,-124 434,-124 434,-138 434,-138 434,-144 428,-150 422,-150 422,-150 311,-150 311,-150 305,-150 299,-144 299,-138 299,-138 299,-124 299,-124 299,-118 305,-112 311,-112"/>
<text text-anchor="middle" x="366.5" y="-134.8" font-family="Arial" font-size="14.00">0xFF00&#45;0xFFFF</text>
<text text-anchor="middle" x="366.5" y="-119.8" font-family="Arial" font-size="14.00">Stack (grows down)</text>
</g>
<!-- dm_heap&#45;&gt;dm_stack -->
<g id="edge4" class="edge">
<title>dm_heap&#45;&gt;dm_stack</title>
<path fill="none" stroke="black" d="M255.78,-131C266.37,-131 277.64,-131 288.78,-131"/>
<polygon fill="black" stroke="black" points="288.95,-134.5 298.95,-131 288.95,-127.5 288.95,-134.5"/>
</g>
<!-- dm_sp -->
<g id="node8" class="node">
<title>dm_sp</title>
<path fill="none" stroke="black" d="M15.5,-169C15.5,-169 85.5,-169 85.5,-169 91.5,-169 97.5,-175 97.5,-181 97.5,-181 97.5,-195 97.5,-195 97.5,-201 91.5,-207 85.5,-207 85.5,-207 15.5,-207 15.5,-207 9.5,-207 3.5,-201 3.5,-195 3.5,-195 3.5,-181 3.5,-181 3.5,-175 9.5,-169 15.5,-169"/>
<text text-anchor="middle" x="50.5" y="-191.8" font-family="Arial" font-size="14.00">SP initialized</text>
<text text-anchor="middle" x="50.5" y="-176.8" font-family="Arial" font-size="14.00">to 0xFFFF</text>
</g>
<!-- ds_label -->
<g id="node9" class="node">
<title>ds_label</title>
<path fill="none" stroke="black" d="M89,-262C89,-262 12,-262 12,-262 6,-262 0,-256 0,-250 0,-250 0,-238 0,-238 0,-232 6,-226 12,-226 12,-226 89,-226 89,-226 95,-226 101,-232 101,-238 101,-238 101,-250 101,-250 101,-256 95,-262 89,-262"/>
<text text-anchor="middle" x="50.5" y="-240.3" font-family="Arial" font-size="14.00">.data directive</text>
</g>
<!-- ds_values -->
<g id="node10" class="node">
<title>ds_values</title>
<path fill="none" stroke="black" d="M149,-225C149,-225 251,-225 251,-225 257,-225 263,-231 263,-237 263,-237 263,-251 263,-251 263,-257 257,-263 251,-263 251,-263 149,-263 149,-263 143,-263 137,-257 137,-251 137,-251 137,-237 137,-237 137,-231 143,-225 149,-225"/>
<text text-anchor="middle" x="200" y="-247.8" font-family="Arial" font-size="14.00">Initial values</text>
<text text-anchor="middle" x="200" y="-232.8" font-family="Arial" font-size="14.00">at fixed addresses</text>
</g>
<!-- ds_label&#45;&gt;ds_values -->
<g id="edge5" class="edge">
<title>ds_label&#45;&gt;ds_values</title>
<path fill="none" stroke="black" d="M101.03,-244C109.27,-244 117.96,-244 126.63,-244"/>
<polygon fill="black" stroke="black" points="126.77,-247.5 136.77,-244 126.77,-240.5 126.77,-247.5"/>
</g>
</g>
</svg>
