<?xml version="1.0" encoding="UTF-8" standalone="no"?>
<svg xmlns="http://www.w3.org/2000/svg" version="1.1" viewBox="0 0 1151 366">
   <polyline fill="none" points="290,190 290,280 340,280 340,270" stroke="rgb(0, 0, 0)" stroke-linecap="square" stroke-width="3.0"/>
   <polyline fill="none" points="470,190 580,190" stroke="rgb(0, 0, 0)" stroke-linecap="square" stroke-width="4.0"/>
   <polyline fill="none" points="470,210 580,210" stroke="rgb(0, 0, 0)" stroke-linecap="square" stroke-width="4.0"/>
   <polyline fill="none" points="370,210 390,210 410,210 410,200 440,200" stroke="rgb(0, 0, 0)" stroke-linecap="square" stroke-width="4.0"/>
   <polyline fill="none" points="580,100 450,100 450,80 460,80" stroke="rgb(0, 0, 0)" stroke-linecap="square" stroke-width="4.0"/>
   <polyline fill="none" points="410,80 290,80 290,60 300,60" stroke="rgb(0, 0, 0)" stroke-linecap="square" stroke-width="4.0"/>
   <polyline fill="none" points="430,100 430,280 340,280" stroke="rgb(0, 0, 0)" stroke-linecap="square" stroke-width="3.0"/>
   <polyline fill="none" points="220,100 220,50 230,50" stroke="rgb(0, 0, 0)" stroke-linecap="square" stroke-width="4.0"/>
   <polyline fill="none" points="210,130 210,140" stroke="rgb(0, 0, 0)" stroke-linecap="square" stroke-width="4.0"/>
   <polyline fill="none" points="240,280 290,280" stroke="rgb(0, 0, 0)" stroke-linecap="square" stroke-width="3.0"/>
   <polyline fill="none" points="390,60 400,60 400,70 410,70" stroke="rgb(0, 0, 0)" stroke-linecap="square" stroke-width="3.0"/>
   <polyline fill="none" points="300,230 300,300 270,300" stroke="rgb(0, 0, 0)" stroke-linecap="square" stroke-width="3.0"/>
   <polyline fill="none" points="480,300 580,300" stroke="rgb(0, 0, 0)" stroke-linecap="square" stroke-width="3.0"/>
   <polyline fill="none" points="390,210 390,330 580,330" stroke="rgb(0, 0, 0)" stroke-linecap="square" stroke-width="4.0"/>
   <polyline fill="none" points="520,270 580,270" stroke="rgb(0, 0, 0)" stroke-linecap="square" stroke-width="3.0"/>
   <polyline fill="none" points="240,190 280,190 280,220 300,220 300,230 310,230" stroke="rgb(0, 0, 0)" stroke-linecap="square" stroke-width="3.0"/>
   <polyline fill="none" points="270,80 290,80" stroke="rgb(0, 0, 0)" stroke-linecap="square" stroke-width="4.0"/>
   <polyline fill="none" points="350,130 340,130 340,100 340,70 360,70" stroke="rgb(0, 0, 0)" stroke-linecap="square" stroke-width="3.0"/>
   <polyline fill="none" points="230,130 230,170 170,170" stroke="rgb(0, 0, 0)" stroke-linecap="square" stroke-width="4.0"/>
   <polyline fill="none" points="320,130 330,130 330,160 460,160 480,160 480,260 490,260" stroke="rgb(0, 0, 0)" stroke-linecap="square" stroke-width="3.0"/>
   <polyline fill="none" points="580,240 450,240 450,300 480,300 480,280 490,280" stroke="rgb(0, 0, 0)" stroke-linecap="square" stroke-width="3.0"/>
   <polyline fill="none" points="300,300 450,300" stroke="rgb(0, 0, 0)" stroke-linecap="square" stroke-width="3.0"/>
   <polyline fill="none" points="250,250 280,250" stroke="rgb(0, 0, 0)" stroke-linecap="square" stroke-width="3.0"/>
   <polyline fill="none" points="190,120 190,90 410,90" stroke="rgb(0, 0, 0)" stroke-linecap="square" stroke-width="3.0"/>
   <polyline fill="none" points="440,80 450,80" stroke="rgb(0, 0, 0)" stroke-linecap="square" stroke-width="4.0"/>
   <polyline fill="none" points="310,250 280,250 280,290 420,290 420,100" stroke="rgb(0, 0, 0)" stroke-linecap="square" stroke-width="3.0"/>
   <polyline fill="none" points="340,100 250,100 250,130 260,130" stroke="rgb(0, 0, 0)" stroke-linecap="square" stroke-width="3.0"/>
   <polyline fill="none" points="240,250 250,250 250,170 260,170" stroke="rgb(0, 0, 0)" stroke-linecap="square" stroke-width="3.0"/>
   <polyline fill="none" points="350,50 360,50" stroke="rgb(0, 0, 0)" stroke-linecap="square" stroke-width="3.0"/>
   <polyline fill="none" points="230,210 310,210" stroke="rgb(0, 0, 0)" stroke-linecap="square" stroke-width="4.0"/>
   <ellipse cx="290.0" cy="280.0" fill="rgb(0, 0, 0)" rx="5.0" ry="5.0" stroke="none" stroke-width="4.0"/>
   <ellipse cx="300.0" cy="230.0" fill="rgb(0, 0, 0)" rx="5.0" ry="5.0" stroke="none" stroke-width="4.0"/>
   <ellipse cx="250.0" cy="250.0" fill="rgb(0, 0, 0)" rx="5.0" ry="5.0" stroke="none" stroke-width="4.0"/>
   <ellipse cx="340.0" cy="280.0" fill="rgb(0, 0, 0)" rx="5.0" ry="5.0" stroke="none" stroke-width="4.0"/>
   <ellipse cx="480.0" cy="300.0" fill="rgb(0, 0, 0)" rx="5.0" ry="5.0" stroke="none" stroke-width="4.0"/>
   <ellipse cx="460.0" cy="160.0" fill="rgb(0, 0, 0)" rx="5.0" ry="5.0" stroke="none" stroke-width="4.0"/>
   <ellipse cx="290.0" cy="80.0" fill="rgb(0, 0, 0)" rx="6.0" ry="6.0" stroke="none" stroke-width="4.0"/>
   <ellipse cx="190.0" cy="120.0" fill="rgb(0, 0, 0)" rx="5.0" ry="5.0" stroke="none" stroke-width="4.0"/>
   <ellipse cx="300.0" cy="300.0" fill="rgb(0, 0, 0)" rx="5.0" ry="5.0" stroke="none" stroke-width="4.0"/>
   <ellipse cx="230.0" cy="170.0" fill="rgb(0, 0, 0)" rx="6.0" ry="6.0" stroke="none" stroke-width="4.0"/>
   <ellipse cx="340.0" cy="100.0" fill="rgb(0, 0, 0)" rx="5.0" ry="5.0" stroke="none" stroke-width="4.0"/>
   <ellipse cx="450.0" cy="300.0" fill="rgb(0, 0, 0)" rx="5.0" ry="5.0" stroke="none" stroke-width="4.0"/>
   <ellipse cx="230.0" cy="210.0" fill="rgb(0, 0, 0)" rx="6.0" ry="6.0" stroke="none" stroke-width="4.0"/>
   <ellipse cx="450.0" cy="80.0" fill="rgb(0, 0, 0)" rx="6.0" ry="6.0" stroke="none" stroke-width="4.0"/>
   <ellipse cx="240.0" cy="190.0" fill="rgb(0, 0, 0)" rx="5.0" ry="5.0" stroke="none" stroke-width="4.0"/>
   <ellipse cx="280.0" cy="250.0" fill="rgb(0, 0, 0)" rx="5.0" ry="5.0" stroke="none" stroke-width="4.0"/>
   <ellipse cx="390.0" cy="210.0" fill="rgb(0, 0, 0)" rx="6.0" ry="6.0" stroke="none" stroke-width="4.0"/>
   <polyline fill="none" points="461,80 466,80" stroke="rgb(0, 0, 0)" stroke-linecap="square" stroke-width="5.0"/>
   <polyline fill="none" points="466,71 466,79" stroke="rgb(0, 0, 0)" stroke-linecap="square" stroke-width="5.0"/>
   <text fill="rgb(0, 0, 0)" font-family="SansSerif" font-size="7" x="469.0" y="67.0">0</text>
   <text fill="rgb(0, 0, 0)" font-family="SansSerif" font-size="7" x="469.0" y="77.0">1</text>
   <ellipse cx="460.0" cy="80.0" fill="rgb(0, 0, 0)" rx="2.0" ry="2.0" stroke="none" stroke-width="5.0"/>
   <ellipse cx="480.0" cy="70.0" fill="rgb(0, 0, 0)" rx="2.0" ry="2.0" stroke="none" stroke-width="5.0"/>
   <ellipse cx="480.0" cy="80.0" fill="rgb(0, 0, 0)" rx="2.0" ry="2.0" stroke="none" stroke-width="5.0"/>
   <polyline fill="none" points="584,100 583,100" stroke="rgb(0, 0, 0)" stroke-linecap="square" stroke-width="4.0"/>
   <polygon fill="none" points="620,91 630,100 620,109 586,109 586,91" stroke="rgb(3, 3, 3)" stroke-linecap="square" stroke-width="2.0"/>
   <text fill="rgb(3, 3, 3)" font-family="Monospaced" font-size="12" x="591.0" y="106.0">x2</text>
   <text fill="rgb(3, 3, 3)" font-family="Monospaced" font-size="16" font-weight="bold" x="632.0" y="107.0">count</text>
   <ellipse cx="580.0" cy="100.0" fill="rgb(0, 0, 0)" rx="2.0" ry="2.0" stroke="none" stroke-width="2.0"/>
   <polyline fill="none" points="584,190 583,190" stroke="rgb(0, 0, 0)" stroke-linecap="square" stroke-width="4.0"/>
   <polygon fill="none" points="680,181 690,190 680,199 586,199 586,181" stroke="rgb(3, 3, 3)" stroke-linecap="square" stroke-width="2.0"/>
   <text fill="rgb(3, 3, 3)" font-family="Monospaced" font-size="12" x="621.0" y="196.0">x8</text>
   <text fill="rgb(3, 3, 3)" font-family="Monospaced" font-size="16" font-weight="bold" x="692.0" y="197.0">pipelineRegisters</text>
   <ellipse cx="580.0" cy="190.0" fill="rgb(0, 0, 0)" rx="2.0" ry="2.0" stroke="none" stroke-width="2.0"/>
   <polyline fill="none" points="584,210 583,210" stroke="rgb(0, 0, 0)" stroke-linecap="square" stroke-width="4.0"/>
   <polygon fill="none" points="680,201 690,210 680,219 586,219 586,201" stroke="rgb(3, 3, 3)" stroke-linecap="square" stroke-width="2.0"/>
   <text fill="rgb(3, 3, 3)" font-family="Monospaced" font-size="12" x="621.0" y="216.0">x8</text>
   <text fill="rgb(3, 3, 3)" font-family="Monospaced" font-size="16" font-weight="bold" x="692.0" y="217.0">pipeline</text>
   <ellipse cx="580.0" cy="210.0" fill="rgb(0, 0, 0)" rx="2.0" ry="2.0" stroke="none" stroke-width="2.0"/>
   <polyline fill="none" points="584,240 581,240" stroke="rgb(3, 3, 3)" stroke-linecap="square" stroke-width="3.0"/>
   <polygon fill="none" points="610,231 620,240 610,249 586,249 586,231" stroke="rgb(3, 3, 3)" stroke-linecap="square" stroke-width="2.0"/>
   <text fill="rgb(3, 3, 3)" font-family="Monospaced" font-size="12" x="586.0" y="246.0">x1</text>
   <text fill="rgb(3, 3, 3)" font-family="Monospaced" font-size="16" font-weight="bold" x="622.0" y="247.0">delayOUT</text>
   <ellipse cx="580.0" cy="240.0" fill="rgb(0, 0, 0)" rx="2.0" ry="2.0" stroke="none" stroke-width="2.0"/>
   <polyline fill="none" points="584,270 581,270" stroke="rgb(3, 3, 3)" stroke-linecap="square" stroke-width="3.0"/>
   <polygon fill="none" points="610,261 620,270 610,279 586,279 586,261" stroke="rgb(3, 3, 3)" stroke-linecap="square" stroke-width="2.0"/>
   <text fill="rgb(3, 3, 3)" font-family="Monospaced" font-size="12" x="586.0" y="276.0">x1</text>
   <text fill="rgb(3, 3, 3)" font-family="Monospaced" font-size="16" font-weight="bold" x="622.0" y="277.0">ready</text>
   <ellipse cx="580.0" cy="270.0" fill="rgb(0, 0, 0)" rx="2.0" ry="2.0" stroke="none" stroke-width="2.0"/>
   <polyline fill="none" points="584,300 581,300" stroke="rgb(3, 3, 3)" stroke-linecap="square" stroke-width="3.0"/>
   <polygon fill="none" points="610,291 620,300 610,309 586,309 586,291" stroke="rgb(3, 3, 3)" stroke-linecap="square" stroke-width="2.0"/>
   <text fill="rgb(3, 3, 3)" font-family="Monospaced" font-size="12" x="586.0" y="306.0">x1</text>
   <text fill="rgb(3, 3, 3)" font-family="Monospaced" font-size="16" font-weight="bold" x="622.0" y="307.0">incPC</text>
   <ellipse cx="580.0" cy="300.0" fill="rgb(0, 0, 0)" rx="2.0" ry="2.0" stroke="none" stroke-width="2.0"/>
   <polyline fill="none" points="584,330 583,330" stroke="rgb(0, 0, 0)" stroke-linecap="square" stroke-width="4.0"/>
   <polygon fill="none" points="680,321 690,330 680,339 586,339 586,321" stroke="rgb(3, 3, 3)" stroke-linecap="square" stroke-width="2.0"/>
   <text fill="rgb(3, 3, 3)" font-family="Monospaced" font-size="12" x="621.0" y="336.0">x8</text>
   <text fill="rgb(3, 3, 3)" font-family="Monospaced" font-size="16" font-weight="bold" x="692.0" y="337.0">fetchReg</text>
   <ellipse cx="580.0" cy="330.0" fill="rgb(0, 0, 0)" rx="2.0" ry="2.0" stroke="none" stroke-width="2.0"/>
   <rect fill="rgb(255, 240, 153)" height="18" rx="10.0" ry="10.0" stroke="none" stroke-linecap="square" stroke-width="1.0" width="18" x="151" y="161"/>
   <rect fill="none" height="18" rx="10.0" ry="10.0" stroke="rgb(192, 192, 192)" stroke-linecap="square" stroke-width="1.0" width="18" x="151" y="161"/>
   <text fill="rgb(64, 64, 64)" font-family="SansSerif" font-size="12" x="153.0" y="176.0">x8</text>
   <ellipse cx="170.0" cy="170.0" fill="rgb(0, 0, 0)" rx="2.0" ry="2.0" stroke="none" stroke-width="1.0"/>
   <text fill="rgb(0, 0, 0)" font-family="Monospaced" font-size="12" x="203.0" y="152.0">00</text>
   <ellipse cx="210.0" cy="140.0" fill="rgb(0, 0, 0)" rx="2.0" ry="2.0" stroke="none" stroke-width="1.0"/>
   <polyline fill="none" points="217,210 220,210 230,210 230,170" stroke="rgb(0, 0, 0)" stroke-linecap="square" stroke-width="4.0"/>
   <polygon fill="none" points="205,219 215,210 205,201 111,201 111,219" stroke="rgb(3, 3, 3)" stroke-linecap="square" stroke-width="2.0"/>
   <text fill="rgb(3, 3, 3)" font-family="Monospaced" font-size="12" x="151.0" y="216.0">x8</text>
   <text fill="rgb(3, 3, 3)" font-family="Monospaced" font-size="16" font-weight="bold" x="5.0" y="217.0">instrORimm</text>
   <ellipse cx="220.0" cy="210.0" fill="rgb(0, 0, 0)" rx="2.0" ry="2.0" stroke="none" stroke-width="2.0"/>
   <polyline fill="none" points="250,10 236,10" stroke="rgb(0, 0, 0)" stroke-linecap="square" stroke-width="3.0"/>
   <polyline fill="none" points="250,20 236,20" stroke="rgb(0, 0, 0)" stroke-linecap="square" stroke-width="3.0"/>
   <polyline fill="none" points="250,30 236,30" stroke="rgb(0, 0, 0)" stroke-linecap="square" stroke-width="3.0"/>
   <polyline fill="none" points="250,40 236,40" stroke="rgb(0, 0, 0)" stroke-linecap="square" stroke-width="3.0"/>
   <polyline fill="none" points="250,50 236,50" stroke="rgb(0, 0, 0)" stroke-linecap="square" stroke-width="3.0"/>
   <polyline fill="none" points="250,60 236,60" stroke="rgb(0, 0, 0)" stroke-linecap="square" stroke-width="3.0"/>
   <polyline fill="none" points="231,50 236,50" stroke="rgb(0, 0, 0)" stroke-linecap="square" stroke-width="5.0"/>
   <polyline fill="none" points="236,11 236,79" stroke="rgb(0, 0, 0)" stroke-linecap="square" stroke-width="5.0"/>
   <text fill="rgb(0, 0, 0)" font-family="SansSerif" font-size="7" x="239.0" y="7.0">0</text>
   <text fill="rgb(0, 0, 0)" font-family="SansSerif" font-size="7" x="239.0" y="17.0">1</text>
   <text fill="rgb(0, 0, 0)" font-family="SansSerif" font-size="7" x="239.0" y="27.0">2</text>
   <text fill="rgb(0, 0, 0)" font-family="SansSerif" font-size="7" x="239.0" y="37.0">3</text>
   <text fill="rgb(0, 0, 0)" font-family="SansSerif" font-size="7" x="239.0" y="47.0">4</text>
   <text fill="rgb(0, 0, 0)" font-family="SansSerif" font-size="7" x="239.0" y="57.0">5</text>
   <text fill="rgb(0, 0, 0)" font-family="SansSerif" font-size="7" x="239.0" y="67.0">6</text>
   <text fill="rgb(0, 0, 0)" font-family="SansSerif" font-size="7" x="239.0" y="77.0">7</text>
   <ellipse cx="230.0" cy="50.0" fill="rgb(0, 0, 0)" rx="2.0" ry="2.0" stroke="none" stroke-width="5.0"/>
   <ellipse cx="250.0" cy="10.0" fill="rgb(0, 0, 0)" rx="2.0" ry="2.0" stroke="none" stroke-width="5.0"/>
   <ellipse cx="250.0" cy="20.0" fill="rgb(0, 0, 0)" rx="2.0" ry="2.0" stroke="none" stroke-width="5.0"/>
   <ellipse cx="250.0" cy="30.0" fill="rgb(0, 0, 0)" rx="2.0" ry="2.0" stroke="none" stroke-width="5.0"/>
   <ellipse cx="250.0" cy="40.0" fill="rgb(0, 0, 0)" rx="2.0" ry="2.0" stroke="none" stroke-width="5.0"/>
   <ellipse cx="250.0" cy="50.0" fill="rgb(0, 0, 0)" rx="2.0" ry="2.0" stroke="none" stroke-width="5.0"/>
   <ellipse cx="250.0" cy="60.0" fill="rgb(0, 0, 0)" rx="2.0" ry="2.0" stroke="none" stroke-width="5.0"/>
   <ellipse cx="250.0" cy="70.0" fill="rgb(0, 0, 0)" rx="2.0" ry="2.0" stroke="none" stroke-width="5.0"/>
   <ellipse cx="250.0" cy="80.0" fill="rgb(0, 0, 0)" rx="2.0" ry="2.0" stroke="none" stroke-width="5.0"/>
   <polyline fill="none" points="235,250 240,250" stroke="rgb(3, 3, 3)" stroke-linecap="square" stroke-width="3.0"/>
   <polygon fill="none" points="225,259 235,250 225,241 201,241 201,259" stroke="rgb(3, 3, 3)" stroke-linecap="square" stroke-width="2.0"/>
   <text fill="rgb(3, 3, 3)" font-family="Monospaced" font-size="12" x="206.0" y="256.0">x1</text>
   <text fill="rgb(3, 3, 3)" font-family="Monospaced" font-size="16" font-weight="bold" x="173.0" y="257.0">clk</text>
   <ellipse cx="240.0" cy="250.0" fill="rgb(0, 0, 0)" rx="2.0" ry="2.0" stroke="none" stroke-width="2.0"/>
   <polyline fill="none" points="235,280 240,280" stroke="rgb(3, 3, 3)" stroke-linecap="square" stroke-width="3.0"/>
   <polygon fill="none" points="225,289 235,280 225,271 201,271 201,289" stroke="rgb(3, 3, 3)" stroke-linecap="square" stroke-width="2.0"/>
   <text fill="rgb(3, 3, 3)" font-family="Monospaced" font-size="12" x="206.0" y="286.0">x1</text>
   <text fill="rgb(3, 3, 3)" font-family="Monospaced" font-size="16" font-weight="bold" x="150.0" y="287.0">reset</text>
   <ellipse cx="240.0" cy="280.0" fill="rgb(0, 0, 0)" rx="2.0" ry="2.0" stroke="none" stroke-width="2.0"/>
   <polyline fill="none" points="235,320 240,320" stroke="rgb(3, 3, 3)" stroke-linecap="square" stroke-width="3.0"/>
   <polygon fill="none" points="225,329 235,320 225,311 201,311 201,329" stroke="rgb(3, 3, 3)" stroke-linecap="square" stroke-width="2.0"/>
   <text fill="rgb(3, 3, 3)" font-family="Monospaced" font-size="12" x="206.0" y="326.0">x1</text>
   <text fill="rgb(3, 3, 3)" font-family="Monospaced" font-size="16" font-weight="bold" x="133.0" y="327.0">delayIN</text>
   <ellipse cx="240.0" cy="320.0" fill="rgb(0, 0, 0)" rx="2.0" ry="2.0" stroke="none" stroke-width="2.0"/>
   <polyline fill="none" points="235,350 240,350" stroke="rgb(3, 3, 3)" stroke-linecap="square" stroke-width="3.0"/>
   <polygon fill="none" points="225,359 235,350 225,341 201,341 201,359" stroke="rgb(3, 3, 3)" stroke-linecap="square" stroke-width="2.0"/>
   <text fill="rgb(3, 3, 3)" font-family="Monospaced" font-size="12" x="206.0" y="356.0">x1</text>
   <text fill="rgb(3, 3, 3)" font-family="Monospaced" font-size="16" font-weight="bold" x="162.0" y="357.0">stall</text>
   <ellipse cx="240.0" cy="350.0" fill="rgb(0, 0, 0)" rx="2.0" ry="2.0" stroke="none" stroke-width="2.0"/>
   <ellipse cx="250.0" cy="10.0" fill="rgb(0, 0, 0)" rx="2.0" ry="2.0" stroke="none" stroke-width="1.0"/>
   <ellipse cx="250.0" cy="20.0" fill="rgb(0, 0, 0)" rx="2.0" ry="2.0" stroke="none" stroke-width="1.0"/>
   <ellipse cx="250.0" cy="30.0" fill="rgb(0, 0, 0)" rx="2.0" ry="2.0" stroke="none" stroke-width="1.0"/>
   <ellipse cx="250.0" cy="40.0" fill="rgb(0, 0, 0)" rx="2.0" ry="2.0" stroke="none" stroke-width="1.0"/>
   <ellipse cx="250.0" cy="50.0" fill="rgb(0, 0, 0)" rx="2.0" ry="2.0" stroke="none" stroke-width="1.0"/>
   <polyline fill="none" points="255,5 245,15 255,25 245,35 255,45 245,55 255,65" stroke="rgb(255, 0, 0)" stroke-linecap="square" stroke-width="1.0"/>
   <polyline fill="none" points="245,65 255,55 245,45 255,35 245,25 255,15 245,5" stroke="rgb(255, 0, 0)" stroke-linecap="square" stroke-width="1.0"/>
   <ellipse cx="250.0" cy="60.0" fill="rgb(0, 0, 0)" rx="2.0" ry="2.0" stroke="none" stroke-width="1.0"/>
   <polyline fill="none" points="236,70 250,70 264,70" stroke="rgb(0, 0, 0)" stroke-linecap="square" stroke-width="3.0"/>
   <polyline fill="none" points="236,80 250,80 264,80" stroke="rgb(0, 0, 0)" stroke-linecap="square" stroke-width="3.0"/>
   <polyline fill="none" points="269,80 264,80" stroke="rgb(0, 0, 0)" stroke-linecap="square" stroke-width="5.0"/>
   <polyline fill="none" points="264,71 264,79" stroke="rgb(0, 0, 0)" stroke-linecap="square" stroke-width="5.0"/>
   <text fill="rgb(0, 0, 0)" font-family="SansSerif" font-size="7" x="257.0" y="67.0">0</text>
   <text fill="rgb(0, 0, 0)" font-family="SansSerif" font-size="7" x="257.0" y="77.0">1</text>
   <ellipse cx="270.0" cy="80.0" fill="rgb(0, 0, 0)" rx="2.0" ry="2.0" stroke="none" stroke-width="5.0"/>
   <ellipse cx="250.0" cy="70.0" fill="rgb(0, 0, 0)" rx="2.0" ry="2.0" stroke="none" stroke-width="5.0"/>
   <ellipse cx="250.0" cy="80.0" fill="rgb(0, 0, 0)" rx="2.0" ry="2.0" stroke="none" stroke-width="5.0"/>
   <text fill="rgb(0, 0, 0)" font-family="Monospaced" font-size="12" x="260.0" y="304.0">1</text>
   <ellipse cx="270.0" cy="300.0" fill="rgb(0, 0, 0)" rx="2.0" ry="2.0" stroke="none" stroke-width="1.0"/>
   <polyline fill="none" points="301,60 306,60" stroke="rgb(0, 0, 0)" stroke-linecap="square" stroke-width="5.0"/>
   <polyline fill="none" points="306,51 306,59" stroke="rgb(0, 0, 0)" stroke-linecap="square" stroke-width="5.0"/>
   <text fill="rgb(0, 0, 0)" font-family="SansSerif" font-size="7" x="309.0" y="47.0">0</text>
   <text fill="rgb(0, 0, 0)" font-family="SansSerif" font-size="7" x="309.0" y="57.0">1</text>
   <ellipse cx="300.0" cy="60.0" fill="rgb(0, 0, 0)" rx="2.0" ry="2.0" stroke="none" stroke-width="5.0"/>
   <ellipse cx="320.0" cy="50.0" fill="rgb(0, 0, 0)" rx="2.0" ry="2.0" stroke="none" stroke-width="5.0"/>
   <ellipse cx="320.0" cy="60.0" fill="rgb(0, 0, 0)" rx="2.0" ry="2.0" stroke="none" stroke-width="5.0"/>
   <text fill="rgb(0, 0, 0)" font-family="Monospaced" font-size="12" x="362.0" y="184.0">00</text>
   <ellipse cx="380.0" cy="180.0" fill="rgb(0, 0, 0)" rx="2.0" ry="2.0" stroke="none" stroke-width="1.0"/>
   <text fill="rgb(0, 0, 0)" font-family="Monospaced" font-size="12" x="417.0" y="56.0">0</text>
   <ellipse cx="420.0" cy="60.0" fill="rgb(0, 0, 0)" rx="2.0" ry="2.0" stroke="none" stroke-width="1.0"/>
   <path d="M505.0,285.0 A15.0,15.0 90.0 0,0 505.0,255.0" fill="none" stroke="rgb(3, 3, 3)" stroke-width="2.0"/>
   <polyline fill="none" points="505,255 491,255 491,285 505,285" stroke="rgb(3, 3, 3)" stroke-linecap="square" stroke-width="2.0"/>
   <polyline fill="none" points="320,40 320,40 320,50 306,50" stroke="rgb(0, 0, 0)" stroke-linecap="square" stroke-width="3.0"/>
   <polyline fill="none" points="320,60 320,60 306,60" stroke="rgb(0, 0, 0)" stroke-linecap="square" stroke-width="3.0"/>
   <path d=" M350.0,50.0 C340.0,35.0 340.0,35.0 320.0,35.0 C328.0,50.0 328.0,50.0 320.0,65.0 C340.0,65.0 340.0,65.0 350.0,50.0 Z" fill="none" stroke="rgb(3, 3, 3)" stroke-linecap="square" stroke-width="2.0"/>
   <polyline fill="none" points="466,70 480,70 490,70 490,120 390,120 385,120" stroke="rgb(0, 0, 0)" stroke-linecap="square" stroke-width="3.0"/>
   <polyline fill="none" points="466,80 480,80 480,140 390,140 385,140" stroke="rgb(0, 0, 0)" stroke-linecap="square" stroke-width="3.0"/>
   <path d=" M360.0,130.0 C370.0,145.0 370.0,145.0 390.0,145.0 C382.0,130.0 382.0,130.0 390.0,115.0 C370.0,115.0 370.0,115.0 360.0,130.0 Z" fill="none" stroke="rgb(3, 3, 3)" stroke-linecap="square" stroke-width="2.0"/>
   <ellipse fill="none" rx="4.5" ry="4.5" stroke="rgb(3, 3, 3)" stroke-width="2.0" transform="translate(355.0 130.0) rotate(-180)"/>
   <path d="M375.0,75.0 A15.0,15.0 90.0 0,0 375.0,45.0" fill="none" stroke="rgb(3, 3, 3)" stroke-width="2.0"/>
   <polyline fill="none" points="375,45 361,45 361,75 375,75" stroke="rgb(3, 3, 3)" stroke-linecap="square" stroke-width="2.0"/>
   <polyline fill="none" points="460,160 460,180 460,182" stroke="rgb(0, 0, 0)" stroke-linecap="square" stroke-width="3.0"/>
   <ellipse cx="460.0" cy="185.0" fill="rgb(192, 192, 192)" rx="3.0" ry="3.0" stroke="none" stroke-width="1.0"/>
   <text fill="rgb(128, 128, 128)" font-family="SansSerif" font-size="12" x="459.0" y="195.0">0</text>
   <polygon fill="none" points="440,190 470,180 470,220 440,210" stroke="rgb(3, 3, 3)" stroke-linecap="square" stroke-width="2.0"/>
   <text fill="rgb(3, 3, 3)" font-family="SansSerif" font-size="12" x="442.0" y="206.0">DMX</text>
   <ellipse cx="470.0" cy="190.0" fill="rgb(0, 0, 0)" rx="2.0" ry="2.0" stroke="none" stroke-width="2.0"/>
   <ellipse cx="470.0" cy="210.0" fill="rgb(0, 0, 0)" rx="2.0" ry="2.0" stroke="none" stroke-width="2.0"/>
   <ellipse cx="460.0" cy="180.0" fill="rgb(0, 0, 0)" rx="2.0" ry="2.0" stroke="none" stroke-width="2.0"/>
   <ellipse cx="440.0" cy="200.0" fill="rgb(0, 0, 0)" rx="2.0" ry="2.0" stroke="none" stroke-width="2.0"/>
   <polyline fill="none" points="204,120 200,120 190,120 190,190 240,190 240,150 260,150" stroke="rgb(0, 0, 0)" stroke-linecap="square" stroke-width="3.0"/>
   <ellipse cx="205.0" cy="120.0" fill="rgb(192, 192, 192)" rx="3.0" ry="3.0" stroke="none" stroke-width="1.0"/>
   <text fill="rgb(128, 128, 128)" font-family="SansSerif" font-size="12" x="206.0" y="128.0">0</text>
   <polygon fill="none" points="210,100 230,100 240,130 200,130" stroke="rgb(3, 3, 3)" stroke-linecap="square" stroke-width="2.0"/>
   <text fill="rgb(3, 3, 3)" font-family="SansSerif" font-size="12" x="207.0" y="121.0">MUX</text>
   <ellipse cx="210.0" cy="130.0" fill="rgb(0, 0, 0)" rx="2.0" ry="2.0" stroke="none" stroke-width="2.0"/>
   <ellipse cx="230.0" cy="130.0" fill="rgb(0, 0, 0)" rx="2.0" ry="2.0" stroke="none" stroke-width="2.0"/>
   <ellipse cx="200.0" cy="120.0" fill="rgb(0, 0, 0)" rx="2.0" ry="2.0" stroke="none" stroke-width="2.0"/>
   <ellipse cx="220.0" cy="100.0" fill="rgb(0, 0, 0)" rx="2.0" ry="2.0" stroke="none" stroke-width="2.0"/>
   <polyline fill="none" points="410,60 439,60" stroke="rgb(3, 3, 3)" stroke-linecap="square" stroke-width="2.0"/>
   <polyline fill="none" points="440,60 440,99" stroke="rgb(3, 3, 3)" stroke-linecap="square" stroke-width="2.0"/>
   <polyline fill="none" points="440,100 411,100" stroke="rgb(3, 3, 3)" stroke-linecap="square" stroke-width="2.0"/>
   <polyline fill="none" points="410,100 410,61" stroke="rgb(3, 3, 3)" stroke-linecap="square" stroke-width="2.0"/>
   <ellipse cx="410.0" cy="80.0" fill="rgb(3, 3, 3)" rx="2.0" ry="2.0" stroke="none" stroke-width="1.0"/>
   <ellipse cx="440.0" cy="80.0" fill="rgb(3, 3, 3)" rx="2.0" ry="2.0" stroke="none" stroke-width="1.0"/>
   <ellipse cx="410.0" cy="70.0" fill="rgb(3, 3, 3)" rx="2.0" ry="2.0" stroke="none" stroke-width="1.0"/>
   <ellipse cx="420.0" cy="60.0" fill="rgb(3, 3, 3)" rx="2.0" ry="2.0" stroke="none" stroke-width="1.0"/>
   <ellipse cx="440.0" cy="90.0" fill="rgb(3, 3, 3)" rx="2.0" ry="2.0" stroke="none" stroke-width="1.0"/>
   <ellipse cx="430.0" cy="100.0" fill="rgb(0, 0, 0)" rx="2.0" ry="2.0" stroke="none" stroke-width="1.0"/>
   <text fill="rgb(153, 153, 153)" font-family="SansSerif" font-size="12" x="426.0" y="97.0">0</text>
   <ellipse cx="410.0" cy="90.0" fill="rgb(0, 0, 0)" rx="2.0" ry="2.0" stroke="none" stroke-width="1.0"/>
   <text fill="rgb(153, 153, 153)" font-family="SansSerif" font-size="12" x="413.0" y="96.0">ct</text>
   <polyline fill="none" points="423,99 420,96 417,99" stroke="rgb(3, 3, 3)" stroke-linecap="square" stroke-width="2.0"/>
   <text fill="rgb(3, 3, 3)" font-family="SansSerif" font-size="12" x="417.0" y="75.0">ctr</text>
   <text fill="rgb(3, 3, 3)" font-family="SansSerif" font-size="12" x="412.0" y="87.0">(2b)</text>
   <polyline fill="none" points="260,130 268,130" stroke="rgb(3, 3, 3)" stroke-linecap="square" stroke-width="2.0"/>
   <polyline fill="none" points="312,130 320,130" stroke="rgb(3, 3, 3)" stroke-linecap="square" stroke-width="2.0"/>
   <polyline fill="none" points="270,120 309,120" stroke="rgb(3, 3, 3)" stroke-linecap="square" stroke-width="2.0"/>
   <polyline fill="none" points="310,120 310,179" stroke="rgb(3, 3, 3)" stroke-linecap="square" stroke-width="2.0"/>
   <polyline fill="none" points="310,180 271,180" stroke="rgb(3, 3, 3)" stroke-linecap="square" stroke-width="2.0"/>
   <polyline fill="none" points="270,180 270,121" stroke="rgb(3, 3, 3)" stroke-linecap="square" stroke-width="2.0"/>
   <text fill="rgb(3, 3, 3)" font-family="SansSerif" font-size="12" x="274.0" y="134.0">D</text>
   <text fill="rgb(3, 3, 3)" font-family="SansSerif" font-size="12" x="297.0" y="134.0">Q</text>
   <polyline fill="none" points="290,181 290,190" stroke="rgb(3, 3, 3)" stroke-linecap="square" stroke-width="2.0"/>
   <text fill="rgb(153, 153, 153)" font-family="SansSerif" font-size="12" x="286.0" y="174.0">R</text>
   <text fill="rgb(3, 3, 3)" font-family="SansSerif" font-size="12" x="273.0" y="154.0">WE</text>
   <polyline fill="none" points="260,150 269,150" stroke="rgb(3, 3, 3)" stroke-linecap="square" stroke-width="2.0"/>
   <polyline fill="none" points="271,166 278,170 271,174" stroke="rgb(3, 3, 3)" stroke-linecap="square" stroke-width="2.0"/>
   <polyline fill="none" points="260,170 269,170" stroke="rgb(3, 3, 3)" stroke-linecap="square" stroke-width="2.0"/>
   <ellipse cx="260.0" cy="130.0" fill="rgb(3, 3, 3)" rx="2.0" ry="2.0" stroke="none" stroke-width="1.0"/>
   <ellipse cx="320.0" cy="130.0" fill="rgb(3, 3, 3)" rx="2.0" ry="2.0" stroke="none" stroke-width="1.0"/>
   <ellipse cx="290.0" cy="190.0" fill="rgb(3, 3, 3)" rx="2.0" ry="2.0" stroke="none" stroke-width="1.0"/>
   <ellipse cx="260.0" cy="150.0" fill="rgb(3, 3, 3)" rx="2.0" ry="2.0" stroke="none" stroke-width="1.0"/>
   <ellipse cx="260.0" cy="170.0" fill="rgb(3, 3, 3)" rx="2.0" ry="2.0" stroke="none" stroke-width="1.0"/>
   <polyline fill="none" points="360,205 365,205 365,265 325,265 325,260" stroke="rgb(3, 3, 3)" stroke-linecap="square" stroke-width="2.0"/>
   <polyline fill="none" points="365,210 370,210 370,270 330,270 330,265" stroke="rgb(3, 3, 3)" stroke-linecap="square" stroke-width="2.0"/>
   <polyline fill="none" points="310,210 318,210" stroke="rgb(0, 0, 0)" stroke-linecap="square" stroke-width="5.0"/>
   <polyline fill="none" points="362,210 370,210" stroke="rgb(0, 0, 0)" stroke-linecap="square" stroke-width="5.0"/>
   <polyline fill="none" points="320,200 359,200" stroke="rgb(3, 3, 3)" stroke-linecap="square" stroke-width="2.0"/>
   <polyline fill="none" points="360,200 360,259" stroke="rgb(3, 3, 3)" stroke-linecap="square" stroke-width="2.0"/>
   <polyline fill="none" points="360,260 321,260" stroke="rgb(3, 3, 3)" stroke-linecap="square" stroke-width="2.0"/>
   <polyline fill="none" points="320,260 320,201" stroke="rgb(3, 3, 3)" stroke-linecap="square" stroke-width="2.0"/>
   <text fill="rgb(3, 3, 3)" font-family="SansSerif" font-size="12" x="324.0" y="214.0">D</text>
   <text fill="rgb(3, 3, 3)" font-family="SansSerif" font-size="12" x="347.0" y="214.0">Q</text>
   <polyline fill="none" points="340,261 340,270" stroke="rgb(3, 3, 3)" stroke-linecap="square" stroke-width="2.0"/>
   <text fill="rgb(153, 153, 153)" font-family="SansSerif" font-size="12" x="336.0" y="254.0">R</text>
   <text fill="rgb(3, 3, 3)" font-family="SansSerif" font-size="12" x="323.0" y="234.0">WE</text>
   <polyline fill="none" points="310,230 319,230" stroke="rgb(3, 3, 3)" stroke-linecap="square" stroke-width="2.0"/>
   <polyline fill="none" points="321,246 328,250 321,254" stroke="rgb(3, 3, 3)" stroke-linecap="square" stroke-width="2.0"/>
   <polyline fill="none" points="310,250 319,250" stroke="rgb(3, 3, 3)" stroke-linecap="square" stroke-width="2.0"/>
   <ellipse cx="310.0" cy="210.0" fill="rgb(3, 3, 3)" rx="2.0" ry="2.0" stroke="none" stroke-width="1.0"/>
   <ellipse cx="370.0" cy="210.0" fill="rgb(3, 3, 3)" rx="2.0" ry="2.0" stroke="none" stroke-width="1.0"/>
   <ellipse cx="340.0" cy="270.0" fill="rgb(3, 3, 3)" rx="2.0" ry="2.0" stroke="none" stroke-width="1.0"/>
   <ellipse cx="310.0" cy="230.0" fill="rgb(3, 3, 3)" rx="2.0" ry="2.0" stroke="none" stroke-width="1.0"/>
   <ellipse cx="310.0" cy="250.0" fill="rgb(3, 3, 3)" rx="2.0" ry="2.0" stroke="none" stroke-width="1.0"/>
   <text fill="rgb(0, 0, 0)" font-family="SansSerif" font-size="10" font-style="italic" font-weight="bold" x="676.0" y="260.0">Note: Ready signal is not meant for enabling the write input, it is to say all the</text>
   <text fill="rgb(0, 0, 0)" font-family="SansSerif" font-size="10" font-style="italic" font-weight="bold" x="708.0" y="275.0">immediate values are loaded into the pipeline registers to the decode units</text>
   <text fill="rgb(0, 0, 0)" font-family="SansSerif" font-size="10" font-style="italic" font-weight="bold" x="706.0" y="285.0">currently it is being used for write enable and must be changed in the future</text>
</svg>
