<?xml version="1.0" encoding="UTF-8" standalone="no"?>
<svg xmlns="http://www.w3.org/2000/svg" version="1.1" viewBox="0 0 542 461">
   <polyline fill="none" points="175,65 185,65" stroke="rgb(0, 0, 0)" stroke-linecap="square" stroke-width="3.0"/>
   <ellipse cx="175.0" cy="85.0" fill="rgb(0, 0, 0)" rx="5.0" ry="5.0" stroke="none" stroke-width="3.0"/>
   <polyline fill="none" points="215,125 215,115 205,115 205,15 365,15 365,115 355,115 355,125" stroke="rgb(0, 0, 0)" stroke-linecap="square" stroke-width="2.0"/>
   <polyline fill="none" points="206,91 213,95 206,99" stroke="rgb(0, 0, 0)" stroke-linecap="square" stroke-width="2.0"/>
   <polyline fill="none" points="206,101 213,105 206,109" stroke="rgb(0, 0, 0)" stroke-linecap="square" stroke-width="2.0"/>
   <text fill="rgb(0, 0, 0)" font-family="SansSerif" font-size="12" x="266.0" y="26.0">CTR16</text>
   <polyline fill="none" points="185,35 205,35" stroke="rgb(0, 0, 0)" stroke-linecap="square" stroke-width="2.0"/>
   <text fill="rgb(0, 0, 0)" font-family="SansSerif" font-size="12" x="215.0" y="41.0">R</text>
   <ellipse cx="185.0" cy="35.0" fill="rgb(0, 0, 0)" rx="2.0" ry="2.0" stroke="none" stroke-width="2.0"/>
   <polyline fill="none" points="185,45 205,45" stroke="rgb(0, 0, 0)" stroke-linecap="square" stroke-width="2.0"/>
   <polyline fill="none" points="190,45 190,55 197,55" stroke="rgb(0, 0, 0)" stroke-linecap="square" stroke-width="2.0"/>
   <ellipse cx="201.0" cy="55.0" fill="none" rx="4.0" ry="4.0" stroke="rgb(0, 0, 0)" stroke-width="2.0"/>
   <ellipse cx="190.0" cy="45.0" fill="rgb(0, 0, 0)" rx="3.0" ry="3.0" stroke="none" stroke-width="2.0"/>
   <ellipse cx="185.0" cy="45.0" fill="rgb(0, 0, 0)" rx="2.0" ry="2.0" stroke="none" stroke-width="2.0"/>
   <text fill="rgb(0, 0, 0)" font-family="SansSerif" font-size="12" x="215.0" y="61.0">M2 [count]</text>
   <text fill="rgb(0, 0, 0)" font-family="SansSerif" font-size="12" x="215.0" y="51.0">M1 [load]</text>
   <polyline fill="none" points="185,65 205,65" stroke="rgb(0, 0, 0)" stroke-linecap="square" stroke-width="2.0"/>
   <polyline fill="none" points="190,65 190,75 197,75" stroke="rgb(0, 0, 0)" stroke-linecap="square" stroke-width="2.0"/>
   <ellipse cx="201.0" cy="75.0" fill="none" rx="4.0" ry="4.0" stroke="rgb(0, 0, 0)" stroke-width="2.0"/>
   <ellipse cx="190.0" cy="65.0" fill="rgb(0, 0, 0)" rx="3.0" ry="3.0" stroke="none" stroke-width="2.0"/>
   <text fill="rgb(0, 0, 0)" font-family="SansSerif" font-size="12" x="215.0" y="71.0">M3 [up]</text>
   <text fill="rgb(0, 0, 0)" font-family="SansSerif" font-size="12" x="215.0" y="81.0">M4 [down]</text>
   <ellipse cx="185.0" cy="65.0" fill="rgb(0, 0, 0)" rx="2.0" ry="2.0" stroke="none" stroke-width="2.0"/>
   <polyline fill="none" points="185,85 205,85" stroke="rgb(0, 0, 0)" stroke-linecap="square" stroke-width="2.0"/>
   <text fill="rgb(0, 0, 0)" font-family="SansSerif" font-size="12" x="215.0" y="91.0">G5</text>
   <ellipse cx="185.0" cy="85.0" fill="rgb(0, 0, 0)" rx="2.0" ry="2.0" stroke="none" stroke-width="2.0"/>
   <polyline fill="none" points="185,95 205,95" stroke="rgb(0, 0, 0)" stroke-linecap="square" stroke-width="2.0"/>
   <polyline fill="none" points="190,95 190,105 205,105" stroke="rgb(0, 0, 0)" stroke-linecap="square" stroke-width="2.0"/>
   <ellipse cx="190.0" cy="95.0" fill="rgb(0, 0, 0)" rx="3.0" ry="3.0" stroke="none" stroke-width="2.0"/>
   <text fill="rgb(0, 0, 0)" font-family="SansSerif" font-size="12" x="215.0" y="101.0">2,3,5+/C6</text>
   <text fill="rgb(0, 0, 0)" font-family="SansSerif" font-size="12" x="215.0" y="111.0">2,4,5-</text>
   <ellipse cx="185.0" cy="95.0" fill="rgb(0, 0, 0)" rx="2.0" ry="2.0" stroke="none" stroke-width="2.0"/>
   <polyline fill="none" points="365,65 385,65" stroke="rgb(0, 0, 0)" stroke-linecap="square" stroke-width="2.0"/>
   <polyline fill="none" points="380,65 380,75 365,75" stroke="rgb(0, 0, 0)" stroke-linecap="square" stroke-width="2.0"/>
   <ellipse cx="380.0" cy="65.0" fill="rgb(0, 0, 0)" rx="3.0" ry="3.0" stroke="none" stroke-width="2.0"/>
   <text fill="rgb(0, 0, 0)" font-family="SansSerif" font-size="12" x="287.0" y="71.0">3CT=0xFFFF</text>
   <text fill="rgb(0, 0, 0)" font-family="SansSerif" font-size="12" x="321.0" y="81.0">4CT=0</text>
   <ellipse cx="385.0" cy="65.0" fill="rgb(0, 0, 0)" rx="2.0" ry="2.0" stroke="none" stroke-width="2.0"/>
   <polyline fill="none" points="205,125 364,125" stroke="rgb(0, 0, 0)" stroke-linecap="square" stroke-width="2.0"/>
   <polyline fill="none" points="365,125 365,144" stroke="rgb(0, 0, 0)" stroke-linecap="square" stroke-width="2.0"/>
   <polyline fill="none" points="190,130 195,135 205,135" stroke="rgb(0, 0, 0)" stroke-linecap="square" stroke-width="2.0"/>
   <polyline fill="none" points="365,135 375,135 380,130" stroke="rgb(0, 0, 0)" stroke-linecap="square" stroke-width="2.0"/>
   <text fill="rgb(0, 0, 0)" font-family="SansSerif" font-size="7" x="371.0" y="133.0">0</text>
   <text fill="rgb(0, 0, 0)" font-family="SansSerif" font-size="7" x="195.0" y="133.0">0</text>
   <text fill="rgb(0, 0, 0)" font-family="SansSerif" font-size="12" x="206.0" y="141.0">1,6D</text>
   <ellipse cx="185.0" cy="125.0" fill="rgb(0, 0, 0)" rx="2.0" ry="2.0" stroke="none" stroke-width="4.0"/>
   <ellipse cx="385.0" cy="125.0" fill="rgb(0, 0, 0)" rx="2.0" ry="2.0" stroke="none" stroke-width="4.0"/>
   <polyline fill="none" points="205,126 205,145 364,145" stroke="rgb(0, 0, 0)" stroke-linecap="square" stroke-width="2.0"/>
   <polyline fill="none" points="206,145 365,145 365,164" stroke="rgb(0, 0, 0)" stroke-linecap="square" stroke-width="2.0"/>
   <polyline fill="none" points="190,150 195,155 205,155" stroke="rgb(0, 0, 0)" stroke-linecap="square" stroke-width="2.0"/>
   <polyline fill="none" points="365,155 375,155 380,150" stroke="rgb(0, 0, 0)" stroke-linecap="square" stroke-width="2.0"/>
   <text fill="rgb(0, 0, 0)" font-family="SansSerif" font-size="7" x="371.0" y="153.0">1</text>
   <text fill="rgb(0, 0, 0)" font-family="SansSerif" font-size="7" x="195.0" y="153.0">1</text>
   <text fill="rgb(0, 0, 0)" font-family="SansSerif" font-size="12" x="206.0" y="161.0">1,6D</text>
   <polyline fill="none" points="205,146 205,165 364,165" stroke="rgb(0, 0, 0)" stroke-linecap="square" stroke-width="2.0"/>
   <polyline fill="none" points="206,165 365,165 365,184" stroke="rgb(0, 0, 0)" stroke-linecap="square" stroke-width="2.0"/>
   <polyline fill="none" points="190,170 195,175 205,175" stroke="rgb(0, 0, 0)" stroke-linecap="square" stroke-width="2.0"/>
   <polyline fill="none" points="365,175 375,175 380,170" stroke="rgb(0, 0, 0)" stroke-linecap="square" stroke-width="2.0"/>
   <text fill="rgb(0, 0, 0)" font-family="SansSerif" font-size="7" x="371.0" y="173.0">2</text>
   <text fill="rgb(0, 0, 0)" font-family="SansSerif" font-size="7" x="195.0" y="173.0">2</text>
   <text fill="rgb(0, 0, 0)" font-family="SansSerif" font-size="12" x="206.0" y="181.0">1,6D</text>
   <polyline fill="none" points="205,166 205,185 364,185" stroke="rgb(0, 0, 0)" stroke-linecap="square" stroke-width="2.0"/>
   <polyline fill="none" points="206,185 365,185 365,204" stroke="rgb(0, 0, 0)" stroke-linecap="square" stroke-width="2.0"/>
   <polyline fill="none" points="190,190 195,195 205,195" stroke="rgb(0, 0, 0)" stroke-linecap="square" stroke-width="2.0"/>
   <polyline fill="none" points="365,195 375,195 380,190" stroke="rgb(0, 0, 0)" stroke-linecap="square" stroke-width="2.0"/>
   <text fill="rgb(0, 0, 0)" font-family="SansSerif" font-size="7" x="371.0" y="193.0">3</text>
   <text fill="rgb(0, 0, 0)" font-family="SansSerif" font-size="7" x="195.0" y="193.0">3</text>
   <text fill="rgb(0, 0, 0)" font-family="SansSerif" font-size="12" x="206.0" y="201.0">1,6D</text>
   <polyline fill="none" points="205,186 205,205 364,205" stroke="rgb(0, 0, 0)" stroke-linecap="square" stroke-width="2.0"/>
   <polyline fill="none" points="206,205 365,205 365,224" stroke="rgb(0, 0, 0)" stroke-linecap="square" stroke-width="2.0"/>
   <polyline fill="none" points="190,210 195,215 205,215" stroke="rgb(0, 0, 0)" stroke-linecap="square" stroke-width="2.0"/>
   <polyline fill="none" points="365,215 375,215 380,210" stroke="rgb(0, 0, 0)" stroke-linecap="square" stroke-width="2.0"/>
   <text fill="rgb(0, 0, 0)" font-family="SansSerif" font-size="7" x="371.0" y="213.0">4</text>
   <text fill="rgb(0, 0, 0)" font-family="SansSerif" font-size="7" x="195.0" y="213.0">4</text>
   <text fill="rgb(0, 0, 0)" font-family="SansSerif" font-size="12" x="206.0" y="221.0">1,6D</text>
   <polyline fill="none" points="205,206 205,225 364,225" stroke="rgb(0, 0, 0)" stroke-linecap="square" stroke-width="2.0"/>
   <polyline fill="none" points="206,225 365,225 365,244" stroke="rgb(0, 0, 0)" stroke-linecap="square" stroke-width="2.0"/>
   <polyline fill="none" points="190,230 195,235 205,235" stroke="rgb(0, 0, 0)" stroke-linecap="square" stroke-width="2.0"/>
   <polyline fill="none" points="365,235 375,235 380,230" stroke="rgb(0, 0, 0)" stroke-linecap="square" stroke-width="2.0"/>
   <text fill="rgb(0, 0, 0)" font-family="SansSerif" font-size="7" x="371.0" y="233.0">5</text>
   <text fill="rgb(0, 0, 0)" font-family="SansSerif" font-size="7" x="195.0" y="233.0">5</text>
   <text fill="rgb(0, 0, 0)" font-family="SansSerif" font-size="12" x="206.0" y="241.0">1,6D</text>
   <polyline fill="none" points="205,226 205,245 364,245" stroke="rgb(0, 0, 0)" stroke-linecap="square" stroke-width="2.0"/>
   <polyline fill="none" points="206,245 365,245 365,264" stroke="rgb(0, 0, 0)" stroke-linecap="square" stroke-width="2.0"/>
   <polyline fill="none" points="190,250 195,255 205,255" stroke="rgb(0, 0, 0)" stroke-linecap="square" stroke-width="2.0"/>
   <polyline fill="none" points="365,255 375,255 380,250" stroke="rgb(0, 0, 0)" stroke-linecap="square" stroke-width="2.0"/>
   <text fill="rgb(0, 0, 0)" font-family="SansSerif" font-size="7" x="371.0" y="253.0">6</text>
   <text fill="rgb(0, 0, 0)" font-family="SansSerif" font-size="7" x="195.0" y="253.0">6</text>
   <text fill="rgb(0, 0, 0)" font-family="SansSerif" font-size="12" x="206.0" y="261.0">1,6D</text>
   <polyline fill="none" points="205,246 205,265 364,265" stroke="rgb(0, 0, 0)" stroke-linecap="square" stroke-width="2.0"/>
   <polyline fill="none" points="206,265 365,265 365,284" stroke="rgb(0, 0, 0)" stroke-linecap="square" stroke-width="2.0"/>
   <polyline fill="none" points="190,270 195,275 205,275" stroke="rgb(0, 0, 0)" stroke-linecap="square" stroke-width="2.0"/>
   <polyline fill="none" points="365,275 375,275 380,270" stroke="rgb(0, 0, 0)" stroke-linecap="square" stroke-width="2.0"/>
   <text fill="rgb(0, 0, 0)" font-family="SansSerif" font-size="7" x="371.0" y="273.0">7</text>
   <text fill="rgb(0, 0, 0)" font-family="SansSerif" font-size="7" x="195.0" y="273.0">7</text>
   <text fill="rgb(0, 0, 0)" font-family="SansSerif" font-size="12" x="206.0" y="281.0">1,6D</text>
   <polyline fill="none" points="205,266 205,285 364,285" stroke="rgb(0, 0, 0)" stroke-linecap="square" stroke-width="2.0"/>
   <polyline fill="none" points="206,285 365,285 365,304" stroke="rgb(0, 0, 0)" stroke-linecap="square" stroke-width="2.0"/>
   <polyline fill="none" points="190,290 195,295 205,295" stroke="rgb(0, 0, 0)" stroke-linecap="square" stroke-width="2.0"/>
   <polyline fill="none" points="365,295 375,295 380,290" stroke="rgb(0, 0, 0)" stroke-linecap="square" stroke-width="2.0"/>
   <text fill="rgb(0, 0, 0)" font-family="SansSerif" font-size="7" x="371.0" y="293.0">8</text>
   <text fill="rgb(0, 0, 0)" font-family="SansSerif" font-size="7" x="195.0" y="293.0">8</text>
   <text fill="rgb(0, 0, 0)" font-family="SansSerif" font-size="12" x="206.0" y="301.0">1,6D</text>
   <polyline fill="none" points="205,286 205,305 364,305" stroke="rgb(0, 0, 0)" stroke-linecap="square" stroke-width="2.0"/>
   <polyline fill="none" points="206,305 365,305 365,324" stroke="rgb(0, 0, 0)" stroke-linecap="square" stroke-width="2.0"/>
   <polyline fill="none" points="190,310 195,315 205,315" stroke="rgb(0, 0, 0)" stroke-linecap="square" stroke-width="2.0"/>
   <polyline fill="none" points="365,315 375,315 380,310" stroke="rgb(0, 0, 0)" stroke-linecap="square" stroke-width="2.0"/>
   <text fill="rgb(0, 0, 0)" font-family="SansSerif" font-size="7" x="371.0" y="313.0">9</text>
   <text fill="rgb(0, 0, 0)" font-family="SansSerif" font-size="7" x="195.0" y="313.0">9</text>
   <text fill="rgb(0, 0, 0)" font-family="SansSerif" font-size="12" x="206.0" y="321.0">1,6D</text>
   <polyline fill="none" points="205,306 205,325 364,325" stroke="rgb(0, 0, 0)" stroke-linecap="square" stroke-width="2.0"/>
   <polyline fill="none" points="206,325 365,325 365,344" stroke="rgb(0, 0, 0)" stroke-linecap="square" stroke-width="2.0"/>
   <polyline fill="none" points="190,330 195,335 205,335" stroke="rgb(0, 0, 0)" stroke-linecap="square" stroke-width="2.0"/>
   <polyline fill="none" points="365,335 375,335 380,330" stroke="rgb(0, 0, 0)" stroke-linecap="square" stroke-width="2.0"/>
   <text fill="rgb(0, 0, 0)" font-family="SansSerif" font-size="7" x="367.0" y="333.0">10</text>
   <text fill="rgb(0, 0, 0)" font-family="SansSerif" font-size="7" x="195.0" y="333.0">10</text>
   <text fill="rgb(0, 0, 0)" font-family="SansSerif" font-size="12" x="206.0" y="341.0">1,6D</text>
   <polyline fill="none" points="205,326 205,345 364,345" stroke="rgb(0, 0, 0)" stroke-linecap="square" stroke-width="2.0"/>
   <polyline fill="none" points="206,345 365,345 365,364" stroke="rgb(0, 0, 0)" stroke-linecap="square" stroke-width="2.0"/>
   <polyline fill="none" points="190,350 195,355 205,355" stroke="rgb(0, 0, 0)" stroke-linecap="square" stroke-width="2.0"/>
   <polyline fill="none" points="365,355 375,355 380,350" stroke="rgb(0, 0, 0)" stroke-linecap="square" stroke-width="2.0"/>
   <text fill="rgb(0, 0, 0)" font-family="SansSerif" font-size="7" x="367.0" y="353.0">11</text>
   <text fill="rgb(0, 0, 0)" font-family="SansSerif" font-size="7" x="195.0" y="353.0">11</text>
   <text fill="rgb(0, 0, 0)" font-family="SansSerif" font-size="12" x="206.0" y="361.0">1,6D</text>
   <polyline fill="none" points="205,346 205,365 364,365" stroke="rgb(0, 0, 0)" stroke-linecap="square" stroke-width="2.0"/>
   <polyline fill="none" points="206,365 365,365 365,384" stroke="rgb(0, 0, 0)" stroke-linecap="square" stroke-width="2.0"/>
   <polyline fill="none" points="190,370 195,375 205,375" stroke="rgb(0, 0, 0)" stroke-linecap="square" stroke-width="2.0"/>
   <polyline fill="none" points="365,375 375,375 380,370" stroke="rgb(0, 0, 0)" stroke-linecap="square" stroke-width="2.0"/>
   <text fill="rgb(0, 0, 0)" font-family="SansSerif" font-size="7" x="367.0" y="373.0">12</text>
   <text fill="rgb(0, 0, 0)" font-family="SansSerif" font-size="7" x="195.0" y="373.0">12</text>
   <text fill="rgb(0, 0, 0)" font-family="SansSerif" font-size="12" x="206.0" y="381.0">1,6D</text>
   <polyline fill="none" points="205,366 205,385 364,385" stroke="rgb(0, 0, 0)" stroke-linecap="square" stroke-width="2.0"/>
   <polyline fill="none" points="206,385 365,385 365,404" stroke="rgb(0, 0, 0)" stroke-linecap="square" stroke-width="2.0"/>
   <polyline fill="none" points="190,390 195,395 205,395" stroke="rgb(0, 0, 0)" stroke-linecap="square" stroke-width="2.0"/>
   <polyline fill="none" points="365,395 375,395 380,390" stroke="rgb(0, 0, 0)" stroke-linecap="square" stroke-width="2.0"/>
   <text fill="rgb(0, 0, 0)" font-family="SansSerif" font-size="7" x="367.0" y="393.0">13</text>
   <text fill="rgb(0, 0, 0)" font-family="SansSerif" font-size="7" x="195.0" y="393.0">13</text>
   <text fill="rgb(0, 0, 0)" font-family="SansSerif" font-size="12" x="206.0" y="401.0">1,6D</text>
   <polyline fill="none" points="205,386 205,405 364,405" stroke="rgb(0, 0, 0)" stroke-linecap="square" stroke-width="2.0"/>
   <polyline fill="none" points="206,405 365,405 365,424" stroke="rgb(0, 0, 0)" stroke-linecap="square" stroke-width="2.0"/>
   <polyline fill="none" points="190,410 195,415 205,415" stroke="rgb(0, 0, 0)" stroke-linecap="square" stroke-width="2.0"/>
   <polyline fill="none" points="365,415 375,415 380,410" stroke="rgb(0, 0, 0)" stroke-linecap="square" stroke-width="2.0"/>
   <text fill="rgb(0, 0, 0)" font-family="SansSerif" font-size="7" x="367.0" y="413.0">14</text>
   <text fill="rgb(0, 0, 0)" font-family="SansSerif" font-size="7" x="195.0" y="413.0">14</text>
   <text fill="rgb(0, 0, 0)" font-family="SansSerif" font-size="12" x="206.0" y="421.0">1,6D</text>
   <polyline fill="none" points="205,406 205,425 364,425" stroke="rgb(0, 0, 0)" stroke-linecap="square" stroke-width="2.0"/>
   <polyline fill="none" points="206,425 365,425 365,444" stroke="rgb(0, 0, 0)" stroke-linecap="square" stroke-width="2.0"/>
   <polyline fill="none" points="365,445 206,445" stroke="rgb(0, 0, 0)" stroke-linecap="square" stroke-width="2.0"/>
   <polyline fill="none" points="205,445 205,426" stroke="rgb(0, 0, 0)" stroke-linecap="square" stroke-width="2.0"/>
   <polyline fill="none" points="190,430 195,435 205,435" stroke="rgb(0, 0, 0)" stroke-linecap="square" stroke-width="2.0"/>
   <polyline fill="none" points="365,435 375,435 380,430" stroke="rgb(0, 0, 0)" stroke-linecap="square" stroke-width="2.0"/>
   <text fill="rgb(0, 0, 0)" font-family="SansSerif" font-size="7" x="367.0" y="433.0">15</text>
   <text fill="rgb(0, 0, 0)" font-family="SansSerif" font-size="7" x="195.0" y="433.0">15</text>
   <text fill="rgb(0, 0, 0)" font-family="SansSerif" font-size="12" x="206.0" y="441.0">1,6D</text>
   <polyline fill="none" points="385,125 380,130 380,145 380,165 380,185 380,205 380,225 380,245 380,265 380,285 380,305 380,325 380,345 380,365 380,385 380,405 380,425 380,430" stroke="rgb(0, 0, 0)" stroke-linecap="square" stroke-width="4.0"/>
   <polyline fill="none" points="380,60 390,70" stroke="rgb(255, 0, 0)" stroke-linecap="square" stroke-width="1.0"/>
   <polyline fill="none" points="380,70 390,60" stroke="rgb(255, 0, 0)" stroke-linecap="square" stroke-width="1.0"/>
   <ellipse cx="385.0" cy="65.0" fill="rgb(0, 0, 0)" rx="2.0" ry="2.0" stroke="none" stroke-width="1.0"/>
   <text fill="rgb(0, 0, 0)" font-family="Monospaced" font-size="12" x="165.0" y="69.0">1</text>
   <ellipse cx="175.0" cy="65.0" fill="rgb(0, 0, 0)" rx="2.0" ry="2.0" stroke="none" stroke-width="1.0"/>
   <polyline fill="none" points="100,75 105,75 155,75 155,45 185,45" stroke="rgb(0, 0, 0)" stroke-linecap="square" stroke-width="3.0"/>
   <polygon fill="none" points="90,84 100,75 90,66 66,66 66,84" stroke="rgb(0, 0, 0)" stroke-linecap="square" stroke-width="2.0"/>
   <text fill="rgb(0, 0, 0)" font-family="Monospaced" font-size="12" x="71.0" y="81.0">x1</text>
   <text fill="rgb(0, 0, 0)" font-family="Monospaced" font-size="16" font-weight="bold" x="27.0" y="82.0">load</text>
   <ellipse cx="105.0" cy="75.0" fill="rgb(0, 0, 0)" rx="2.0" ry="2.0" stroke="none" stroke-width="2.0"/>
   <polyline fill="none" points="100,135 105,135 145,135 145,35 185,35" stroke="rgb(0, 0, 0)" stroke-linecap="square" stroke-width="3.0"/>
   <polygon fill="none" points="90,144 100,135 90,126 66,126 66,144" stroke="rgb(0, 0, 0)" stroke-linecap="square" stroke-width="2.0"/>
   <text fill="rgb(0, 0, 0)" font-family="Monospaced" font-size="12" x="71.0" y="141.0">x1</text>
   <text fill="rgb(0, 0, 0)" font-family="Monospaced" font-size="16" font-weight="bold" x="15.0" y="142.0">reset</text>
   <ellipse cx="105.0" cy="135.0" fill="rgb(0, 0, 0)" rx="2.0" ry="2.0" stroke="none" stroke-width="2.0"/>
   <polyline fill="none" points="100,105 105,105 165,105 165,95 185,95" stroke="rgb(0, 0, 0)" stroke-linecap="square" stroke-width="3.0"/>
   <polygon fill="none" points="90,114 100,105 90,96 66,96 66,114" stroke="rgb(0, 0, 0)" stroke-linecap="square" stroke-width="2.0"/>
   <text fill="rgb(0, 0, 0)" font-family="Monospaced" font-size="12" x="71.0" y="111.0">x1</text>
   <text fill="rgb(0, 0, 0)" font-family="Monospaced" font-size="16" font-weight="bold" x="17.0" y="112.0">clock</text>
   <ellipse cx="105.0" cy="105.0" fill="rgb(0, 0, 0)" rx="2.0" ry="2.0" stroke="none" stroke-width="2.0"/>
   <polyline fill="none" points="100,45 105,45 125,45 125,85 175,85 185,85" stroke="rgb(0, 0, 0)" stroke-linecap="square" stroke-width="3.0"/>
   <polygon fill="none" points="90,54 100,45 90,36 66,36 66,54" stroke="rgb(0, 0, 0)" stroke-linecap="square" stroke-width="2.0"/>
   <text fill="rgb(0, 0, 0)" font-family="Monospaced" font-size="12" x="71.0" y="51.0">x1</text>
   <text fill="rgb(0, 0, 0)" font-family="Monospaced" font-size="16" font-weight="bold" x="5.0" y="52.0">enable</text>
   <ellipse cx="105.0" cy="45.0" fill="rgb(0, 0, 0)" rx="2.0" ry="2.0" stroke="none" stroke-width="2.0"/>
   <polyline fill="none" points="122,15 125,15 135,15 135,125 185,125 190,130 190,145 190,165 190,185 190,205 190,225 190,245 190,265 190,285 190,305 190,325 190,345 190,365 190,385 190,405 190,425 190,430" stroke="rgb(0, 0, 0)" stroke-linecap="square" stroke-width="4.0"/>
   <polygon fill="none" points="110,24 120,15 110,6 66,6 66,24" stroke="rgb(0, 0, 0)" stroke-linecap="square" stroke-width="2.0"/>
   <text fill="rgb(0, 0, 0)" font-family="Monospaced" font-size="12" x="78.0" y="21.0">x16</text>
   <text fill="rgb(0, 0, 0)" font-family="Monospaced" font-size="16" font-weight="bold" x="8.0" y="22.0">FFFFin</text>
   <ellipse cx="125.0" cy="15.0" fill="rgb(0, 0, 0)" rx="2.0" ry="2.0" stroke="none" stroke-width="2.0"/>
   <polyline fill="none" points="175,85 175,455 395,455 395,135 395,129" stroke="rgb(0, 0, 0)" stroke-linecap="square" stroke-width="3.0"/>
   <polygon fill="none" points="405,125 386,118 386,132" stroke="rgb(0, 0, 0)" stroke-linecap="square" stroke-width="2.0"/>
   <polyline fill="none" points="409,125 408,125" stroke="rgb(0, 0, 0)" stroke-linecap="square" stroke-width="4.0"/>
   <polygon fill="none" points="455,116 465,125 455,134 411,134 411,116" stroke="rgb(0, 0, 0)" stroke-linecap="square" stroke-width="2.0"/>
   <text fill="rgb(0, 0, 0)" font-family="Monospaced" font-size="12" x="418.0" y="131.0">x16</text>
   <text fill="rgb(0, 0, 0)" font-family="Monospaced" font-size="16" font-weight="bold" x="467.0" y="132.0">FFFFout</text>
   <ellipse cx="405.0" cy="125.0" fill="rgb(0, 0, 0)" rx="2.0" ry="2.0" stroke="none" stroke-width="2.0"/>
</svg>
